<?xml version="1.0" standalone="no"?>
 <!DOCTYPE svg PUBLIC "-//W3C//DTD SVG 1.1//EN" 
 "http://www.w3.org/Graphics/SVG/1.1/DTD/svg11.dtd"> 
<svg xmlns="http://www.w3.org/2000/svg" version="1.1" 
    width="8.22452cm" height="8.3058cm" viewBox="0 0 32380 32700 ">
<title>SVG Picture created as smartclock-B_Cu.svg date 2013/08/03 16:24:47 </title>
  <desc>Picture generated by PCBNEW </desc>
<g style="fill:#000000; fill-opacity:1;stroke:#000000; stroke-opacity:1;
stroke-linecap:round; stroke-linejoin:round; "
 transform="translate(0 0) scale(1 1)">
</g>
<g style="fill:#7F7F00; fill-opacity:0.0; 
stroke:#7F7F00; stroke-width:39.3701; stroke-opacity:1; 
stroke-linecap:round; stroke-linejoin:round;">
</g>
<g style="fill:#7F7F00; fill-opacity:1.0; 
stroke:#7F7F00; stroke-width:39.3701; stroke-opacity:1; 
stroke-linecap:round; stroke-linejoin:round;">
<circle cx="10801.6" cy="15027.4" r="780.315" /> 
<polyline style="fill-rule:evenodd;"
points="1371,2618
1371,2058
1932,2058
1932,2618
1371,2618
" /> 
<circle cx="1652.01" cy="1338.43" r="280.315" /> 
<circle cx="2652.01" cy="2338.43" r="280.315" /> 
<circle cx="2652.01" cy="1338.43" r="280.315" /> 
<circle cx="3652.01" cy="2338.43" r="280.315" /> 
<circle cx="3652.01" cy="1338.43" r="280.315" /> 
<circle cx="4652.01" cy="2338.43" r="280.315" /> 
<circle cx="4652.01" cy="1338.43" r="280.315" /> 
<circle cx="5652.01" cy="2338.43" r="280.315" /> 
<circle cx="5652.01" cy="1338.43" r="280.315" /> 
<circle cx="6652.01" cy="2338.43" r="280.315" /> 
<circle cx="6652.01" cy="1338.43" r="280.315" /> 
<circle cx="7652.01" cy="2338.43" r="280.315" /> 
<circle cx="7652.01" cy="1338.43" r="280.315" /> 
<circle cx="8652.01" cy="2338.43" r="280.315" /> 
<circle cx="8652.01" cy="1338.43" r="280.315" /> 
<circle cx="9652.01" cy="2338.43" r="280.315" /> 
<circle cx="9652.01" cy="1338.43" r="280.315" /> 
<circle cx="10652" cy="2338.43" r="280.315" /> 
<circle cx="10652" cy="1338.43" r="280.315" /> 
<circle cx="11652" cy="2338.43" r="280.315" /> 
<circle cx="11652" cy="1338.43" r="280.315" /> 
<circle cx="12652" cy="2338.43" r="280.315" /> 
<circle cx="12652" cy="1338.43" r="280.315" /> 
<circle cx="13652" cy="2338.43" r="280.315" /> 
<circle cx="13652" cy="1338.43" r="280.315" /> 
<polyline style="fill-rule:evenodd;"
points="16963,14661
16601,14300
16963,13939
17324,14300
16963,14661
" /> 
<circle cx="16255.9" cy="15007.7" r="255.315" /> 
<circle cx="16963" cy="15714.8" r="255.315" /> 
<circle cx="19915.8" cy="14566.8" r="255.315" /> 
<circle cx="19915.8" cy="15566.8" r="255.315" /> 
<circle cx="22317.4" cy="14507.7" r="255.315" /> 
<circle cx="22317.4" cy="15507.7" r="255.315" /> 
<circle cx="5683.51" cy="4279.37" r="305.315" /> 
<circle cx="5683.51" cy="5854.17" r="305.315" /> 
<circle cx="2730.75" cy="4082.52" r="305.315" /> 
<circle cx="2730.75" cy="6051.02" r="305.315" /> 
<circle cx="12258.3" cy="7535.28" r="255.315" /> 
<circle cx="12258.3" cy="6535.28" r="255.315" /> 
<circle cx="9522.09" cy="6554.96" r="255.315" /> 
<circle cx="9522.09" cy="7554.96" r="255.315" /> 
<polyline style="fill-rule:evenodd;"
points="14778,6299
15289,6299
15289,6810
14778,6810
14778,6299
" /> 
<circle cx="15033.9" cy="7554.96" r="255.315" /> 
<circle cx="22022.1" cy="3157.32" r="780.315" /> 
<polyline style="fill-rule:evenodd;"
points="3577,19889
3577,19220
4246,19220
4246,19889
3577,19889
" /> 
<circle cx="4911.85" cy="19555" r="334.646" /> 
<circle cx="5911.85" cy="19555" r="334.646" /> 
<circle cx="6911.85" cy="19555" r="334.646" /> 
<circle cx="7911.85" cy="19555" r="334.646" /> 
<circle cx="8911.85" cy="19555" r="334.646" /> 
<circle cx="9911.85" cy="19555" r="334.646" /> 
<circle cx="10911.9" cy="19555" r="334.646" /> 
<circle cx="11911.9" cy="19555" r="334.646" /> 
<circle cx="12911.9" cy="19555" r="334.646" /> 
<circle cx="13911.9" cy="19555" r="334.646" /> 
<circle cx="14911.9" cy="19555" r="334.646" /> 
<circle cx="15911.9" cy="19555" r="334.646" /> 
<circle cx="16911.9" cy="19555" r="334.646" /> 
<circle cx="17911.9" cy="19555" r="334.646" /> 
<circle cx="18911.9" cy="19555" r="334.646" /> 
</g>
<g style="fill:#BFBFBF; fill-opacity:1.0; 
stroke:#BFBFBF; stroke-width:39.3701; stroke-opacity:1; 
stroke-linecap:round; stroke-linejoin:round;">
<circle cx="2592.96" cy="19614" r="216.535" /> 
<circle cx="2159.89" cy="3334.49" r="216.535" /> 
<circle cx="2081.15" cy="18039.2" r="216.535" /> 
<circle cx="2258.31" cy="7901.42" r="216.535" /> 
<circle cx="2947.29" cy="9082.52" r="216.535" /> 
<circle cx="3636.26" cy="8078.58" r="216.535" /> 
<circle cx="7947.29" cy="9633.7" r="216.535" /> 
<circle cx="8518.15" cy="18177" r="216.535" /> 
<circle cx="7966.97" cy="4909.29" r="216.535" /> 
<circle cx="7573.27" cy="4299.06" r="216.535" /> 
<circle cx="18006.3" cy="11070.7" r="216.535" /> 
<circle cx="10939.4" cy="5263.62" r="216.535" /> 
<circle cx="6687.45" cy="18236.1" r="216.535" /> 
<circle cx="6096.89" cy="6661.26" r="216.535" /> 
<circle cx="7592.96" cy="18275.4" r="216.535" /> 
<circle cx="16963" cy="12133.7" r="216.535" /> 
</g>
<g style="fill:#009F00; fill-opacity:1.0; 
stroke:#009F00; stroke-width:196.85; stroke-opacity:1; 
stroke-linecap:round; stroke-linejoin:round;">
<path d="M8360 6554
L8014 6554
" />
<path d="M8014 6554
L7317 7251
" />
<path d="M7317 7251
L2120 7251
" />
<path d="M2120 7251
L1608 7763
" />
</g>
<g style="fill:#009F00; fill-opacity:1.0; 
stroke:#009F00; stroke-width:98.4252; stroke-opacity:1; 
stroke-linecap:round; stroke-linejoin:round;">
<path d="M9522 6554
L8360 6554
" />
<path d="M8360 6554
L8388 6554
" />
</g>
<g style="fill:#009F00; fill-opacity:1.0; 
stroke:#009F00; stroke-width:196.85; stroke-opacity:1; 
stroke-linecap:round; stroke-linejoin:round;">
<path d="M4376 17980
L5911 19515
" />
<path d="M4148 17980
L4376 17980
" />
<path d="M1608 15440
L4148 17980
" />
<path d="M1608 7763
L1608 15440
" />
</g>
<g style="fill:#009F00; fill-opacity:1.0; 
stroke:#009F00; stroke-width:98.4252; stroke-opacity:1; 
stroke-linecap:round; stroke-linejoin:round;">
<path d="M1608 7704
L1608 7763
" />
</g>
<g style="fill:#009F00; fill-opacity:1.0; 
stroke:#009F00; stroke-width:196.85; stroke-opacity:1; 
stroke-linecap:round; stroke-linejoin:round;">
<path d="M9522 6554
L9522 5066
" />
<path d="M9522 5066
L7750 3295
" />
<path d="M7750 3295
L2199 3295
" />
<path d="M2199 3295
L2159 3334
" />
<path d="M4911 19515
L4911 19255
" />
<path d="M4911 19255
L4325 18669
" />
<path d="M4325 18669
L2081 18669
" />
<path d="M6407 21011
L3321 21011
" />
<path d="M3321 21011
L2081 19771
" />
<path d="M2081 19771
L2081 18669
" />
<path d="M22317 14507
L23155 14507
" />
<path d="M19974 21011
L6407 21011
" />
<path d="M23262 17724
L19974 21011
" />
<path d="M23262 14614
L23262 17724
" />
<path d="M23155 14507
L23262 14614
" />
<path d="M2081 18669
L2081 18039
" />
</g>
<g style="fill:#009F00; fill-opacity:1.0; 
stroke:#009F00; stroke-width:98.4252; stroke-opacity:1; 
stroke-linecap:round; stroke-linejoin:round;">
<path d="M12789 18117
L12789 18098
" />
</g>
<g style="fill:#009F00; fill-opacity:1.0; 
stroke:#009F00; stroke-width:196.85; stroke-opacity:1; 
stroke-linecap:round; stroke-linejoin:round;">
<path d="M12789 18098
L12120 17428
" />
<path d="M12120 17428
L4325 17428
" />
<path d="M4325 17428
L2277 15381
" />
</g>
<g style="fill:#009F00; fill-opacity:1.0; 
stroke:#009F00; stroke-width:98.4252; stroke-opacity:1; 
stroke-linecap:round; stroke-linejoin:round;">
<path d="M2277 7921
L2258 7901
" />
</g>
<g style="fill:#009F00; fill-opacity:1.0; 
stroke:#009F00; stroke-width:196.85; stroke-opacity:1; 
stroke-linecap:round; stroke-linejoin:round;">
<path d="M2277 15381
L2277 7921
" />
</g>
<g style="fill:#009F00; fill-opacity:1.0; 
stroke:#009F00; stroke-width:98.4252; stroke-opacity:1; 
stroke-linecap:round; stroke-linejoin:round;">
<path d="M13911 19515
L13911 19240
" />
</g>
<g style="fill:#009F00; fill-opacity:1.0; 
stroke:#009F00; stroke-width:196.85; stroke-opacity:1; 
stroke-linecap:round; stroke-linejoin:round;">
<path d="M13911 19240
L12789 18117
" />
</g>
<g style="fill:#009F00; fill-opacity:1.0; 
stroke:#009F00; stroke-width:98.4252; stroke-opacity:1; 
stroke-linecap:round; stroke-linejoin:round;">
<path d="M12789 18117
L12809 18137
" />
</g>
<g style="fill:#009F00; fill-opacity:1.0; 
stroke:#009F00; stroke-width:196.85; stroke-opacity:1; 
stroke-linecap:round; stroke-linejoin:round;">
<path d="M13163 17704
L12356 16897
" />
<path d="M12356 16897
L4679 16897
" />
<path d="M4679 16897
L2947 15165
" />
<path d="M2947 15165
L2947 9082
" />
</g>
<g style="fill:#009F00; fill-opacity:1.0; 
stroke:#009F00; stroke-width:98.4252; stroke-opacity:1; 
stroke-linecap:round; stroke-linejoin:round;">
<path d="M13163 17724
L13163 17704
" />
<path d="M14911 19515
L14911 19472
" />
</g>
<g style="fill:#009F00; fill-opacity:1.0; 
stroke:#009F00; stroke-width:196.85; stroke-opacity:1; 
stroke-linecap:round; stroke-linejoin:round;">
<path d="M14911 19472
L13163 17724
" />
</g>
<g style="fill:#009F00; fill-opacity:1.0; 
stroke:#009F00; stroke-width:98.4252; stroke-opacity:1; 
stroke-linecap:round; stroke-linejoin:round;">
<path d="M13163 17724
L13144 17704
" />
</g>
<g style="fill:#009F00; fill-opacity:1.0; 
stroke:#009F00; stroke-width:196.85; stroke-opacity:1; 
stroke-linecap:round; stroke-linejoin:round;">
<path d="M13616 17232
L13616 17212
" />
<path d="M13616 17212
L12789 16385
" />
<path d="M12789 16385
L5073 16385
" />
<path d="M5073 16385
L3636 14948
" />
<path d="M3636 14948
L3636 8078
" />
<path d="M15900 19515
L13616 17232
" />
</g>
<g style="fill:#009F00; fill-opacity:1.0; 
stroke:#009F00; stroke-width:98.4252; stroke-opacity:1; 
stroke-linecap:round; stroke-linejoin:round;">
<path d="M13616 17232
L13596 17212
" />
<path d="M15911 19515
L15900 19515
" />
</g>
<g style="fill:#009F00; fill-opacity:1.0; 
stroke:#009F00; stroke-width:196.85; stroke-opacity:1; 
stroke-linecap:round; stroke-linejoin:round;">
<path d="M16911 18598
L8774 10460
" />
<path d="M16911 18598
L16911 19515
" />
<path d="M8803 10490
L8774 10460
" />
<path d="M7947 9633
L8803 10490
" />
<path d="M8911 19515
L8911 18570
" />
<path d="M8911 18570
L8518 18177
" />
<path d="M2730 4082
L2730 4948
" />
<path d="M2730 6051
L2730 4948
" />
<path d="M7966 4909
L2730 4948
" />
<path d="M7553 4279
L5683 4279
" />
</g>
<g style="fill:#009F00; fill-opacity:1.0; 
stroke:#009F00; stroke-width:98.4252; stroke-opacity:1; 
stroke-linecap:round; stroke-linejoin:round;">
<path d="M7573 4299
L7553 4279
" />
</g>
<g style="fill:#009F00; fill-opacity:1.0; 
stroke:#009F00; stroke-width:196.85; stroke-opacity:1; 
stroke-linecap:round; stroke-linejoin:round;">
<path d="M18006 11070
L19915 12980
" />
<path d="M19915 14566
L19915 12980
" />
</g>
<g style="fill:#009F00; fill-opacity:1.0; 
stroke:#009F00; stroke-width:98.4252; stroke-opacity:1; 
stroke-linecap:round; stroke-linejoin:round;">
<path d="M12211 6535
L12258 6535
" />
</g>
<g style="fill:#009F00; fill-opacity:1.0; 
stroke:#009F00; stroke-width:196.85; stroke-opacity:1; 
stroke-linecap:round; stroke-linejoin:round;">
<path d="M10939 5263
L12211 6535
" />
<path d="M12258 6535
L15014 6535
" />
<path d="M15014 6535
L15033 6554
" />
<path d="M17911 19515
L17911 19893
" />
<path d="M17911 19893
L18360 20342
" />
<path d="M18360 20342
L19817 20342
" />
<path d="M19817 20342
L22317 17842
" />
<path d="M22317 17842
L22317 15507
" />
<path d="M9522 7554
L12238 7554
" />
</g>
<g style="fill:#009F00; fill-opacity:1.0; 
stroke:#009F00; stroke-width:98.4252; stroke-opacity:1; 
stroke-linecap:round; stroke-linejoin:round;">
<path d="M12238 7554
L12258 7535
" />
</g>
<g style="fill:#009F00; fill-opacity:1.0; 
stroke:#009F00; stroke-width:196.85; stroke-opacity:1; 
stroke-linecap:round; stroke-linejoin:round;">
<path d="M6911 19515
L6911 18460
" />
<path d="M6911 18460
L6687 18236
" />
</g>
<g style="fill:#009F00; fill-opacity:1.0; 
stroke:#009F00; stroke-width:98.4252; stroke-opacity:1; 
stroke-linecap:round; stroke-linejoin:round;">
<path d="M6911 19515
L6911 19464
" />
<path d="M19915 15566
L19844 15566
" />
</g>
<g style="fill:#009F00; fill-opacity:1.0; 
stroke:#009F00; stroke-width:196.85; stroke-opacity:1; 
stroke-linecap:round; stroke-linejoin:round;">
<path d="M19285 15007
L16255 15007
" />
<path d="M19844 15566
L19285 15007
" />
</g>
<g style="fill:#009F00; fill-opacity:1.0; 
stroke:#009F00; stroke-width:98.4252; stroke-opacity:1; 
stroke-linecap:round; stroke-linejoin:round;">
<path d="M16963 15714
L16981 15714
" />
</g>
<g style="fill:#009F00; fill-opacity:1.0; 
stroke:#009F00; stroke-width:196.85; stroke-opacity:1; 
stroke-linecap:round; stroke-linejoin:round;">
<path d="M18911 17645
L18911 19515
" />
<path d="M16981 15714
L18911 17645
" />
</g>
<g style="fill:#009F00; fill-opacity:1.0; 
stroke:#009F00; stroke-width:393.701; stroke-opacity:1; 
stroke-linecap:round; stroke-linejoin:round;">
<path d="M6096 6661
L6096 6267
" />
<path d="M6096 6267
L5683 5854
" />
</g>
<g style="fill:#009F00; fill-opacity:1.0; 
stroke:#009F00; stroke-width:98.4252; stroke-opacity:1; 
stroke-linecap:round; stroke-linejoin:round;">
<path d="M5683 5854
L5683 5913
" />
</g>
<g style="fill:#009F00; fill-opacity:1.0; 
stroke:#009F00; stroke-width:393.701; stroke-opacity:1; 
stroke-linecap:round; stroke-linejoin:round;">
<path d="M7911 19515
L7911 18594
" />
<path d="M7911 18594
L7592 18275
" />
<path d="M3911 19515
L3911 19692
" />
<path d="M3911 19692
L4699 20480
" />
<path d="M4699 20480
L6947 20480
" />
<path d="M6947 20480
L7911 19515
" />
<path d="M16963 14300
L16963 12133
" />
<path d="M16963 12133
L16963 9484
" />
<path d="M16963 9484
L15033 7554
" />
</g>
<g style="fill:#009F00; fill-opacity:1.0; 
stroke:#009F00; stroke-width:98.4252; stroke-opacity:1; 
stroke-linecap:round; stroke-linejoin:round;">
<path d="M7911 19515
L7907 19515
" />
</g>
<g style="fill:#009F00; fill-opacity:1.0; 
stroke:#009F00; stroke-width:39.3701; stroke-opacity:1; 
stroke-linecap:round; stroke-linejoin:round;">
<polyline style="fill-rule:evenodd;"
points="18225,20663
8266,20663
8266,19980
7911,19625
7557,19980
7591,20081
7817,20163
8057,20153
8232,20081
8266,19980
8266,20663
6407,20663
3861,20663
3861,20096
3861,19604
3370,19604
3307,19667
3307,19859
3307,19959
3345,20051
3416,20121
3508,20159
3799,20159
3861,20096
3861,20663
3465,20663
2840,20037
2868,20026
3004,19889
3079,19711
3079,19517
3005,19338
2868,19202
2690,19127
2496,19127
2429,19155
2429,19017
3387,19017
3345,19058
3307,19150
3307,19250
3307,19442
3370,19504
3861,19504
3861,19497
3961,19497
3961,19504
3969,19504
3969,19604
3961,19604
3961,20096
4024,20159
4315,20159
4407,20121
4478,20051
4500,19997
4569,20066
4791,20159
5031,20159
5253,20067
5411,19909
5569,20066
5791,20159
6031,20159
6253,20067
6411,19909
6569,20066
6791,20159
7031,20159
7253,20067
7423,19897
7427,19889
7486,19909
7841,19554
7486,19200
7427,19220
7424,19213
7260,19048
7260,18460
7260,18460
7260,18460
7233,18327
7173,18237
7173,18139
7099,17961
6963,17824
6850,17777
8230,17777
8106,17901
8032,18079
8031,18273
8105,18452
8242,18588
8421,18663
8511,18663
8563,18715
8563,19048
8399,19212
8396,19220
8337,19200
8266,19271
8266,19129
8232,19028
8006,18946
7766,18956
7591,19028
7557,19129
7911,19484
8266,19129
8266,19271
7982,19554
8337,19909
8396,19889
8399,19896
8569,20066
8791,20159
9031,20159
9253,20067
9411,19909
9569,20066
9791,20159
10031,20159
10253,20067
10411,19909
10569,20066
10791,20159
11031,20159
11253,20067
11411,19909
11569,20066
11791,20159
12031,20159
12253,20067
12411,19909
12569,20066
12791,20159
13031,20159
13253,20067
13411,19909
13569,20066
13791,20159
14031,20159
14253,20067
14411,19909
14569,20066
14791,20159
15031,20159
15253,20067
15411,19909
15569,20066
15791,20159
16031,20159
16253,20067
16411,19909
16569,20066
16791,20159
17031,20159
17253,20067
17411,19909
17569,20066
17635,20094
17665,20139
18114,20588
18114,20588
18225,20663
" /> 
</g>
<g style="fill:#009F00; fill-opacity:0.0; 
stroke:#009F00; stroke-width:100; stroke-opacity:1; 
stroke-linecap:round; stroke-linejoin:round;">
<polyline fill="none;"
points="18225,20663
8266,20663
8266,19980
7911,19625
7557,19980
7591,20081
7817,20163
8057,20153
8232,20081
8266,19980
8266,20663
6407,20663
3861,20663
3861,20096
3861,19604
3370,19604
3307,19667
3307,19859
3307,19959
3345,20051
3416,20121
3508,20159
3799,20159
3861,20096
3861,20663
3465,20663
2840,20037
2868,20026
3004,19889
3079,19711
3079,19517
3005,19338
2868,19202
2690,19127
2496,19127
2429,19155
2429,19017
3387,19017
3345,19058
3307,19150
3307,19250
3307,19442
3370,19504
3861,19504
3861,19497
3961,19497
3961,19504
3969,19504
3969,19604
3961,19604
3961,20096
4024,20159
4315,20159
4407,20121
4478,20051
4500,19997
4569,20066
4791,20159
5031,20159
5253,20067
5411,19909
5569,20066
5791,20159
6031,20159
6253,20067
6411,19909
6569,20066
6791,20159
7031,20159
7253,20067
7423,19897
7427,19889
7486,19909
7841,19554
7486,19200
7427,19220
7424,19213
7260,19048
7260,18460
7260,18460
7260,18460
7233,18327
7173,18237
7173,18139
7099,17961
6963,17824
6850,17777
8230,17777
8106,17901
8032,18079
8031,18273
8105,18452
8242,18588
8421,18663
8511,18663
8563,18715
8563,19048
8399,19212
8396,19220
8337,19200
8266,19271
8266,19129
8232,19028
8006,18946
7766,18956
7591,19028
7557,19129
7911,19484
8266,19129
8266,19271
7982,19554
8337,19909
8396,19889
8399,19896
8569,20066
8791,20159
9031,20159
9253,20067
9411,19909
9569,20066
9791,20159
10031,20159
10253,20067
10411,19909
10569,20066
10791,20159
11031,20159
11253,20067
11411,19909
11569,20066
11791,20159
12031,20159
12253,20067
12411,19909
12569,20066
12791,20159
13031,20159
13253,20067
13411,19909
13569,20066
13791,20159
14031,20159
14253,20067
14411,19909
14569,20066
14791,20159
15031,20159
15253,20067
15411,19909
15569,20066
15791,20159
16031,20159
16253,20067
16411,19909
16569,20066
16791,20159
17031,20159
17253,20067
17411,19909
17569,20066
17635,20094
17665,20139
18114,20588
18114,20588
18225,20663
" /> 
</g>
<g style="fill:#009F00; fill-opacity:1.0; 
stroke:#009F00; stroke-width:39.3701; stroke-opacity:1; 
stroke-linecap:round; stroke-linejoin:round;">
<polyline style="fill-rule:evenodd;"
points="25098,21844
23610,21844
23610,17724
23610,17724
23610,14614
23584,14480
23508,14367
23508,14367
23402,14261
23289,14185
23267,14181
23155,14159
23155,14159
22711,14159
22615,14062
22422,13982
22213,13982
22020,14062
21872,14209
21792,14402
21792,14611
21872,14804
22019,14952
22152,15007
22020,15062
21872,15209
21792,15402
21792,15611
21872,15804
21968,15901
21968,17698
19673,19993
19327,19993
19423,19897
19516,19675
19516,19435
19424,19213
19260,19048
19260,17645
19260,17645
19260,17645
19233,17512
19158,17399
19158,17399
17488,15728
17488,15610
17408,15417
17346,15356
19141,15356
19390,15605
19390,15670
19470,15863
19618,16011
19810,16091
20019,16091
20212,16012
20360,15864
20440,15671
20440,15462
20361,15269
20213,15121
20080,15066
20212,15012
20360,14864
20440,14671
20440,14462
20361,14269
20264,14172
20264,12980
20264,12980
20264,12980
20237,12846
20162,12733
20162,12733
18492,11064
18492,10974
18418,10795
18282,10658
18103,10584
17910,10584
17731,10658
17594,10794
17520,10973
17520,11166
17593,11345
17730,11482
17909,11556
17999,11556
19567,13124
19567,14172
19470,14268
19390,14461
19390,14670
19394,14680
19285,14659
19285,14659
17601,14659
17346,14659
17369,14636
17325,14592
17413,14592
17563,14442
17601,14350
17601,14251
17564,14159
17493,14088
17413,14008
17325,14008
17254,14079
17254,13938
17254,13849
17174,13769
17104,13699
17012,13661
16913,13661
16821,13699
16671,13849
16671,13938
16963,14229
17254,13938
17254,14079
17033,14300
17039,14306
16968,14376
16963,14371
16957,14376
16886,14306
16892,14300
16600,14008
16512,14008
16362,14158
16324,14250
16324,14350
16362,14442
16432,14512
16432,14512
16360,14482
16151,14482
15958,14562
15811,14709
15731,14902
15730,15111
15810,15304
15958,15452
16151,15532
16359,15532
16492,15477
16438,15609
16437,15818
16517,16011
16665,16159
16858,16239
17013,16239
18563,17789
18563,19048
18411,19200
18254,19042
18032,18950
17792,18950
17569,19042
17411,19200
17260,19048
17260,18598
17233,18464
17158,18351
17158,18351
15563,16757
15563,7630
15552,7422
15494,7282
15401,7257
15104,7554
15401,7852
15494,7827
15563,7630
15563,16757
15330,16524
15330,7922
15033,7625
14963,7696
14963,7554
14666,7257
14573,7282
14504,7479
14515,7687
14573,7827
14666,7852
14963,7554
14963,7696
14736,7922
14761,8015
14958,8084
15166,8073
15306,8015
15330,7922
15330,16524
9049,10243
9020,10214
9020,10214
8433,9627
8433,9537
8359,9358
8223,9221
8044,9147
7850,9147
7672,9221
7535,9357
7461,9536
7460,9729
7534,9908
7671,10045
7850,10119
7940,10119
8527,10706
8527,10706
8557,10736
16563,18742
16563,19048
16411,19200
16254,19042
16032,18950
15827,18950
13902,17025
13902,17025
13862,16966
13862,16966
13036,16139
12923,16063
12901,16059
12789,16037
12789,16037
11107,16037
11395,15918
11691,15622
11851,15237
11851,14819
11692,14433
11397,14137
11011,13977
10593,13977
10207,14136
9911,14431
9751,14817
9751,15235
9910,15621
10206,15917
10495,16037
5217,16037
3984,14804
3984,8417
4048,8354
4122,8175
4122,7982
4048,7803
3912,7666
3752,7600
7317,7600
7317,7600
7317,7600
7428,7578
7450,7573
7450,7573
7563,7498
8158,6903
8360,6903
8494,6876
8527,6854
9078,6854
9224,6999
9357,7054
9225,7109
9077,7257
8997,7450
8997,7658
9076,7851
9224,7999
9417,8079
9626,8080
9819,8000
9916,7903
11883,7903
11960,7980
12153,8060
12362,8060
12555,7980
12703,7833
12783,7640
12783,7431
12703,7238
12556,7090
12423,7035
12555,6980
12652,6883
14510,6883
14546,6971
14617,7041
14708,7079
14795,7079
14761,7094
14736,7187
15033,7484
15330,7187
15306,7094
15265,7080
15358,7080
15450,7042
15520,6971
15558,6879
15558,6780
15558,6230
15520,6138
15450,6068
15358,6030
15259,6029
14709,6029
14617,6067
14547,6138
14526,6186
12652,6186
12556,6090
12363,6010
12178,6010
11425,5257
11425,5167
11351,4988
11215,4851
11036,4777
10843,4777
10664,4851
10527,4987
10453,5166
10453,5359
10526,5538
10663,5675
10842,5749
10932,5749
11733,6550
11733,6639
11812,6832
11960,6980
12093,7035
11961,7089
11844,7206
9916,7206
9819,7110
9686,7054
9819,7000
9966,6852
10046,6659
10047,6450
9967,6257
9870,6160
9870,5066
9870,5066
9870,5066
9848,4955
9843,4933
9843,4933
9768,4820
9768,4820
7996,3048
7883,2973
7861,2968
7750,2946
7750,2946
2459,2946
2435,2922
2257,2848
2095,2848
2163,2780
2201,2688
2201,2666
2340,2804
2542,2888
2760,2888
2963,2804
3118,2650
3151,2568
3185,2649
3340,2804
3542,2888
3760,2888
3963,2804
4118,2650
4151,2568
4185,2649
4340,2804
4542,2888
4760,2888
4963,2804
5118,2650
5151,2568
5185,2649
5340,2804
5542,2888
5760,2888
5963,2804
6118,2650
6151,2568
6185,2649
6340,2804
6542,2888
6760,2888
6963,2804
7118,2650
7151,2568
7185,2649
7340,2804
7542,2888
7760,2888
7963,2804
8118,2650
8151,2568
8185,2649
8340,2804
8542,2888
8760,2888
8963,2804
9118,2650
9151,2568
9185,2649
9340,2804
9542,2888
9760,2888
9963,2804
10118,2650
10151,2568
10185,2649
10340,2804
10542,2888
10760,2888
10963,2804
11118,2650
11151,2568
11185,2649
11340,2804
11542,2888
11760,2888
11963,2804
12118,2650
12151,2568
12185,2649
12340,2804
12542,2888
12760,2888
12963,2804
13118,2650
13151,2568
13185,2649
13340,2804
13542,2888
13760,2888
13963,2804
14118,2650
14201,2448
14202,2229
14118,2027
13963,1872
13882,1838
13963,1804
14118,1650
14201,1448
14202,1229
14118,1027
13963,872
13761,788
13543,788
13340,871
13186,1026
13152,1108
13118,1027
12963,872
12761,788
12543,788
12340,871
12186,1026
12152,1108
12118,1027
11963,872
11761,788
11543,788
11340,871
11186,1026
11152,1108
11118,1027
10963,872
10761,788
10543,788
10340,871
10186,1026
10152,1108
10118,1027
9963,872
9761,788
9543,788
9340,871
9186,1026
9152,1108
9118,1027
8963,872
8761,788
8543,788
8340,871
8186,1026
8152,1108
8118,1027
7963,872
7761,788
7543,788
7340,871
7186,1026
7152,1108
7118,1027
6963,872
6761,788
6543,788
6340,871
6186,1026
6152,1108
6118,1027
5963,872
5761,788
5543,788
5340,871
5186,1026
5152,1108
5118,1027
4963,872
4761,788
4543,788
4340,871
4186,1026
4154,1102
4133,1050
4037,1023
3967,1093
3967,952
3939,857
3733,783
3515,794
3364,857
3336,952
3652,1267
3967,952
3967,1093
3722,1338
4037,1653
4133,1626
4152,1570
4185,1649
4340,1804
4421,1838
4340,1871
4186,2026
4152,2108
4118,2027
3963,1872
3888,1841
3939,1819
3967,1724
3652,1409
3336,1724
3364,1819
3419,1839
3340,1871
3186,2026
3152,2108
3118,2027
2963,1872
2882,1838
2963,1804
3118,1650
3149,1574
3170,1626
3266,1653
3581,1338
3266,1023
3170,1050
3151,1105
3118,1027
2963,872
2761,788
2543,788
2340,871
2186,1026
2152,1108
2118,1027
1963,872
1761,788
1543,788
1340,871
1186,1026
1102,1228
1101,1447
1185,1649
1324,1788
1302,1788
1210,1826
1140,1896
1102,1988
1101,2087
1101,2687
1139,2779
1210,2850
1302,2888
1401,2888
1966,2888
1884,2922
1747,3058
1673,3237
1673,3430
1747,3609
1884,3746
2062,3820
2216,3820
2155,3967
2155,4196
2243,4407
2382,4547
2382,4948
2382,5586
2243,5724
2155,5936
2155,6164
2243,6376
2404,6538
2615,6625
2844,6626
3056,6538
3217,6377
3305,6165
3305,5937
3218,5725
3079,5586
3079,5294
5736,5276
5542,5285
5380,5352
5350,5450
5683,5783
6016,5450
5986,5352
5774,5275
7632,5262
7691,5321
7869,5395
8063,5395
8242,5321
8378,5185
8453,5006
8453,4813
8379,4634
8242,4497
8064,4423
8048,4423
8059,4396
8059,4202
7985,4023
7849,3887
7670,3812
7476,3812
7298,3886
7253,3930
6148,3930
6009,3792
5798,3704
5569,3704
5358,3791
5196,3953
5108,4164
5108,4393
5186,4583
3079,4597
3079,4547
3217,4408
3305,4197
3305,3968
3218,3757
3105,3643
7606,3643
9173,5211
9173,6160
9078,6255
8527,6255
8494,6233
8360,6206
8014,6206
8014,6206
7903,6228
7880,6233
7767,6308
7767,6308
7173,6903
6263,6903
6263,5941
6252,5713
6185,5551
6087,5520
5754,5854
6087,6187
6185,6157
6263,5941
6263,6903
6016,6903
6016,6258
5683,5924
5612,5995
5612,5854
5279,5520
5181,5551
5103,5766
5114,5994
5181,6157
5279,6187
5612,5854
5612,5995
5350,6258
5380,6356
5595,6433
5824,6423
5986,6356
6016,6258
6016,6903
2120,6903
1987,6929
1874,7005
1874,7005
1362,7517
1286,7630
1282,7652
1260,7763
1260,7763
1260,15440
1260,15440
1282,15552
1286,15574
1362,15687
3901,18226
3901,18226
4014,18302
4108,18320
2487,18320
2493,18314
2567,18136
2567,17942
2493,17764
2356,17627
2178,17553
1984,17552
1806,17626
1669,17763
1595,17942
1594,18135
1668,18314
1732,18378
1732,18669
1732,19771
1732,19771
1754,19882
1759,19904
1834,20017
3074,21258
3074,21258
3187,21333
3321,21360
3321,21360
3321,21360
6407,21360
19974,21360
19974,21360
19974,21360
20086,21337
20108,21333
20108,21333
20221,21258
23508,17970
23508,17970
23508,17970
23584,17857
23610,17724
23610,17724
23610,21844
1031,21844
1031,730
16240,730
16240,6365
16261,6469
16319,6556
16407,6615
16510,6635
24384,6635
25098,6635
25098,21844
" /> 
</g>
<g style="fill:#009F00; fill-opacity:0.0; 
stroke:#009F00; stroke-width:100; stroke-opacity:1; 
stroke-linecap:round; stroke-linejoin:round;">
<polyline fill="none;"
points="25098,21844
23610,21844
23610,17724
23610,17724
23610,14614
23584,14480
23508,14367
23508,14367
23402,14261
23289,14185
23267,14181
23155,14159
23155,14159
22711,14159
22615,14062
22422,13982
22213,13982
22020,14062
21872,14209
21792,14402
21792,14611
21872,14804
22019,14952
22152,15007
22020,15062
21872,15209
21792,15402
21792,15611
21872,15804
21968,15901
21968,17698
19673,19993
19327,19993
19423,19897
19516,19675
19516,19435
19424,19213
19260,19048
19260,17645
19260,17645
19260,17645
19233,17512
19158,17399
19158,17399
17488,15728
17488,15610
17408,15417
17346,15356
19141,15356
19390,15605
19390,15670
19470,15863
19618,16011
19810,16091
20019,16091
20212,16012
20360,15864
20440,15671
20440,15462
20361,15269
20213,15121
20080,15066
20212,15012
20360,14864
20440,14671
20440,14462
20361,14269
20264,14172
20264,12980
20264,12980
20264,12980
20237,12846
20162,12733
20162,12733
18492,11064
18492,10974
18418,10795
18282,10658
18103,10584
17910,10584
17731,10658
17594,10794
17520,10973
17520,11166
17593,11345
17730,11482
17909,11556
17999,11556
19567,13124
19567,14172
19470,14268
19390,14461
19390,14670
19394,14680
19285,14659
19285,14659
17601,14659
17346,14659
17369,14636
17325,14592
17413,14592
17563,14442
17601,14350
17601,14251
17564,14159
17493,14088
17413,14008
17325,14008
17254,14079
17254,13938
17254,13849
17174,13769
17104,13699
17012,13661
16913,13661
16821,13699
16671,13849
16671,13938
16963,14229
17254,13938
17254,14079
17033,14300
17039,14306
16968,14376
16963,14371
16957,14376
16886,14306
16892,14300
16600,14008
16512,14008
16362,14158
16324,14250
16324,14350
16362,14442
16432,14512
16432,14512
16360,14482
16151,14482
15958,14562
15811,14709
15731,14902
15730,15111
15810,15304
15958,15452
16151,15532
16359,15532
16492,15477
16438,15609
16437,15818
16517,16011
16665,16159
16858,16239
17013,16239
18563,17789
18563,19048
18411,19200
18254,19042
18032,18950
17792,18950
17569,19042
17411,19200
17260,19048
17260,18598
17233,18464
17158,18351
17158,18351
15563,16757
15563,7630
15552,7422
15494,7282
15401,7257
15104,7554
15401,7852
15494,7827
15563,7630
15563,16757
15330,16524
15330,7922
15033,7625
14963,7696
14963,7554
14666,7257
14573,7282
14504,7479
14515,7687
14573,7827
14666,7852
14963,7554
14963,7696
14736,7922
14761,8015
14958,8084
15166,8073
15306,8015
15330,7922
15330,16524
9049,10243
9020,10214
9020,10214
8433,9627
8433,9537
8359,9358
8223,9221
8044,9147
7850,9147
7672,9221
7535,9357
7461,9536
7460,9729
7534,9908
7671,10045
7850,10119
7940,10119
8527,10706
8527,10706
8557,10736
16563,18742
16563,19048
16411,19200
16254,19042
16032,18950
15827,18950
13902,17025
13902,17025
13862,16966
13862,16966
13036,16139
12923,16063
12901,16059
12789,16037
12789,16037
11107,16037
11395,15918
11691,15622
11851,15237
11851,14819
11692,14433
11397,14137
11011,13977
10593,13977
10207,14136
9911,14431
9751,14817
9751,15235
9910,15621
10206,15917
10495,16037
5217,16037
3984,14804
3984,8417
4048,8354
4122,8175
4122,7982
4048,7803
3912,7666
3752,7600
7317,7600
7317,7600
7317,7600
7428,7578
7450,7573
7450,7573
7563,7498
8158,6903
8360,6903
8494,6876
8527,6854
9078,6854
9224,6999
9357,7054
9225,7109
9077,7257
8997,7450
8997,7658
9076,7851
9224,7999
9417,8079
9626,8080
9819,8000
9916,7903
11883,7903
11960,7980
12153,8060
12362,8060
12555,7980
12703,7833
12783,7640
12783,7431
12703,7238
12556,7090
12423,7035
12555,6980
12652,6883
14510,6883
14546,6971
14617,7041
14708,7079
14795,7079
14761,7094
14736,7187
15033,7484
15330,7187
15306,7094
15265,7080
15358,7080
15450,7042
15520,6971
15558,6879
15558,6780
15558,6230
15520,6138
15450,6068
15358,6030
15259,6029
14709,6029
14617,6067
14547,6138
14526,6186
12652,6186
12556,6090
12363,6010
12178,6010
11425,5257
11425,5167
11351,4988
11215,4851
11036,4777
10843,4777
10664,4851
10527,4987
10453,5166
10453,5359
10526,5538
10663,5675
10842,5749
10932,5749
11733,6550
11733,6639
11812,6832
11960,6980
12093,7035
11961,7089
11844,7206
9916,7206
9819,7110
9686,7054
9819,7000
9966,6852
10046,6659
10047,6450
9967,6257
9870,6160
9870,5066
9870,5066
9870,5066
9848,4955
9843,4933
9843,4933
9768,4820
9768,4820
7996,3048
7883,2973
7861,2968
7750,2946
7750,2946
2459,2946
2435,2922
2257,2848
2095,2848
2163,2780
2201,2688
2201,2666
2340,2804
2542,2888
2760,2888
2963,2804
3118,2650
3151,2568
3185,2649
3340,2804
3542,2888
3760,2888
3963,2804
4118,2650
4151,2568
4185,2649
4340,2804
4542,2888
4760,2888
4963,2804
5118,2650
5151,2568
5185,2649
5340,2804
5542,2888
5760,2888
5963,2804
6118,2650
6151,2568
6185,2649
6340,2804
6542,2888
6760,2888
6963,2804
7118,2650
7151,2568
7185,2649
7340,2804
7542,2888
7760,2888
7963,2804
8118,2650
8151,2568
8185,2649
8340,2804
8542,2888
8760,2888
8963,2804
9118,2650
9151,2568
9185,2649
9340,2804
9542,2888
9760,2888
9963,2804
10118,2650
10151,2568
10185,2649
10340,2804
10542,2888
10760,2888
10963,2804
11118,2650
11151,2568
11185,2649
11340,2804
11542,2888
11760,2888
11963,2804
12118,2650
12151,2568
12185,2649
12340,2804
12542,2888
12760,2888
12963,2804
13118,2650
13151,2568
13185,2649
13340,2804
13542,2888
13760,2888
13963,2804
14118,2650
14201,2448
14202,2229
14118,2027
13963,1872
13882,1838
13963,1804
14118,1650
14201,1448
14202,1229
14118,1027
13963,872
13761,788
13543,788
13340,871
13186,1026
13152,1108
13118,1027
12963,872
12761,788
12543,788
12340,871
12186,1026
12152,1108
12118,1027
11963,872
11761,788
11543,788
11340,871
11186,1026
11152,1108
11118,1027
10963,872
10761,788
10543,788
10340,871
10186,1026
10152,1108
10118,1027
9963,872
9761,788
9543,788
9340,871
9186,1026
9152,1108
9118,1027
8963,872
8761,788
8543,788
8340,871
8186,1026
8152,1108
8118,1027
7963,872
7761,788
7543,788
7340,871
7186,1026
7152,1108
7118,1027
6963,872
6761,788
6543,788
6340,871
6186,1026
6152,1108
6118,1027
5963,872
5761,788
5543,788
5340,871
5186,1026
5152,1108
5118,1027
4963,872
4761,788
4543,788
4340,871
4186,1026
4154,1102
4133,1050
4037,1023
3967,1093
3967,952
3939,857
3733,783
3515,794
3364,857
3336,952
3652,1267
3967,952
3967,1093
3722,1338
4037,1653
4133,1626
4152,1570
4185,1649
4340,1804
4421,1838
4340,1871
4186,2026
4152,2108
4118,2027
3963,1872
3888,1841
3939,1819
3967,1724
3652,1409
3336,1724
3364,1819
3419,1839
3340,1871
3186,2026
3152,2108
3118,2027
2963,1872
2882,1838
2963,1804
3118,1650
3149,1574
3170,1626
3266,1653
3581,1338
3266,1023
3170,1050
3151,1105
3118,1027
2963,872
2761,788
2543,788
2340,871
2186,1026
2152,1108
2118,1027
1963,872
1761,788
1543,788
1340,871
1186,1026
1102,1228
1101,1447
1185,1649
1324,1788
1302,1788
1210,1826
1140,1896
1102,1988
1101,2087
1101,2687
1139,2779
1210,2850
1302,2888
1401,2888
1966,2888
1884,2922
1747,3058
1673,3237
1673,3430
1747,3609
1884,3746
2062,3820
2216,3820
2155,3967
2155,4196
2243,4407
2382,4547
2382,4948
2382,5586
2243,5724
2155,5936
2155,6164
2243,6376
2404,6538
2615,6625
2844,6626
3056,6538
3217,6377
3305,6165
3305,5937
3218,5725
3079,5586
3079,5294
5736,5276
5542,5285
5380,5352
5350,5450
5683,5783
6016,5450
5986,5352
5774,5275
7632,5262
7691,5321
7869,5395
8063,5395
8242,5321
8378,5185
8453,5006
8453,4813
8379,4634
8242,4497
8064,4423
8048,4423
8059,4396
8059,4202
7985,4023
7849,3887
7670,3812
7476,3812
7298,3886
7253,3930
6148,3930
6009,3792
5798,3704
5569,3704
5358,3791
5196,3953
5108,4164
5108,4393
5186,4583
3079,4597
3079,4547
3217,4408
3305,4197
3305,3968
3218,3757
3105,3643
7606,3643
9173,5211
9173,6160
9078,6255
8527,6255
8494,6233
8360,6206
8014,6206
8014,6206
7903,6228
7880,6233
7767,6308
7767,6308
7173,6903
6263,6903
6263,5941
6252,5713
6185,5551
6087,5520
5754,5854
6087,6187
6185,6157
6263,5941
6263,6903
6016,6903
6016,6258
5683,5924
5612,5995
5612,5854
5279,5520
5181,5551
5103,5766
5114,5994
5181,6157
5279,6187
5612,5854
5612,5995
5350,6258
5380,6356
5595,6433
5824,6423
5986,6356
6016,6258
6016,6903
2120,6903
1987,6929
1874,7005
1874,7005
1362,7517
1286,7630
1282,7652
1260,7763
1260,7763
1260,15440
1260,15440
1282,15552
1286,15574
1362,15687
3901,18226
3901,18226
4014,18302
4108,18320
2487,18320
2493,18314
2567,18136
2567,17942
2493,17764
2356,17627
2178,17553
1984,17552
1806,17626
1669,17763
1595,17942
1594,18135
1668,18314
1732,18378
1732,18669
1732,19771
1732,19771
1754,19882
1759,19904
1834,20017
3074,21258
3074,21258
3187,21333
3321,21360
3321,21360
3321,21360
6407,21360
19974,21360
19974,21360
19974,21360
20086,21337
20108,21333
20108,21333
20221,21258
23508,17970
23508,17970
23508,17970
23584,17857
23610,17724
23610,17724
23610,21844
1031,21844
1031,730
16240,730
16240,6365
16261,6469
16319,6556
16407,6615
16510,6635
24384,6635
25098,6635
25098,21844
" /> 
</g>
<g style="fill:#FFFFFF; fill-opacity:0.0; 
stroke:#FFFFFF; stroke-width:39.3701; stroke-opacity:1; 
stroke-linecap:round; stroke-linejoin:round;">
</g>
<g style="fill:#FFFFFF; fill-opacity:1.0; 
stroke:#FFFFFF; stroke-width:39.3701; stroke-opacity:1; 
stroke-linecap:round; stroke-linejoin:round;">
<circle cx="2592.96" cy="19614" r="137.795" /> 
<circle cx="2159.89" cy="3334.49" r="137.795" /> 
<circle cx="2081.15" cy="18039.2" r="137.795" /> 
<circle cx="2258.31" cy="7901.42" r="137.795" /> 
<circle cx="2947.29" cy="9082.52" r="137.795" /> 
<circle cx="3636.26" cy="8078.58" r="137.795" /> 
<circle cx="7947.29" cy="9633.7" r="137.795" /> 
<circle cx="8518.15" cy="18177" r="137.795" /> 
<circle cx="7966.97" cy="4909.29" r="137.795" /> 
<circle cx="7573.27" cy="4299.06" r="137.795" /> 
<circle cx="18006.3" cy="11070.7" r="137.795" /> 
<circle cx="10939.4" cy="5263.62" r="137.795" /> 
<circle cx="6687.45" cy="18236.1" r="137.795" /> 
<circle cx="6096.89" cy="6661.26" r="137.795" /> 
<circle cx="7592.96" cy="18275.4" r="137.795" /> 
<circle cx="16963" cy="12133.7" r="137.795" /> 
<circle cx="10801.6" cy="15027.4" r="551.181" /> 
<circle cx="1652.01" cy="2338.43" r="180.315" /> 
<circle cx="1652.01" cy="1338.43" r="180.315" /> 
<circle cx="2652.01" cy="2338.43" r="180.315" /> 
<circle cx="2652.01" cy="1338.43" r="180.315" /> 
<circle cx="3652.01" cy="2338.43" r="180.315" /> 
<circle cx="3652.01" cy="1338.43" r="180.315" /> 
<circle cx="4652.01" cy="2338.43" r="180.315" /> 
<circle cx="4652.01" cy="1338.43" r="180.315" /> 
<circle cx="5652.01" cy="2338.43" r="180.315" /> 
<circle cx="5652.01" cy="1338.43" r="180.315" /> 
<circle cx="6652.01" cy="2338.43" r="180.315" /> 
<circle cx="6652.01" cy="1338.43" r="180.315" /> 
<circle cx="7652.01" cy="2338.43" r="180.315" /> 
<circle cx="7652.01" cy="1338.43" r="180.315" /> 
<circle cx="8652.01" cy="2338.43" r="180.315" /> 
<circle cx="8652.01" cy="1338.43" r="180.315" /> 
<circle cx="9652.01" cy="2338.43" r="180.315" /> 
<circle cx="9652.01" cy="1338.43" r="180.315" /> 
<circle cx="10652" cy="2338.43" r="180.315" /> 
<circle cx="10652" cy="1338.43" r="180.315" /> 
<circle cx="11652" cy="2338.43" r="180.315" /> 
<circle cx="11652" cy="1338.43" r="180.315" /> 
<circle cx="12652" cy="2338.43" r="180.315" /> 
<circle cx="12652" cy="1338.43" r="180.315" /> 
<circle cx="13652" cy="2338.43" r="180.315" /> 
<circle cx="13652" cy="1338.43" r="180.315" /> 
<circle cx="16963" cy="14300.6" r="140.315" /> 
<circle cx="16255.9" cy="15007.7" r="140.315" /> 
<circle cx="16963" cy="15714.8" r="140.315" /> 
<circle cx="19915.8" cy="14566.8" r="140.315" /> 
<circle cx="19915.8" cy="15566.8" r="140.315" /> 
<circle cx="22317.4" cy="14507.7" r="140.315" /> 
<circle cx="22317.4" cy="15507.7" r="140.315" /> 
<circle cx="5683.51" cy="4279.37" r="177.165" /> 
<circle cx="5683.51" cy="5854.17" r="177.165" /> 
<circle cx="2730.75" cy="4082.52" r="177.165" /> 
<circle cx="2730.75" cy="6051.02" r="177.165" /> 
<circle cx="12258.3" cy="7535.28" r="140.315" /> 
<circle cx="12258.3" cy="6535.28" r="140.315" /> 
<circle cx="9522.09" cy="6554.96" r="140.315" /> 
<circle cx="9522.09" cy="7554.96" r="140.315" /> 
<circle cx="15033.9" cy="6554.96" r="140.315" /> 
<circle cx="15033.9" cy="7554.96" r="140.315" /> 
<circle cx="22022.1" cy="3157.32" r="551.181" /> 
<circle cx="3911.85" cy="19555" r="177.165" /> 
<circle cx="4911.85" cy="19555" r="177.165" /> 
<circle cx="5911.85" cy="19555" r="177.165" /> 
<circle cx="6911.85" cy="19555" r="177.165" /> 
<circle cx="7911.85" cy="19555" r="177.165" /> 
<circle cx="8911.85" cy="19555" r="177.165" /> 
<circle cx="9911.85" cy="19555" r="177.165" /> 
<circle cx="10911.9" cy="19555" r="177.165" /> 
<circle cx="11911.9" cy="19555" r="177.165" /> 
<circle cx="12911.9" cy="19555" r="177.165" /> 
<circle cx="13911.9" cy="19555" r="177.165" /> 
<circle cx="14911.9" cy="19555" r="177.165" /> 
<circle cx="15911.9" cy="19555" r="177.165" /> 
<circle cx="16911.9" cy="19555" r="177.165" /> 
<circle cx="17911.9" cy="19555" r="177.165" /> 
<circle cx="18911.9" cy="19555" r="177.165" /> 
</g> 
</svg>
