<?xml version="1.0" standalone="no"?>
 <!DOCTYPE svg PUBLIC "-//W3C//DTD SVG 1.1//EN" 
 "http://www.w3.org/Graphics/SVG/1.1/DTD/svg11.dtd"> 
<svg xmlns="http://www.w3.org/2000/svg" version="1.1" 
    width="8.22452cm" height="8.3058cm" viewBox="0 0 32380 32700 ">
<title>SVG Picture created as smartclock-F_Cu.svg date 2013/08/03 16:24:47 </title>
  <desc>Picture generated by PCBNEW </desc>
<g style="fill:#000000; fill-opacity:1;stroke:#000000; stroke-opacity:1;
stroke-linecap:round; stroke-linejoin:round; "
 transform="translate(0 0) scale(1 1)">
</g>
<g style="fill:#7F7F00; fill-opacity:0.0; 
stroke:#7F7F00; stroke-width:39.3701; stroke-opacity:1; 
stroke-linecap:round; stroke-linejoin:round;">
</g>
<g style="fill:#7F7F00; fill-opacity:1.0; 
stroke:#7F7F00; stroke-width:39.3701; stroke-opacity:1; 
stroke-linecap:round; stroke-linejoin:round;">
<circle cx="10801.6" cy="15027.4" r="780.315" /> 
<polyline style="fill-rule:evenodd;"
points="1371,2618
1371,2058
1932,2058
1932,2618
1371,2618
" /> 
<circle cx="1652.01" cy="1338.43" r="280.315" /> 
<circle cx="2652.01" cy="2338.43" r="280.315" /> 
<circle cx="2652.01" cy="1338.43" r="280.315" /> 
<circle cx="3652.01" cy="2338.43" r="280.315" /> 
<circle cx="3652.01" cy="1338.43" r="280.315" /> 
<circle cx="4652.01" cy="2338.43" r="280.315" /> 
<circle cx="4652.01" cy="1338.43" r="280.315" /> 
<circle cx="5652.01" cy="2338.43" r="280.315" /> 
<circle cx="5652.01" cy="1338.43" r="280.315" /> 
<circle cx="6652.01" cy="2338.43" r="280.315" /> 
<circle cx="6652.01" cy="1338.43" r="280.315" /> 
<circle cx="7652.01" cy="2338.43" r="280.315" /> 
<circle cx="7652.01" cy="1338.43" r="280.315" /> 
<circle cx="8652.01" cy="2338.43" r="280.315" /> 
<circle cx="8652.01" cy="1338.43" r="280.315" /> 
<circle cx="9652.01" cy="2338.43" r="280.315" /> 
<circle cx="9652.01" cy="1338.43" r="280.315" /> 
<circle cx="10652" cy="2338.43" r="280.315" /> 
<circle cx="10652" cy="1338.43" r="280.315" /> 
<circle cx="11652" cy="2338.43" r="280.315" /> 
<circle cx="11652" cy="1338.43" r="280.315" /> 
<circle cx="12652" cy="2338.43" r="280.315" /> 
<circle cx="12652" cy="1338.43" r="280.315" /> 
<circle cx="13652" cy="2338.43" r="280.315" /> 
<circle cx="13652" cy="1338.43" r="280.315" /> 
<polyline style="fill-rule:evenodd;"
points="16963,14661
16601,14300
16963,13939
17324,14300
16963,14661
" /> 
<circle cx="16255.9" cy="15007.7" r="255.315" /> 
<circle cx="16963" cy="15714.8" r="255.315" /> 
<circle cx="19915.8" cy="14566.8" r="255.315" /> 
<circle cx="19915.8" cy="15566.8" r="255.315" /> 
<circle cx="22317.4" cy="14507.7" r="255.315" /> 
<circle cx="22317.4" cy="15507.7" r="255.315" /> 
<circle cx="5683.51" cy="4279.37" r="305.315" /> 
<circle cx="5683.51" cy="5854.17" r="305.315" /> 
<circle cx="2730.75" cy="4082.52" r="305.315" /> 
<circle cx="2730.75" cy="6051.02" r="305.315" /> 
<circle cx="12258.3" cy="7535.28" r="255.315" /> 
<circle cx="12258.3" cy="6535.28" r="255.315" /> 
<circle cx="9522.09" cy="6554.96" r="255.315" /> 
<circle cx="9522.09" cy="7554.96" r="255.315" /> 
<polyline style="fill-rule:evenodd;"
points="14778,6299
15289,6299
15289,6810
14778,6810
14778,6299
" /> 
<circle cx="15033.9" cy="7554.96" r="255.315" /> 
<circle cx="22022.1" cy="3157.32" r="780.315" /> 
<polyline style="fill-rule:evenodd;"
points="3577,19889
3577,19220
4246,19220
4246,19889
3577,19889
" /> 
<circle cx="4911.85" cy="19555" r="334.646" /> 
<circle cx="5911.85" cy="19555" r="334.646" /> 
<circle cx="6911.85" cy="19555" r="334.646" /> 
<circle cx="7911.85" cy="19555" r="334.646" /> 
<circle cx="8911.85" cy="19555" r="334.646" /> 
<circle cx="9911.85" cy="19555" r="334.646" /> 
<circle cx="10911.9" cy="19555" r="334.646" /> 
<circle cx="11911.9" cy="19555" r="334.646" /> 
<circle cx="12911.9" cy="19555" r="334.646" /> 
<circle cx="13911.9" cy="19555" r="334.646" /> 
<circle cx="14911.9" cy="19555" r="334.646" /> 
<circle cx="15911.9" cy="19555" r="334.646" /> 
<circle cx="16911.9" cy="19555" r="334.646" /> 
<circle cx="17911.9" cy="19555" r="334.646" /> 
<circle cx="18911.9" cy="19555" r="334.646" /> 
</g>
<g style="fill:#BFBFBF; fill-opacity:1.0; 
stroke:#BFBFBF; stroke-width:39.3701; stroke-opacity:1; 
stroke-linecap:round; stroke-linejoin:round;">
<circle cx="2592.96" cy="19614" r="216.535" /> 
<circle cx="2159.89" cy="3334.49" r="216.535" /> 
<circle cx="2081.15" cy="18039.2" r="216.535" /> 
<circle cx="2258.31" cy="7901.42" r="216.535" /> 
<circle cx="2947.29" cy="9082.52" r="216.535" /> 
<circle cx="3636.26" cy="8078.58" r="216.535" /> 
<circle cx="7947.29" cy="9633.7" r="216.535" /> 
<circle cx="8518.15" cy="18177" r="216.535" /> 
<circle cx="7966.97" cy="4909.29" r="216.535" /> 
<circle cx="7573.27" cy="4299.06" r="216.535" /> 
<circle cx="18006.3" cy="11070.7" r="216.535" /> 
<circle cx="10939.4" cy="5263.62" r="216.535" /> 
<circle cx="6687.45" cy="18236.1" r="216.535" /> 
<circle cx="6096.89" cy="6661.26" r="216.535" /> 
<circle cx="7592.96" cy="18275.4" r="216.535" /> 
<circle cx="16963" cy="12133.7" r="216.535" /> 
</g>
<g style="fill:#9F0000; fill-opacity:1.0; 
stroke:#9F0000; stroke-width:98.4252; stroke-opacity:1; 
stroke-linecap:round; stroke-linejoin:round;">
<path d="M2592 19614
L2573 19594
" />
</g>
<g style="fill:#9F0000; fill-opacity:1.0; 
stroke:#9F0000; stroke-width:196.85; stroke-opacity:1; 
stroke-linecap:round; stroke-linejoin:round;">
<path d="M2159 3334
L1652 2826
" />
<path d="M1652 2826
L1652 2338
" />
<path d="M1636 1338
L1037 1936
" />
<path d="M2081 18039
L1037 16995
" />
<path d="M1037 16995
L1037 15637
" />
<path d="M1636 1338
L1652 1338
" />
<path d="M1037 1936
L1037 15637
" />
<path d="M2258 7901
L3340 6759
" />
<path d="M2652 2338
L2652 2901
" />
<path d="M3340 3590
L3340 6759
" />
<path d="M2652 2901
L3340 3590
" />
</g>
<g style="fill:#9F0000; fill-opacity:1.0; 
stroke:#9F0000; stroke-width:98.4252; stroke-opacity:1; 
stroke-linecap:round; stroke-linejoin:round;">
<path d="M3340 6759
L3340 6799
" />
</g>
<g style="fill:#9F0000; fill-opacity:1.0; 
stroke:#9F0000; stroke-width:196.85; stroke-opacity:1; 
stroke-linecap:round; stroke-linejoin:round;">
<path d="M2947 9082
L2947 7901
" />
<path d="M3734 2421
L3652 2338
" />
<path d="M3734 7114
L3734 2421
" />
<path d="M2947 7901
L3734 7114
" />
<path d="M3636 8078
L3655 8078
" />
<path d="M4652 2889
L4652 2338
" />
<path d="M4148 3393
L4652 2889
" />
<path d="M4148 7586
L4148 3393
" />
<path d="M3655 8078
L4148 7586
" />
</g>
<g style="fill:#9F0000; fill-opacity:1.0; 
stroke:#9F0000; stroke-width:98.4252; stroke-opacity:1; 
stroke-linecap:round; stroke-linejoin:round;">
<path d="M3636 8078
L3596 8039
" />
</g>
<g style="fill:#9F0000; fill-opacity:1.0; 
stroke:#9F0000; stroke-width:196.85; stroke-opacity:1; 
stroke-linecap:round; stroke-linejoin:round;">
<path d="M6652 2338
L6652 8338
" />
<path d="M6652 8338
L7947 9633
" />
<path d="M6652 2425
L6652 2338
" />
<path d="M8518 18177
L8518 12586
" />
</g>
<g style="fill:#9F0000; fill-opacity:1.0; 
stroke:#9F0000; stroke-width:98.4252; stroke-opacity:1; 
stroke-linecap:round; stroke-linejoin:round;">
<path d="M6652 1342
L6136 1858
" />
<path d="M6136 1858
L6136 2704
" />
<path d="M6652 1342
L6652 1338
" />
</g>
<g style="fill:#9F0000; fill-opacity:1.0; 
stroke:#9F0000; stroke-width:196.85; stroke-opacity:1; 
stroke-linecap:round; stroke-linejoin:round;">
<path d="M6136 2704
L5073 3767
" />
<path d="M5073 9141
L5073 3767
" />
<path d="M8518 12586
L5073 9141
" />
</g>
<g style="fill:#9F0000; fill-opacity:1.0; 
stroke:#9F0000; stroke-width:98.4252; stroke-opacity:1; 
stroke-linecap:round; stroke-linejoin:round;">
<path d="M8518 18177
L8498 18157
" />
<path d="M7986 4909
L7966 4909
" />
</g>
<g style="fill:#9F0000; fill-opacity:1.0; 
stroke:#9F0000; stroke-width:196.85; stroke-opacity:1; 
stroke-linecap:round; stroke-linejoin:round;">
<path d="M8652 4224
L7986 4909
" />
<path d="M8652 4224
L8652 2338
" />
</g>
<g style="fill:#9F0000; fill-opacity:1.0; 
stroke:#9F0000; stroke-width:98.4252; stroke-opacity:1; 
stroke-linecap:round; stroke-linejoin:round;">
<path d="M8652 1338
L8652 1350
" />
</g>
<g style="fill:#9F0000; fill-opacity:1.0; 
stroke:#9F0000; stroke-width:196.85; stroke-opacity:1; 
stroke-linecap:round; stroke-linejoin:round;">
<path d="M8144 3728
L7573 4299
" />
</g>
<g style="fill:#9F0000; fill-opacity:1.0; 
stroke:#9F0000; stroke-width:98.4252; stroke-opacity:1; 
stroke-linecap:round; stroke-linejoin:round;">
<path d="M8144 1858
L8144 3728
" />
<path d="M8652 1350
L8144 1858
" />
</g>
<g style="fill:#9F0000; fill-opacity:1.0; 
stroke:#9F0000; stroke-width:196.85; stroke-opacity:1; 
stroke-linecap:round; stroke-linejoin:round;">
<path d="M7652 2901
L7652 3373
" />
<path d="M7652 2901
L7652 2338
" />
<path d="M11313 11070
L18006 11070
" />
<path d="M7081 6838
L11313 11070
" />
<path d="M7081 3944
L7081 6838
" />
<path d="M7652 3373
L7081 3944
" />
</g>
<g style="fill:#9F0000; fill-opacity:1.0; 
stroke:#9F0000; stroke-width:98.4252; stroke-opacity:1; 
stroke-linecap:round; stroke-linejoin:round;">
<path d="M9652 1338
L9671 1338
" />
</g>
<g style="fill:#9F0000; fill-opacity:1.0; 
stroke:#9F0000; stroke-width:196.85; stroke-opacity:1; 
stroke-linecap:round; stroke-linejoin:round;">
<path d="M10152 4476
L10939 5263
" />
</g>
<g style="fill:#9F0000; fill-opacity:1.0; 
stroke:#9F0000; stroke-width:98.4252; stroke-opacity:1; 
stroke-linecap:round; stroke-linejoin:round;">
<path d="M10152 1818
L10152 4476
" />
<path d="M9671 1338
L10152 1818
" />
</g>
<g style="fill:#9F0000; fill-opacity:1.0; 
stroke:#9F0000; stroke-width:196.85; stroke-opacity:1; 
stroke-linecap:round; stroke-linejoin:round;">
<path d="M4522 3669
L4522 3570
" />
</g>
<g style="fill:#9F0000; fill-opacity:1.0; 
stroke:#9F0000; stroke-width:98.4252; stroke-opacity:1; 
stroke-linecap:round; stroke-linejoin:round;">
<path d="M4652 1338
L4652 1358
" />
<path d="M5132 1838
L5132 2960
" />
<path d="M4652 1358
L5132 1838
" />
</g>
<g style="fill:#9F0000; fill-opacity:1.0; 
stroke:#9F0000; stroke-width:196.85; stroke-opacity:1; 
stroke-linecap:round; stroke-linejoin:round;">
<path d="M6687 11562
L4522 9397
" />
<path d="M4522 9397
L4522 3669
" />
<path d="M6687 18236
L6687 11562
" />
<path d="M4522 3570
L5132 2960
" />
</g>
<g style="fill:#9F0000; fill-opacity:1.0; 
stroke:#9F0000; stroke-width:393.701; stroke-opacity:1; 
stroke-linecap:round; stroke-linejoin:round;">
<path d="M3652 1338
L3652 1310
" />
<path d="M3652 1310
L4285 677
" />
<path d="M4285 677
L13951 677
" />
<path d="M13951 677
L15998 2724
" />
<path d="M15998 2724
L15998 7271
" />
<path d="M15998 7271
L19718 10991
" />
<path d="M19718 10991
L19718 11326
" />
<path d="M19718 11326
L18911 12133
" />
<path d="M18911 12133
L16963 12133
" />
<path d="M16963 12133
L16451 11621
" />
<path d="M8675 11621
L16451 11621
" />
<path d="M6155 9102
L8675 11621
" />
<path d="M6155 6720
L6155 9102
" />
<path d="M6096 6661
L6155 6720
" />
<path d="M7592 18275
L8085 18767
" />
<path d="M8085 18767
L10329 18767
" />
<path d="M10329 18767
L16963 12133
" />
</g>
<g style="fill:#9F0000; fill-opacity:1.0; 
stroke:#9F0000; stroke-width:39.3701; stroke-opacity:1; 
stroke-linecap:round; stroke-linejoin:round;">
<polyline style="fill-rule:evenodd;"
points="25098,21844
22842,21844
22842,15403
22762,15210
22615,15062
22482,15007
22614,14953
22762,14805
22842,14612
22842,14403
22762,14210
22615,14062
22422,13982
22213,13982
22020,14062
21872,14209
21792,14402
21792,14611
21872,14804
22019,14952
22152,15007
22020,15062
21872,15209
21792,15402
21792,15611
21872,15804
22019,15952
22212,16032
22421,16032
22614,15953
22762,15805
22842,15612
22842,15403
22842,21844
20440,21844
20440,15462
20361,15269
20213,15121
20080,15066
20212,15012
20360,14864
20440,14671
20440,14462
20361,14269
20213,14121
20020,14041
19811,14041
19618,14121
19470,14268
19390,14461
19390,14670
19470,14863
19618,15011
19751,15066
19618,15121
19470,15268
19390,15461
19390,15670
19470,15863
19618,16011
19810,16091
20019,16091
20212,16012
20360,15864
20440,15671
20440,15462
20440,21844
19516,21844
19516,19435
19424,19213
19254,19042
19032,18950
18792,18950
18569,19042
18411,19200
18254,19042
18032,18950
17792,18950
17601,19029
17601,14251
17564,14159
17493,14088
17413,14008
17325,14008
17254,14079
17254,13938
17254,13849
17174,13769
17104,13699
17012,13661
16913,13661
16821,13699
16671,13849
16671,13938
16963,14229
17254,13938
17254,14079
17033,14300
17325,14592
17413,14592
17563,14442
17601,14350
17601,14251
17601,19029
17569,19042
17488,19124
17488,15610
17408,15417
17260,15270
17067,15189
16859,15189
16725,15244
16780,15112
16781,14903
16751,14831
16751,14831
16821,14901
16913,14939
17012,14939
17104,14901
17254,14751
17254,14663
16963,14371
16957,14376
16886,14306
16892,14300
16600,14008
16512,14008
16362,14158
16324,14250
16324,14350
16362,14442
16432,14512
16432,14512
16360,14482
16151,14482
15958,14562
15811,14709
15731,14902
15730,15111
15810,15304
15958,15452
16151,15532
16359,15532
16492,15477
16438,15609
16437,15818
16517,16011
16665,16159
16858,16239
17067,16239
17260,16160
17407,16012
17487,15819
17488,15610
17488,19124
17411,19200
17254,19042
17032,18950
16792,18950
16569,19042
16411,19200
16254,19042
16032,18950
15792,18950
15569,19042
15411,19200
15254,19042
15032,18950
14792,18950
14569,19042
14411,19200
14254,19042
14032,18950
13792,18950
13569,19042
13411,19200
13254,19042
13032,18950
12792,18950
12569,19042
12411,19200
12254,19042
12032,18950
11851,18950
11851,14819
11692,14433
11397,14137
11011,13977
10593,13977
10207,14136
9911,14431
9751,14817
9751,15235
9910,15621
10206,15917
10591,16077
11009,16077
11395,15918
11691,15622
11851,15237
11851,14819
11851,18950
11792,18950
11569,19042
11411,19200
11254,19042
11032,18950
10792,18950
10569,19042
10411,19200
10254,19042
10032,18950
9792,18950
9569,19042
9411,19200
9254,19042
9032,18950
8792,18950
8569,19042
8399,19212
8396,19220
8337,19200
8266,19271
8266,19129
8232,19028
8006,18946
7766,18956
7591,19028
7557,19129
7911,19484
8266,19129
8266,19271
7982,19554
8337,19909
8396,19889
8399,19896
8569,20066
8791,20159
9031,20159
9253,20067
9411,19909
9569,20066
9791,20159
10031,20159
10253,20067
10411,19909
10569,20066
10791,20159
11031,20159
11253,20067
11411,19909
11569,20066
11791,20159
12031,20159
12253,20067
12411,19909
12569,20066
12791,20159
13031,20159
13253,20067
13411,19909
13569,20066
13791,20159
14031,20159
14253,20067
14411,19909
14569,20066
14791,20159
15031,20159
15253,20067
15411,19909
15569,20066
15791,20159
16031,20159
16253,20067
16411,19909
16569,20066
16791,20159
17031,20159
17253,20067
17411,19909
17569,20066
17791,20159
18031,20159
18253,20067
18411,19909
18569,20066
18791,20159
19031,20159
19253,20067
19423,19897
19516,19675
19516,19435
19516,21844
8266,21844
8266,19980
7911,19625
7841,19696
7841,19554
7486,19200
7427,19220
7424,19213
7254,19042
7032,18950
6792,18950
6569,19042
6411,19200
6254,19042
6032,18950
5792,18950
5569,19042
5411,19200
5254,19042
5032,18950
4792,18950
4569,19042
4500,19112
4478,19058
4407,18988
4315,18950
4024,18950
3961,19013
3961,19504
3969,19504
3969,19604
3961,19604
3961,20096
4024,20159
4315,20159
4407,20121
4478,20051
4500,19997
4569,20066
4791,20159
5031,20159
5253,20067
5411,19909
5569,20066
5791,20159
6031,20159
6253,20067
6411,19909
6569,20066
6791,20159
7031,20159
7253,20067
7423,19897
7427,19889
7486,19909
7841,19554
7841,19696
7557,19980
7591,20081
7817,20163
8057,20153
8232,20081
8266,19980
8266,21844
3861,21844
3861,20096
3861,19604
3861,19504
3861,19013
3799,18950
3508,18950
3416,18988
3345,19058
3307,19150
3307,19250
3307,19442
3370,19504
3861,19504
3861,19604
3370,19604
3307,19667
3307,19859
3307,19959
3345,20051
3416,20121
3508,20159
3799,20159
3861,20096
3861,21844
3079,21844
3079,19517
3005,19338
2868,19202
2690,19127
2496,19127
2317,19201
2181,19338
2106,19516
2106,19710
2180,19889
2317,20025
2495,20100
2689,20100
2868,20026
3004,19889
3079,19711
3079,19517
3079,21844
1031,21844
1031,17482
1594,18045
1594,18135
1668,18314
1805,18451
1984,18525
2177,18525
2356,18451
2493,18314
2567,18136
2567,17942
2493,17764
2356,17627
2178,17553
2087,17552
1386,16851
1386,15637
1386,3043
1405,3072
1673,3341
1673,3430
1747,3609
1884,3746
2062,3820
2216,3820
2155,3967
2155,4196
2243,4407
2404,4569
2615,4657
2844,4657
2992,4596
2992,5537
2845,5476
2616,5475
2405,5563
2243,5724
2155,5936
2155,6164
2243,6376
2404,6538
2615,6625
2844,6626
2992,6564
2992,6621
2239,7415
2162,7415
1983,7488
1846,7625
1772,7804
1772,7997
1845,8176
1982,8313
2161,8387
2354,8387
2533,8313
2598,8248
2598,8743
2535,8806
2461,8985
2460,9178
2534,9357
2671,9494
2850,9568
3043,9568
3222,9494
3359,9358
3433,9179
3433,8986
3359,8807
3295,8743
3295,8425
3360,8490
3539,8564
3732,8564
3911,8491
4048,8354
4122,8175
4122,8104
4173,8053
4173,9397
4173,9397
4195,9508
4200,9530
4275,9643
6339,11707
6339,17896
6275,17960
6201,18138
6201,18332
6275,18511
6411,18648
6590,18722
6783,18722
6962,18648
7099,18511
7173,18333
7173,18139
7099,17961
7035,17896
7035,11596
8169,12730
8169,17837
8106,17901
8032,18079
8031,18273
8105,18452
8242,18588
8421,18663
8614,18663
8793,18589
8930,18452
9004,18274
9004,18080
8930,17901
8866,17837
8866,12586
8840,12453
8764,12340
8764,12340
6263,9838
6263,5941
6252,5713
6185,5551
6087,5520
5754,5854
6087,6187
6185,6157
6263,5941
6263,9838
5421,8997
5421,6370
5595,6433
5824,6423
5986,6356
6016,6258
5683,5924
5677,5930
5607,5859
5612,5854
5607,5848
5677,5777
5683,5783
6016,5450
5986,5352
5771,5274
5542,5285
5421,5335
5421,4793
5568,4854
5797,4854
6008,4767
6170,4605
6258,4394
6258,4165
6171,3954
6009,3792
5798,3704
5629,3704
6303,3029
6303,8338
6303,8338
6325,8449
6330,8471
6405,8584
7461,9640
7460,9729
7534,9908
7671,10045
7850,10119
8043,10120
8222,10046
8359,9909
8433,9730
8433,9537
8359,9358
8223,9221
8044,9147
7953,9147
7000,8194
7000,7250
11067,11317
11067,11317
11180,11392
11313,11419
11313,11419
11313,11419
17667,11419
17730,11482
17909,11556
18102,11557
18281,11483
18418,11346
18492,11167
18492,10974
18418,10795
18282,10658
18103,10584
17910,10584
17731,10658
17667,10722
15563,10722
15563,7630
15558,7541
15558,6780
15558,6230
15520,6138
15450,6068
15358,6030
15259,6029
14709,6029
14617,6067
14547,6138
14508,6230
14508,6329
14508,6879
14546,6971
14617,7041
14708,7079
14795,7079
14761,7094
14736,7187
15033,7484
15330,7187
15306,7094
15265,7080
15358,7080
15450,7042
15520,6971
15558,6879
15558,6780
15558,7541
15552,7422
15494,7282
15401,7257
15104,7554
15401,7852
15494,7827
15563,7630
15563,10722
15330,10722
15330,7922
15033,7625
14963,7696
14963,7554
14666,7257
14573,7282
14504,7479
14515,7687
14573,7827
14666,7852
14963,7554
14963,7696
14736,7922
14761,8015
14958,8084
15166,8073
15306,8015
15330,7922
15330,10722
12783,10722
12783,7431
12703,7238
12556,7090
12423,7035
12555,6980
12703,6833
12783,6640
12783,6431
12703,6238
12556,6090
12363,6010
12154,6010
11961,6089
11813,6237
11733,6430
11733,6639
11812,6832
11960,6980
12093,7035
11961,7089
11813,7237
11733,7430
11733,7639
11812,7832
11960,7980
12153,8060
12362,8060
12555,7980
12703,7833
12783,7640
12783,7431
12783,10722
11457,10722
10047,9311
10047,7450
9967,7257
9819,7110
9686,7054
9819,7000
9966,6852
10046,6659
10047,6450
9967,6257
9819,6110
9626,6030
9418,6029
9225,6109
9077,6257
8997,6450
8997,6658
9076,6851
9224,6999
9357,7054
9225,7109
9077,7257
8997,7450
8997,7658
9076,7851
9224,7999
9417,8079
9626,8080
9819,8000
9966,7852
10046,7659
10047,7450
10047,9311
7429,6694
7429,4765
7476,4785
7492,4785
7480,4812
7480,5005
7554,5184
7691,5321
7869,5395
8063,5395
8242,5321
8378,5185
8453,5006
8453,4929
8902,4467
8960,4377
8973,4357
8974,4356
8976,4353
8994,4254
9000,4224
9000,4221
9000,4219
9000,4217
9000,2767
9118,2650
9151,2568
9185,2649
9340,2804
9542,2888
9760,2888
9852,2850
9852,4308
9830,4342
9803,4476
9830,4609
9905,4722
10453,5270
10453,5359
10526,5538
10663,5675
10842,5749
11035,5749
11214,5676
11351,5539
11425,5360
11425,5167
11351,4988
11215,4851
11036,4777
10945,4777
10451,4282
10451,2850
10542,2888
10760,2888
10963,2804
11118,2650
11151,2568
11185,2649
11340,2804
11542,2888
11760,2888
11963,2804
12118,2650
12151,2568
12185,2649
12340,2804
12542,2888
12760,2888
12963,2804
13118,2650
13151,2568
13185,2649
13340,2804
13542,2888
13760,2888
13963,2804
14118,2650
14201,2448
14202,2229
14118,2027
13963,1872
13882,1838
13963,1804
14118,1650
14201,1448
14202,1229
14118,1027
13963,872
13761,788
13543,788
13340,871
13186,1026
13152,1108
13118,1027
12963,872
12761,788
12543,788
12340,871
12186,1026
12152,1108
12118,1027
11963,872
11761,788
11543,788
11340,871
11186,1026
11152,1108
11118,1027
10963,872
10761,788
10543,788
10340,871
10186,1026
10152,1108
10118,1027
9963,872
9761,788
9543,788
9340,871
9186,1026
9152,1108
9118,1027
8963,872
8761,788
8543,788
8340,871
8186,1026
8152,1108
8118,1027
7963,872
7761,788
7543,788
7340,871
7186,1026
7152,1108
7118,1027
6963,872
6761,788
6543,788
6340,871
6186,1026
6152,1108
6118,1027
5963,872
5761,788
5543,788
5340,871
5186,1026
5152,1108
5118,1027
4963,872
4761,788
4543,788
4340,871
4186,1026
4154,1102
4133,1050
4037,1023
3967,1093
3967,952
3939,857
3733,783
3515,794
3364,857
3336,952
3652,1267
3967,952
3967,1093
3722,1338
4037,1653
4133,1626
4152,1570
4185,1649
4340,1804
4421,1838
4340,1871
4186,2026
4152,2108
4118,2027
3963,1872
3888,1841
3939,1819
3967,1724
3652,1409
3336,1724
3364,1819
3419,1839
3340,1871
3186,2026
3152,2108
3118,2027
2963,1872
2882,1838
2963,1804
3118,1650
3149,1574
3170,1626
3266,1653
3581,1338
3266,1023
3170,1050
3151,1105
3118,1027
2963,872
2761,788
2543,788
2340,871
2186,1026
2152,1108
2118,1027
1963,872
1761,788
1543,788
1340,871
1186,1026
1102,1228
1101,1379
1031,1450
1031,730
16240,730
16240,6365
16261,6469
16319,6556
16407,6615
16510,6635
24384,6635
25098,6635
25098,21844
" /> 
</g>
<g style="fill:#9F0000; fill-opacity:0.0; 
stroke:#9F0000; stroke-width:100; stroke-opacity:1; 
stroke-linecap:round; stroke-linejoin:round;">
<polyline fill="none;"
points="25098,21844
22842,21844
22842,15403
22762,15210
22615,15062
22482,15007
22614,14953
22762,14805
22842,14612
22842,14403
22762,14210
22615,14062
22422,13982
22213,13982
22020,14062
21872,14209
21792,14402
21792,14611
21872,14804
22019,14952
22152,15007
22020,15062
21872,15209
21792,15402
21792,15611
21872,15804
22019,15952
22212,16032
22421,16032
22614,15953
22762,15805
22842,15612
22842,15403
22842,21844
20440,21844
20440,15462
20361,15269
20213,15121
20080,15066
20212,15012
20360,14864
20440,14671
20440,14462
20361,14269
20213,14121
20020,14041
19811,14041
19618,14121
19470,14268
19390,14461
19390,14670
19470,14863
19618,15011
19751,15066
19618,15121
19470,15268
19390,15461
19390,15670
19470,15863
19618,16011
19810,16091
20019,16091
20212,16012
20360,15864
20440,15671
20440,15462
20440,21844
19516,21844
19516,19435
19424,19213
19254,19042
19032,18950
18792,18950
18569,19042
18411,19200
18254,19042
18032,18950
17792,18950
17601,19029
17601,14251
17564,14159
17493,14088
17413,14008
17325,14008
17254,14079
17254,13938
17254,13849
17174,13769
17104,13699
17012,13661
16913,13661
16821,13699
16671,13849
16671,13938
16963,14229
17254,13938
17254,14079
17033,14300
17325,14592
17413,14592
17563,14442
17601,14350
17601,14251
17601,19029
17569,19042
17488,19124
17488,15610
17408,15417
17260,15270
17067,15189
16859,15189
16725,15244
16780,15112
16781,14903
16751,14831
16751,14831
16821,14901
16913,14939
17012,14939
17104,14901
17254,14751
17254,14663
16963,14371
16957,14376
16886,14306
16892,14300
16600,14008
16512,14008
16362,14158
16324,14250
16324,14350
16362,14442
16432,14512
16432,14512
16360,14482
16151,14482
15958,14562
15811,14709
15731,14902
15730,15111
15810,15304
15958,15452
16151,15532
16359,15532
16492,15477
16438,15609
16437,15818
16517,16011
16665,16159
16858,16239
17067,16239
17260,16160
17407,16012
17487,15819
17488,15610
17488,19124
17411,19200
17254,19042
17032,18950
16792,18950
16569,19042
16411,19200
16254,19042
16032,18950
15792,18950
15569,19042
15411,19200
15254,19042
15032,18950
14792,18950
14569,19042
14411,19200
14254,19042
14032,18950
13792,18950
13569,19042
13411,19200
13254,19042
13032,18950
12792,18950
12569,19042
12411,19200
12254,19042
12032,18950
11851,18950
11851,14819
11692,14433
11397,14137
11011,13977
10593,13977
10207,14136
9911,14431
9751,14817
9751,15235
9910,15621
10206,15917
10591,16077
11009,16077
11395,15918
11691,15622
11851,15237
11851,14819
11851,18950
11792,18950
11569,19042
11411,19200
11254,19042
11032,18950
10792,18950
10569,19042
10411,19200
10254,19042
10032,18950
9792,18950
9569,19042
9411,19200
9254,19042
9032,18950
8792,18950
8569,19042
8399,19212
8396,19220
8337,19200
8266,19271
8266,19129
8232,19028
8006,18946
7766,18956
7591,19028
7557,19129
7911,19484
8266,19129
8266,19271
7982,19554
8337,19909
8396,19889
8399,19896
8569,20066
8791,20159
9031,20159
9253,20067
9411,19909
9569,20066
9791,20159
10031,20159
10253,20067
10411,19909
10569,20066
10791,20159
11031,20159
11253,20067
11411,19909
11569,20066
11791,20159
12031,20159
12253,20067
12411,19909
12569,20066
12791,20159
13031,20159
13253,20067
13411,19909
13569,20066
13791,20159
14031,20159
14253,20067
14411,19909
14569,20066
14791,20159
15031,20159
15253,20067
15411,19909
15569,20066
15791,20159
16031,20159
16253,20067
16411,19909
16569,20066
16791,20159
17031,20159
17253,20067
17411,19909
17569,20066
17791,20159
18031,20159
18253,20067
18411,19909
18569,20066
18791,20159
19031,20159
19253,20067
19423,19897
19516,19675
19516,19435
19516,21844
8266,21844
8266,19980
7911,19625
7841,19696
7841,19554
7486,19200
7427,19220
7424,19213
7254,19042
7032,18950
6792,18950
6569,19042
6411,19200
6254,19042
6032,18950
5792,18950
5569,19042
5411,19200
5254,19042
5032,18950
4792,18950
4569,19042
4500,19112
4478,19058
4407,18988
4315,18950
4024,18950
3961,19013
3961,19504
3969,19504
3969,19604
3961,19604
3961,20096
4024,20159
4315,20159
4407,20121
4478,20051
4500,19997
4569,20066
4791,20159
5031,20159
5253,20067
5411,19909
5569,20066
5791,20159
6031,20159
6253,20067
6411,19909
6569,20066
6791,20159
7031,20159
7253,20067
7423,19897
7427,19889
7486,19909
7841,19554
7841,19696
7557,19980
7591,20081
7817,20163
8057,20153
8232,20081
8266,19980
8266,21844
3861,21844
3861,20096
3861,19604
3861,19504
3861,19013
3799,18950
3508,18950
3416,18988
3345,19058
3307,19150
3307,19250
3307,19442
3370,19504
3861,19504
3861,19604
3370,19604
3307,19667
3307,19859
3307,19959
3345,20051
3416,20121
3508,20159
3799,20159
3861,20096
3861,21844
3079,21844
3079,19517
3005,19338
2868,19202
2690,19127
2496,19127
2317,19201
2181,19338
2106,19516
2106,19710
2180,19889
2317,20025
2495,20100
2689,20100
2868,20026
3004,19889
3079,19711
3079,19517
3079,21844
1031,21844
1031,17482
1594,18045
1594,18135
1668,18314
1805,18451
1984,18525
2177,18525
2356,18451
2493,18314
2567,18136
2567,17942
2493,17764
2356,17627
2178,17553
2087,17552
1386,16851
1386,15637
1386,3043
1405,3072
1673,3341
1673,3430
1747,3609
1884,3746
2062,3820
2216,3820
2155,3967
2155,4196
2243,4407
2404,4569
2615,4657
2844,4657
2992,4596
2992,5537
2845,5476
2616,5475
2405,5563
2243,5724
2155,5936
2155,6164
2243,6376
2404,6538
2615,6625
2844,6626
2992,6564
2992,6621
2239,7415
2162,7415
1983,7488
1846,7625
1772,7804
1772,7997
1845,8176
1982,8313
2161,8387
2354,8387
2533,8313
2598,8248
2598,8743
2535,8806
2461,8985
2460,9178
2534,9357
2671,9494
2850,9568
3043,9568
3222,9494
3359,9358
3433,9179
3433,8986
3359,8807
3295,8743
3295,8425
3360,8490
3539,8564
3732,8564
3911,8491
4048,8354
4122,8175
4122,8104
4173,8053
4173,9397
4173,9397
4195,9508
4200,9530
4275,9643
6339,11707
6339,17896
6275,17960
6201,18138
6201,18332
6275,18511
6411,18648
6590,18722
6783,18722
6962,18648
7099,18511
7173,18333
7173,18139
7099,17961
7035,17896
7035,11596
8169,12730
8169,17837
8106,17901
8032,18079
8031,18273
8105,18452
8242,18588
8421,18663
8614,18663
8793,18589
8930,18452
9004,18274
9004,18080
8930,17901
8866,17837
8866,12586
8840,12453
8764,12340
8764,12340
6263,9838
6263,5941
6252,5713
6185,5551
6087,5520
5754,5854
6087,6187
6185,6157
6263,5941
6263,9838
5421,8997
5421,6370
5595,6433
5824,6423
5986,6356
6016,6258
5683,5924
5677,5930
5607,5859
5612,5854
5607,5848
5677,5777
5683,5783
6016,5450
5986,5352
5771,5274
5542,5285
5421,5335
5421,4793
5568,4854
5797,4854
6008,4767
6170,4605
6258,4394
6258,4165
6171,3954
6009,3792
5798,3704
5629,3704
6303,3029
6303,8338
6303,8338
6325,8449
6330,8471
6405,8584
7461,9640
7460,9729
7534,9908
7671,10045
7850,10119
8043,10120
8222,10046
8359,9909
8433,9730
8433,9537
8359,9358
8223,9221
8044,9147
7953,9147
7000,8194
7000,7250
11067,11317
11067,11317
11180,11392
11313,11419
11313,11419
11313,11419
17667,11419
17730,11482
17909,11556
18102,11557
18281,11483
18418,11346
18492,11167
18492,10974
18418,10795
18282,10658
18103,10584
17910,10584
17731,10658
17667,10722
15563,10722
15563,7630
15558,7541
15558,6780
15558,6230
15520,6138
15450,6068
15358,6030
15259,6029
14709,6029
14617,6067
14547,6138
14508,6230
14508,6329
14508,6879
14546,6971
14617,7041
14708,7079
14795,7079
14761,7094
14736,7187
15033,7484
15330,7187
15306,7094
15265,7080
15358,7080
15450,7042
15520,6971
15558,6879
15558,6780
15558,7541
15552,7422
15494,7282
15401,7257
15104,7554
15401,7852
15494,7827
15563,7630
15563,10722
15330,10722
15330,7922
15033,7625
14963,7696
14963,7554
14666,7257
14573,7282
14504,7479
14515,7687
14573,7827
14666,7852
14963,7554
14963,7696
14736,7922
14761,8015
14958,8084
15166,8073
15306,8015
15330,7922
15330,10722
12783,10722
12783,7431
12703,7238
12556,7090
12423,7035
12555,6980
12703,6833
12783,6640
12783,6431
12703,6238
12556,6090
12363,6010
12154,6010
11961,6089
11813,6237
11733,6430
11733,6639
11812,6832
11960,6980
12093,7035
11961,7089
11813,7237
11733,7430
11733,7639
11812,7832
11960,7980
12153,8060
12362,8060
12555,7980
12703,7833
12783,7640
12783,7431
12783,10722
11457,10722
10047,9311
10047,7450
9967,7257
9819,7110
9686,7054
9819,7000
9966,6852
10046,6659
10047,6450
9967,6257
9819,6110
9626,6030
9418,6029
9225,6109
9077,6257
8997,6450
8997,6658
9076,6851
9224,6999
9357,7054
9225,7109
9077,7257
8997,7450
8997,7658
9076,7851
9224,7999
9417,8079
9626,8080
9819,8000
9966,7852
10046,7659
10047,7450
10047,9311
7429,6694
7429,4765
7476,4785
7492,4785
7480,4812
7480,5005
7554,5184
7691,5321
7869,5395
8063,5395
8242,5321
8378,5185
8453,5006
8453,4929
8902,4467
8960,4377
8973,4357
8974,4356
8976,4353
8994,4254
9000,4224
9000,4221
9000,4219
9000,4217
9000,2767
9118,2650
9151,2568
9185,2649
9340,2804
9542,2888
9760,2888
9852,2850
9852,4308
9830,4342
9803,4476
9830,4609
9905,4722
10453,5270
10453,5359
10526,5538
10663,5675
10842,5749
11035,5749
11214,5676
11351,5539
11425,5360
11425,5167
11351,4988
11215,4851
11036,4777
10945,4777
10451,4282
10451,2850
10542,2888
10760,2888
10963,2804
11118,2650
11151,2568
11185,2649
11340,2804
11542,2888
11760,2888
11963,2804
12118,2650
12151,2568
12185,2649
12340,2804
12542,2888
12760,2888
12963,2804
13118,2650
13151,2568
13185,2649
13340,2804
13542,2888
13760,2888
13963,2804
14118,2650
14201,2448
14202,2229
14118,2027
13963,1872
13882,1838
13963,1804
14118,1650
14201,1448
14202,1229
14118,1027
13963,872
13761,788
13543,788
13340,871
13186,1026
13152,1108
13118,1027
12963,872
12761,788
12543,788
12340,871
12186,1026
12152,1108
12118,1027
11963,872
11761,788
11543,788
11340,871
11186,1026
11152,1108
11118,1027
10963,872
10761,788
10543,788
10340,871
10186,1026
10152,1108
10118,1027
9963,872
9761,788
9543,788
9340,871
9186,1026
9152,1108
9118,1027
8963,872
8761,788
8543,788
8340,871
8186,1026
8152,1108
8118,1027
7963,872
7761,788
7543,788
7340,871
7186,1026
7152,1108
7118,1027
6963,872
6761,788
6543,788
6340,871
6186,1026
6152,1108
6118,1027
5963,872
5761,788
5543,788
5340,871
5186,1026
5152,1108
5118,1027
4963,872
4761,788
4543,788
4340,871
4186,1026
4154,1102
4133,1050
4037,1023
3967,1093
3967,952
3939,857
3733,783
3515,794
3364,857
3336,952
3652,1267
3967,952
3967,1093
3722,1338
4037,1653
4133,1626
4152,1570
4185,1649
4340,1804
4421,1838
4340,1871
4186,2026
4152,2108
4118,2027
3963,1872
3888,1841
3939,1819
3967,1724
3652,1409
3336,1724
3364,1819
3419,1839
3340,1871
3186,2026
3152,2108
3118,2027
2963,1872
2882,1838
2963,1804
3118,1650
3149,1574
3170,1626
3266,1653
3581,1338
3266,1023
3170,1050
3151,1105
3118,1027
2963,872
2761,788
2543,788
2340,871
2186,1026
2152,1108
2118,1027
1963,872
1761,788
1543,788
1340,871
1186,1026
1102,1228
1101,1379
1031,1450
1031,730
16240,730
16240,6365
16261,6469
16319,6556
16407,6615
16510,6635
24384,6635
25098,6635
25098,21844
" /> 
</g>
<g style="fill:#FFFFFF; fill-opacity:0.0; 
stroke:#FFFFFF; stroke-width:39.3701; stroke-opacity:1; 
stroke-linecap:round; stroke-linejoin:round;">
</g>
<g style="fill:#FFFFFF; fill-opacity:1.0; 
stroke:#FFFFFF; stroke-width:39.3701; stroke-opacity:1; 
stroke-linecap:round; stroke-linejoin:round;">
<circle cx="2592.96" cy="19614" r="137.795" /> 
<circle cx="2159.89" cy="3334.49" r="137.795" /> 
<circle cx="2081.15" cy="18039.2" r="137.795" /> 
<circle cx="2258.31" cy="7901.42" r="137.795" /> 
<circle cx="2947.29" cy="9082.52" r="137.795" /> 
<circle cx="3636.26" cy="8078.58" r="137.795" /> 
<circle cx="7947.29" cy="9633.7" r="137.795" /> 
<circle cx="8518.15" cy="18177" r="137.795" /> 
<circle cx="7966.97" cy="4909.29" r="137.795" /> 
<circle cx="7573.27" cy="4299.06" r="137.795" /> 
<circle cx="18006.3" cy="11070.7" r="137.795" /> 
<circle cx="10939.4" cy="5263.62" r="137.795" /> 
<circle cx="6687.45" cy="18236.1" r="137.795" /> 
<circle cx="6096.89" cy="6661.26" r="137.795" /> 
<circle cx="7592.96" cy="18275.4" r="137.795" /> 
<circle cx="16963" cy="12133.7" r="137.795" /> 
<circle cx="10801.6" cy="15027.4" r="551.181" /> 
<circle cx="1652.01" cy="2338.43" r="180.315" /> 
<circle cx="1652.01" cy="1338.43" r="180.315" /> 
<circle cx="2652.01" cy="2338.43" r="180.315" /> 
<circle cx="2652.01" cy="1338.43" r="180.315" /> 
<circle cx="3652.01" cy="2338.43" r="180.315" /> 
<circle cx="3652.01" cy="1338.43" r="180.315" /> 
<circle cx="4652.01" cy="2338.43" r="180.315" /> 
<circle cx="4652.01" cy="1338.43" r="180.315" /> 
<circle cx="5652.01" cy="2338.43" r="180.315" /> 
<circle cx="5652.01" cy="1338.43" r="180.315" /> 
<circle cx="6652.01" cy="2338.43" r="180.315" /> 
<circle cx="6652.01" cy="1338.43" r="180.315" /> 
<circle cx="7652.01" cy="2338.43" r="180.315" /> 
<circle cx="7652.01" cy="1338.43" r="180.315" /> 
<circle cx="8652.01" cy="2338.43" r="180.315" /> 
<circle cx="8652.01" cy="1338.43" r="180.315" /> 
<circle cx="9652.01" cy="2338.43" r="180.315" /> 
<circle cx="9652.01" cy="1338.43" r="180.315" /> 
<circle cx="10652" cy="2338.43" r="180.315" /> 
<circle cx="10652" cy="1338.43" r="180.315" /> 
<circle cx="11652" cy="2338.43" r="180.315" /> 
<circle cx="11652" cy="1338.43" r="180.315" /> 
<circle cx="12652" cy="2338.43" r="180.315" /> 
<circle cx="12652" cy="1338.43" r="180.315" /> 
<circle cx="13652" cy="2338.43" r="180.315" /> 
<circle cx="13652" cy="1338.43" r="180.315" /> 
<circle cx="16963" cy="14300.6" r="140.315" /> 
<circle cx="16255.9" cy="15007.7" r="140.315" /> 
<circle cx="16963" cy="15714.8" r="140.315" /> 
<circle cx="19915.8" cy="14566.8" r="140.315" /> 
<circle cx="19915.8" cy="15566.8" r="140.315" /> 
<circle cx="22317.4" cy="14507.7" r="140.315" /> 
<circle cx="22317.4" cy="15507.7" r="140.315" /> 
<circle cx="5683.51" cy="4279.37" r="177.165" /> 
<circle cx="5683.51" cy="5854.17" r="177.165" /> 
<circle cx="2730.75" cy="4082.52" r="177.165" /> 
<circle cx="2730.75" cy="6051.02" r="177.165" /> 
<circle cx="12258.3" cy="7535.28" r="140.315" /> 
<circle cx="12258.3" cy="6535.28" r="140.315" /> 
<circle cx="9522.09" cy="6554.96" r="140.315" /> 
<circle cx="9522.09" cy="7554.96" r="140.315" /> 
<circle cx="15033.9" cy="6554.96" r="140.315" /> 
<circle cx="15033.9" cy="7554.96" r="140.315" /> 
<circle cx="22022.1" cy="3157.32" r="551.181" /> 
<circle cx="3911.85" cy="19555" r="177.165" /> 
<circle cx="4911.85" cy="19555" r="177.165" /> 
<circle cx="5911.85" cy="19555" r="177.165" /> 
<circle cx="6911.85" cy="19555" r="177.165" /> 
<circle cx="7911.85" cy="19555" r="177.165" /> 
<circle cx="8911.85" cy="19555" r="177.165" /> 
<circle cx="9911.85" cy="19555" r="177.165" /> 
<circle cx="10911.9" cy="19555" r="177.165" /> 
<circle cx="11911.9" cy="19555" r="177.165" /> 
<circle cx="12911.9" cy="19555" r="177.165" /> 
<circle cx="13911.9" cy="19555" r="177.165" /> 
<circle cx="14911.9" cy="19555" r="177.165" /> 
<circle cx="15911.9" cy="19555" r="177.165" /> 
<circle cx="16911.9" cy="19555" r="177.165" /> 
<circle cx="17911.9" cy="19555" r="177.165" /> 
<circle cx="18911.9" cy="19555" r="177.165" /> 
</g> 
</svg>
