G04 (created by PCBNEW (2013-07-07 BZR 4022)-stable) date 03 Aug 13 4:27:03 PM*
%MOIN*%
G04 Gerber Fmt 3.4, Leading zero omitted, Abs format*
%FSLAX34Y34*%
G01*
G70*
G90*
G04 APERTURE LIST*
%ADD10C,0.00590551*%
%ADD11C,0.16*%
%ADD12R,0.06X0.06*%
%ADD13C,0.06*%
%ADD14C,0.055*%
%ADD15C,0.065*%
%ADD16R,0.055X0.055*%
%ADD17R,0.0708661X0.0708661*%
%ADD18C,0.0708661*%
%ADD19C,0.0472441*%
%ADD20C,0.019685*%
%ADD21C,0.00984252*%
%ADD22C,0.0393701*%
%ADD23C,0.01*%
G04 APERTURE END LIST*
G54D10*
G54D11*
X16929Y-20472D03*
G54D12*
X7779Y-7783D03*
G54D13*
X7779Y-6783D03*
X8779Y-7783D03*
X8779Y-6783D03*
X9779Y-7783D03*
X9779Y-6783D03*
X10779Y-7783D03*
X10779Y-6783D03*
X11779Y-7783D03*
X11779Y-6783D03*
X12779Y-7783D03*
X12779Y-6783D03*
X13779Y-7783D03*
X13779Y-6783D03*
X14779Y-7783D03*
X14779Y-6783D03*
X15779Y-7783D03*
X15779Y-6783D03*
X16779Y-7783D03*
X16779Y-6783D03*
X17779Y-7783D03*
X17779Y-6783D03*
X18779Y-7783D03*
X18779Y-6783D03*
X19779Y-7783D03*
X19779Y-6783D03*
G54D10*
G36*
X23090Y-20134D02*
X22701Y-19745D01*
X23090Y-19356D01*
X23479Y-19745D01*
X23090Y-20134D01*
X23090Y-20134D01*
G37*
G54D14*
X22383Y-20452D03*
X23090Y-21159D03*
X26043Y-20011D03*
X26043Y-21011D03*
X28444Y-19952D03*
X28444Y-20952D03*
G54D15*
X11811Y-9724D03*
X11811Y-11299D03*
X8858Y-9527D03*
X8858Y-11496D03*
G54D14*
X18385Y-12980D03*
X18385Y-11980D03*
X15649Y-12000D03*
X15649Y-13000D03*
G54D16*
X21161Y-12000D03*
G54D14*
X21161Y-13000D03*
G54D11*
X28149Y-8602D03*
G54D17*
X10039Y-25000D03*
G54D18*
X11039Y-25000D03*
X12039Y-25000D03*
X13039Y-25000D03*
X14039Y-25000D03*
X15039Y-25000D03*
X16039Y-25000D03*
X17039Y-25000D03*
X18039Y-25000D03*
X19039Y-25000D03*
X20039Y-25000D03*
X21039Y-25000D03*
X22039Y-25000D03*
X23039Y-25000D03*
X24039Y-25000D03*
X25039Y-25000D03*
G54D19*
X8720Y-25059D03*
X8287Y-8779D03*
X8208Y-23484D03*
X8385Y-13346D03*
X9074Y-14527D03*
X9763Y-13523D03*
X14074Y-15078D03*
X14645Y-23622D03*
X14094Y-10354D03*
X13700Y-9744D03*
X24133Y-16515D03*
X17066Y-10708D03*
X12814Y-23681D03*
X12224Y-12106D03*
X13720Y-23720D03*
X23090Y-17578D03*
G54D20*
X14488Y-12000D02*
X14141Y-12000D01*
X14141Y-12000D02*
X13444Y-12696D01*
X13444Y-12696D02*
X8248Y-12696D01*
X8248Y-12696D02*
X7736Y-13208D01*
G54D21*
X15649Y-12000D02*
X14488Y-12000D01*
X14488Y-12000D02*
X14515Y-12000D01*
G54D20*
X10503Y-23425D02*
X12039Y-24960D01*
X10275Y-23425D02*
X10503Y-23425D01*
X7736Y-20885D02*
X10275Y-23425D01*
X7736Y-13208D02*
X7736Y-20885D01*
G54D21*
X7736Y-13149D02*
X7736Y-13208D01*
G54D20*
X15649Y-12000D02*
X15649Y-10511D01*
X15649Y-10511D02*
X13877Y-8740D01*
X13877Y-8740D02*
X8326Y-8740D01*
X8326Y-8740D02*
X8287Y-8779D01*
X11039Y-24960D02*
X11039Y-24700D01*
X11039Y-24700D02*
X10452Y-24114D01*
X10452Y-24114D02*
X8208Y-24114D01*
X12535Y-26456D02*
X9448Y-26456D01*
X9448Y-26456D02*
X8208Y-25216D01*
X8208Y-25216D02*
X8208Y-24114D01*
X28444Y-19952D02*
X29283Y-19952D01*
X26102Y-26456D02*
X12535Y-26456D01*
X29389Y-23169D02*
X26102Y-26456D01*
X29389Y-20059D02*
X29389Y-23169D01*
X29283Y-19952D02*
X29389Y-20059D01*
X8208Y-24114D02*
X8208Y-23484D01*
G54D21*
X18917Y-23562D02*
X18917Y-23543D01*
G54D20*
X18917Y-23543D02*
X18248Y-22874D01*
X18248Y-22874D02*
X10452Y-22874D01*
X10452Y-22874D02*
X8405Y-20826D01*
G54D21*
X8405Y-13366D02*
X8385Y-13346D01*
G54D20*
X8405Y-20826D02*
X8405Y-13366D01*
G54D21*
X20039Y-24960D02*
X20039Y-24685D01*
G54D20*
X20039Y-24685D02*
X18917Y-23562D01*
G54D21*
X18917Y-23562D02*
X18937Y-23582D01*
G54D20*
X19291Y-23149D02*
X18484Y-22342D01*
X18484Y-22342D02*
X10807Y-22342D01*
X10807Y-22342D02*
X9074Y-20610D01*
X9074Y-20610D02*
X9074Y-14527D01*
G54D21*
X19291Y-23169D02*
X19291Y-23149D01*
X21039Y-24960D02*
X21039Y-24917D01*
G54D20*
X21039Y-24917D02*
X19291Y-23169D01*
G54D21*
X19291Y-23169D02*
X19271Y-23149D01*
G54D20*
X19744Y-22677D02*
X19744Y-22657D01*
X19744Y-22657D02*
X18917Y-21830D01*
X18917Y-21830D02*
X11200Y-21830D01*
X11200Y-21830D02*
X9763Y-20393D01*
X9763Y-20393D02*
X9763Y-13523D01*
X22027Y-24960D02*
X19744Y-22677D01*
G54D21*
X19744Y-22677D02*
X19724Y-22657D01*
X22039Y-24960D02*
X22027Y-24960D01*
G54D20*
X23039Y-24043D02*
X14901Y-15905D01*
X23039Y-24043D02*
X23039Y-24960D01*
X14931Y-15935D02*
X14901Y-15905D01*
X14074Y-15078D02*
X14931Y-15935D01*
X15039Y-24960D02*
X15039Y-24015D01*
X15039Y-24015D02*
X14645Y-23622D01*
X8858Y-9527D02*
X8858Y-10393D01*
X8858Y-11496D02*
X8858Y-10393D01*
X14094Y-10354D02*
X8858Y-10393D01*
X13681Y-9724D02*
X11811Y-9724D01*
G54D21*
X13700Y-9744D02*
X13681Y-9724D01*
G54D20*
X24133Y-16515D02*
X26043Y-18425D01*
X26043Y-20011D02*
X26043Y-18425D01*
G54D21*
X18338Y-11980D02*
X18385Y-11980D01*
G54D20*
X17066Y-10708D02*
X18338Y-11980D01*
X18385Y-11980D02*
X21141Y-11980D01*
X21141Y-11980D02*
X21161Y-12000D01*
X24039Y-24960D02*
X24039Y-25338D01*
X24039Y-25338D02*
X24488Y-25787D01*
X24488Y-25787D02*
X25944Y-25787D01*
X25944Y-25787D02*
X28444Y-23287D01*
X28444Y-23287D02*
X28444Y-20952D01*
X15649Y-13000D02*
X18366Y-13000D01*
G54D21*
X18366Y-13000D02*
X18385Y-12980D01*
G54D20*
X13039Y-24960D02*
X13039Y-23905D01*
X13039Y-23905D02*
X12814Y-23681D01*
G54D21*
X13039Y-24960D02*
X13039Y-24909D01*
X26043Y-21011D02*
X25972Y-21011D01*
G54D20*
X25413Y-20452D02*
X22383Y-20452D01*
X25972Y-21011D02*
X25413Y-20452D01*
G54D21*
X23090Y-21159D02*
X23108Y-21159D01*
G54D20*
X25039Y-23090D02*
X25039Y-24960D01*
X23108Y-21159D02*
X25039Y-23090D01*
G54D22*
X12224Y-12106D02*
X12224Y-11712D01*
X12224Y-11712D02*
X11811Y-11299D01*
G54D21*
X11811Y-11299D02*
X11811Y-11358D01*
G54D22*
X14039Y-24960D02*
X14039Y-24039D01*
X14039Y-24039D02*
X13720Y-23720D01*
X10039Y-24960D02*
X10039Y-25137D01*
X10039Y-25137D02*
X10826Y-25925D01*
X10826Y-25925D02*
X13074Y-25925D01*
X13074Y-25925D02*
X14039Y-24960D01*
X23090Y-19745D02*
X23090Y-17578D01*
X23090Y-17578D02*
X23090Y-14929D01*
X23090Y-14929D02*
X21161Y-13000D01*
G54D21*
X14039Y-24960D02*
X14035Y-24960D01*
G54D10*
G36*
X24353Y-26108D02*
X14393Y-26108D01*
X14393Y-25425D01*
X14039Y-25070D01*
X13684Y-25425D01*
X13718Y-25526D01*
X13944Y-25608D01*
X14184Y-25598D01*
X14359Y-25526D01*
X14393Y-25425D01*
X14393Y-26108D01*
X12535Y-26108D01*
X9989Y-26108D01*
X9989Y-25541D01*
X9989Y-25050D01*
X9497Y-25050D01*
X9435Y-25112D01*
X9434Y-25304D01*
X9435Y-25404D01*
X9473Y-25496D01*
X9543Y-25566D01*
X9635Y-25604D01*
X9926Y-25604D01*
X9989Y-25541D01*
X9989Y-26108D01*
X9593Y-26108D01*
X8967Y-25482D01*
X8995Y-25471D01*
X9132Y-25334D01*
X9206Y-25156D01*
X9206Y-24962D01*
X9132Y-24783D01*
X8996Y-24647D01*
X8817Y-24572D01*
X8624Y-24572D01*
X8557Y-24600D01*
X8557Y-24462D01*
X9514Y-24462D01*
X9473Y-24503D01*
X9435Y-24595D01*
X9434Y-24695D01*
X9435Y-24887D01*
X9497Y-24950D01*
X9989Y-24950D01*
X9989Y-24942D01*
X10089Y-24942D01*
X10089Y-24950D01*
X10097Y-24950D01*
X10097Y-25050D01*
X10089Y-25050D01*
X10089Y-25541D01*
X10151Y-25604D01*
X10443Y-25604D01*
X10535Y-25566D01*
X10605Y-25496D01*
X10627Y-25442D01*
X10696Y-25512D01*
X10918Y-25604D01*
X11159Y-25604D01*
X11381Y-25512D01*
X11539Y-25354D01*
X11696Y-25512D01*
X11918Y-25604D01*
X12159Y-25604D01*
X12381Y-25512D01*
X12539Y-25354D01*
X12696Y-25512D01*
X12918Y-25604D01*
X13159Y-25604D01*
X13381Y-25512D01*
X13551Y-25342D01*
X13554Y-25334D01*
X13614Y-25354D01*
X13968Y-25000D01*
X13614Y-24645D01*
X13554Y-24665D01*
X13551Y-24658D01*
X13387Y-24493D01*
X13387Y-23905D01*
X13387Y-23905D01*
X13387Y-23905D01*
X13361Y-23772D01*
X13301Y-23682D01*
X13301Y-23584D01*
X13227Y-23406D01*
X13090Y-23269D01*
X12978Y-23222D01*
X14357Y-23222D01*
X14233Y-23346D01*
X14159Y-23524D01*
X14159Y-23718D01*
X14233Y-23897D01*
X14369Y-24034D01*
X14548Y-24108D01*
X14639Y-24108D01*
X14690Y-24160D01*
X14690Y-24493D01*
X14527Y-24657D01*
X14523Y-24665D01*
X14464Y-24645D01*
X14393Y-24716D01*
X14393Y-24574D01*
X14359Y-24473D01*
X14134Y-24391D01*
X13893Y-24401D01*
X13718Y-24473D01*
X13684Y-24574D01*
X14039Y-24929D01*
X14393Y-24574D01*
X14393Y-24716D01*
X14110Y-25000D01*
X14464Y-25354D01*
X14523Y-25334D01*
X14526Y-25341D01*
X14696Y-25512D01*
X14918Y-25604D01*
X15159Y-25604D01*
X15381Y-25512D01*
X15539Y-25354D01*
X15696Y-25512D01*
X15918Y-25604D01*
X16159Y-25604D01*
X16381Y-25512D01*
X16539Y-25354D01*
X16696Y-25512D01*
X16918Y-25604D01*
X17159Y-25604D01*
X17381Y-25512D01*
X17539Y-25354D01*
X17696Y-25512D01*
X17918Y-25604D01*
X18159Y-25604D01*
X18381Y-25512D01*
X18539Y-25354D01*
X18696Y-25512D01*
X18918Y-25604D01*
X19159Y-25604D01*
X19381Y-25512D01*
X19539Y-25354D01*
X19696Y-25512D01*
X19918Y-25604D01*
X20159Y-25604D01*
X20381Y-25512D01*
X20539Y-25354D01*
X20696Y-25512D01*
X20918Y-25604D01*
X21159Y-25604D01*
X21381Y-25512D01*
X21539Y-25354D01*
X21696Y-25512D01*
X21918Y-25604D01*
X22159Y-25604D01*
X22381Y-25512D01*
X22539Y-25354D01*
X22696Y-25512D01*
X22918Y-25604D01*
X23159Y-25604D01*
X23381Y-25512D01*
X23539Y-25354D01*
X23696Y-25512D01*
X23762Y-25539D01*
X23792Y-25584D01*
X24241Y-26033D01*
X24241Y-26033D01*
X24353Y-26108D01*
X24353Y-26108D01*
G37*
G54D23*
X24353Y-26108D02*
X14393Y-26108D01*
X14393Y-25425D01*
X14039Y-25070D01*
X13684Y-25425D01*
X13718Y-25526D01*
X13944Y-25608D01*
X14184Y-25598D01*
X14359Y-25526D01*
X14393Y-25425D01*
X14393Y-26108D01*
X12535Y-26108D01*
X9989Y-26108D01*
X9989Y-25541D01*
X9989Y-25050D01*
X9497Y-25050D01*
X9435Y-25112D01*
X9434Y-25304D01*
X9435Y-25404D01*
X9473Y-25496D01*
X9543Y-25566D01*
X9635Y-25604D01*
X9926Y-25604D01*
X9989Y-25541D01*
X9989Y-26108D01*
X9593Y-26108D01*
X8967Y-25482D01*
X8995Y-25471D01*
X9132Y-25334D01*
X9206Y-25156D01*
X9206Y-24962D01*
X9132Y-24783D01*
X8996Y-24647D01*
X8817Y-24572D01*
X8624Y-24572D01*
X8557Y-24600D01*
X8557Y-24462D01*
X9514Y-24462D01*
X9473Y-24503D01*
X9435Y-24595D01*
X9434Y-24695D01*
X9435Y-24887D01*
X9497Y-24950D01*
X9989Y-24950D01*
X9989Y-24942D01*
X10089Y-24942D01*
X10089Y-24950D01*
X10097Y-24950D01*
X10097Y-25050D01*
X10089Y-25050D01*
X10089Y-25541D01*
X10151Y-25604D01*
X10443Y-25604D01*
X10535Y-25566D01*
X10605Y-25496D01*
X10627Y-25442D01*
X10696Y-25512D01*
X10918Y-25604D01*
X11159Y-25604D01*
X11381Y-25512D01*
X11539Y-25354D01*
X11696Y-25512D01*
X11918Y-25604D01*
X12159Y-25604D01*
X12381Y-25512D01*
X12539Y-25354D01*
X12696Y-25512D01*
X12918Y-25604D01*
X13159Y-25604D01*
X13381Y-25512D01*
X13551Y-25342D01*
X13554Y-25334D01*
X13614Y-25354D01*
X13968Y-25000D01*
X13614Y-24645D01*
X13554Y-24665D01*
X13551Y-24658D01*
X13387Y-24493D01*
X13387Y-23905D01*
X13387Y-23905D01*
X13387Y-23905D01*
X13361Y-23772D01*
X13301Y-23682D01*
X13301Y-23584D01*
X13227Y-23406D01*
X13090Y-23269D01*
X12978Y-23222D01*
X14357Y-23222D01*
X14233Y-23346D01*
X14159Y-23524D01*
X14159Y-23718D01*
X14233Y-23897D01*
X14369Y-24034D01*
X14548Y-24108D01*
X14639Y-24108D01*
X14690Y-24160D01*
X14690Y-24493D01*
X14527Y-24657D01*
X14523Y-24665D01*
X14464Y-24645D01*
X14393Y-24716D01*
X14393Y-24574D01*
X14359Y-24473D01*
X14134Y-24391D01*
X13893Y-24401D01*
X13718Y-24473D01*
X13684Y-24574D01*
X14039Y-24929D01*
X14393Y-24574D01*
X14393Y-24716D01*
X14110Y-25000D01*
X14464Y-25354D01*
X14523Y-25334D01*
X14526Y-25341D01*
X14696Y-25512D01*
X14918Y-25604D01*
X15159Y-25604D01*
X15381Y-25512D01*
X15539Y-25354D01*
X15696Y-25512D01*
X15918Y-25604D01*
X16159Y-25604D01*
X16381Y-25512D01*
X16539Y-25354D01*
X16696Y-25512D01*
X16918Y-25604D01*
X17159Y-25604D01*
X17381Y-25512D01*
X17539Y-25354D01*
X17696Y-25512D01*
X17918Y-25604D01*
X18159Y-25604D01*
X18381Y-25512D01*
X18539Y-25354D01*
X18696Y-25512D01*
X18918Y-25604D01*
X19159Y-25604D01*
X19381Y-25512D01*
X19539Y-25354D01*
X19696Y-25512D01*
X19918Y-25604D01*
X20159Y-25604D01*
X20381Y-25512D01*
X20539Y-25354D01*
X20696Y-25512D01*
X20918Y-25604D01*
X21159Y-25604D01*
X21381Y-25512D01*
X21539Y-25354D01*
X21696Y-25512D01*
X21918Y-25604D01*
X22159Y-25604D01*
X22381Y-25512D01*
X22539Y-25354D01*
X22696Y-25512D01*
X22918Y-25604D01*
X23159Y-25604D01*
X23381Y-25512D01*
X23539Y-25354D01*
X23696Y-25512D01*
X23762Y-25539D01*
X23792Y-25584D01*
X24241Y-26033D01*
X24241Y-26033D01*
X24353Y-26108D01*
G54D10*
G36*
X31226Y-27289D02*
X29738Y-27289D01*
X29738Y-23169D01*
X29738Y-23169D01*
X29738Y-20059D01*
X29711Y-19925D01*
X29636Y-19812D01*
X29636Y-19812D01*
X29529Y-19706D01*
X29416Y-19630D01*
X29394Y-19626D01*
X29283Y-19604D01*
X29283Y-19604D01*
X28838Y-19604D01*
X28742Y-19507D01*
X28549Y-19427D01*
X28340Y-19427D01*
X28147Y-19507D01*
X28000Y-19654D01*
X27919Y-19847D01*
X27919Y-20056D01*
X27999Y-20249D01*
X28147Y-20397D01*
X28280Y-20452D01*
X28147Y-20507D01*
X28000Y-20654D01*
X27919Y-20847D01*
X27919Y-21056D01*
X27999Y-21249D01*
X28096Y-21346D01*
X28096Y-23143D01*
X25800Y-25438D01*
X25455Y-25438D01*
X25551Y-25342D01*
X25643Y-25120D01*
X25643Y-24880D01*
X25551Y-24658D01*
X25387Y-24493D01*
X25387Y-23090D01*
X25387Y-23090D01*
X25387Y-23090D01*
X25361Y-22957D01*
X25285Y-22844D01*
X25285Y-22844D01*
X23615Y-21173D01*
X23615Y-21055D01*
X23535Y-20862D01*
X23474Y-20801D01*
X25269Y-20801D01*
X25518Y-21050D01*
X25518Y-21115D01*
X25597Y-21308D01*
X25745Y-21456D01*
X25938Y-21536D01*
X26147Y-21536D01*
X26340Y-21457D01*
X26488Y-21309D01*
X26568Y-21116D01*
X26568Y-20907D01*
X26488Y-20714D01*
X26341Y-20566D01*
X26208Y-20511D01*
X26340Y-20457D01*
X26488Y-20309D01*
X26568Y-20116D01*
X26568Y-19907D01*
X26488Y-19714D01*
X26391Y-19617D01*
X26391Y-18425D01*
X26391Y-18425D01*
X26391Y-18425D01*
X26365Y-18291D01*
X26289Y-18178D01*
X26289Y-18178D01*
X24620Y-16509D01*
X24620Y-16419D01*
X24546Y-16240D01*
X24409Y-16103D01*
X24230Y-16029D01*
X24037Y-16029D01*
X23858Y-16103D01*
X23721Y-16239D01*
X23647Y-16418D01*
X23647Y-16612D01*
X23721Y-16790D01*
X23858Y-16927D01*
X24036Y-17001D01*
X24127Y-17001D01*
X25694Y-18569D01*
X25694Y-19617D01*
X25598Y-19714D01*
X25518Y-19906D01*
X25518Y-20115D01*
X25522Y-20126D01*
X25413Y-20104D01*
X25413Y-20104D01*
X23729Y-20104D01*
X23474Y-20104D01*
X23497Y-20081D01*
X23452Y-20037D01*
X23541Y-20037D01*
X23691Y-19887D01*
X23729Y-19795D01*
X23729Y-19696D01*
X23691Y-19604D01*
X23621Y-19533D01*
X23541Y-19453D01*
X23452Y-19453D01*
X23382Y-19524D01*
X23382Y-19383D01*
X23382Y-19294D01*
X23302Y-19214D01*
X23231Y-19144D01*
X23140Y-19106D01*
X23040Y-19106D01*
X22948Y-19144D01*
X22798Y-19294D01*
X22798Y-19383D01*
X23090Y-19674D01*
X23382Y-19383D01*
X23382Y-19524D01*
X23161Y-19745D01*
X23166Y-19751D01*
X23096Y-19821D01*
X23090Y-19816D01*
X23084Y-19821D01*
X23014Y-19751D01*
X23019Y-19745D01*
X22728Y-19453D01*
X22639Y-19453D01*
X22489Y-19603D01*
X22451Y-19695D01*
X22451Y-19795D01*
X22489Y-19887D01*
X22559Y-19957D01*
X22559Y-19957D01*
X22488Y-19927D01*
X22279Y-19927D01*
X22086Y-20007D01*
X21938Y-20154D01*
X21858Y-20347D01*
X21858Y-20556D01*
X21938Y-20749D01*
X22085Y-20897D01*
X22278Y-20977D01*
X22487Y-20977D01*
X22620Y-20922D01*
X22565Y-21054D01*
X22565Y-21263D01*
X22645Y-21456D01*
X22792Y-21604D01*
X22985Y-21684D01*
X23140Y-21684D01*
X24690Y-23234D01*
X24690Y-24493D01*
X24539Y-24645D01*
X24382Y-24487D01*
X24160Y-24395D01*
X23919Y-24395D01*
X23697Y-24487D01*
X23539Y-24645D01*
X23387Y-24493D01*
X23387Y-24043D01*
X23361Y-23909D01*
X23285Y-23796D01*
X23285Y-23796D01*
X21691Y-22202D01*
X21691Y-13075D01*
X21679Y-12867D01*
X21621Y-12727D01*
X21529Y-12702D01*
X21232Y-13000D01*
X21529Y-13297D01*
X21621Y-13272D01*
X21691Y-13075D01*
X21691Y-22202D01*
X21458Y-21969D01*
X21458Y-13367D01*
X21161Y-13070D01*
X21090Y-13141D01*
X21090Y-13000D01*
X20793Y-12702D01*
X20700Y-12727D01*
X20631Y-12924D01*
X20642Y-13132D01*
X20700Y-13272D01*
X20793Y-13297D01*
X21090Y-13000D01*
X21090Y-13141D01*
X20864Y-13367D01*
X20888Y-13460D01*
X21085Y-13529D01*
X21294Y-13518D01*
X21434Y-13460D01*
X21458Y-13367D01*
X21458Y-21969D01*
X15177Y-15688D01*
X15147Y-15659D01*
X15147Y-15659D01*
X14561Y-15072D01*
X14561Y-14982D01*
X14487Y-14803D01*
X14350Y-14666D01*
X14171Y-14592D01*
X13978Y-14592D01*
X13799Y-14666D01*
X13662Y-14802D01*
X13588Y-14981D01*
X13588Y-15175D01*
X13662Y-15353D01*
X13799Y-15490D01*
X13977Y-15564D01*
X14068Y-15564D01*
X14655Y-16151D01*
X14655Y-16151D01*
X14684Y-16181D01*
X22690Y-24187D01*
X22690Y-24493D01*
X22539Y-24645D01*
X22382Y-24487D01*
X22160Y-24395D01*
X21955Y-24395D01*
X20030Y-22470D01*
X20030Y-22470D01*
X19990Y-22411D01*
X19990Y-22411D01*
X19163Y-21584D01*
X19050Y-21508D01*
X19028Y-21504D01*
X18917Y-21482D01*
X18917Y-21482D01*
X17234Y-21482D01*
X17523Y-21363D01*
X17818Y-21067D01*
X17978Y-20682D01*
X17979Y-20264D01*
X17819Y-19878D01*
X17524Y-19582D01*
X17138Y-19422D01*
X16721Y-19422D01*
X16335Y-19581D01*
X16039Y-19876D01*
X15879Y-20262D01*
X15878Y-20680D01*
X16038Y-21066D01*
X16333Y-21362D01*
X16623Y-21482D01*
X11345Y-21482D01*
X10112Y-20249D01*
X10112Y-13862D01*
X10175Y-13799D01*
X10249Y-13620D01*
X10250Y-13427D01*
X10176Y-13248D01*
X10039Y-13111D01*
X9879Y-13045D01*
X13444Y-13045D01*
X13444Y-13045D01*
X13444Y-13045D01*
X13556Y-13023D01*
X13578Y-13018D01*
X13578Y-13018D01*
X13691Y-12943D01*
X14286Y-12348D01*
X14488Y-12348D01*
X14621Y-12321D01*
X14655Y-12299D01*
X15206Y-12299D01*
X15351Y-12444D01*
X15484Y-12500D01*
X15352Y-12554D01*
X15204Y-12702D01*
X15124Y-12895D01*
X15124Y-13103D01*
X15204Y-13297D01*
X15351Y-13444D01*
X15544Y-13524D01*
X15753Y-13525D01*
X15946Y-13445D01*
X16043Y-13348D01*
X18011Y-13348D01*
X18088Y-13425D01*
X18280Y-13505D01*
X18489Y-13505D01*
X18682Y-13425D01*
X18830Y-13278D01*
X18910Y-13085D01*
X18910Y-12876D01*
X18831Y-12683D01*
X18683Y-12535D01*
X18550Y-12480D01*
X18682Y-12425D01*
X18779Y-12328D01*
X20638Y-12328D01*
X20674Y-12416D01*
X20744Y-12486D01*
X20836Y-12524D01*
X20923Y-12525D01*
X20888Y-12539D01*
X20864Y-12632D01*
X21161Y-12929D01*
X21458Y-12632D01*
X21434Y-12539D01*
X21393Y-12525D01*
X21485Y-12525D01*
X21577Y-12487D01*
X21648Y-12416D01*
X21686Y-12324D01*
X21686Y-12225D01*
X21686Y-11675D01*
X21648Y-11583D01*
X21578Y-11513D01*
X21486Y-11475D01*
X21386Y-11474D01*
X20836Y-11474D01*
X20744Y-11512D01*
X20674Y-11583D01*
X20654Y-11631D01*
X18779Y-11631D01*
X18683Y-11535D01*
X18490Y-11455D01*
X18306Y-11455D01*
X17553Y-10702D01*
X17553Y-10612D01*
X17479Y-10433D01*
X17342Y-10296D01*
X17164Y-10222D01*
X16970Y-10222D01*
X16791Y-10296D01*
X16654Y-10432D01*
X16580Y-10611D01*
X16580Y-10804D01*
X16654Y-10983D01*
X16791Y-11120D01*
X16969Y-11194D01*
X17060Y-11194D01*
X17860Y-11995D01*
X17860Y-12084D01*
X17940Y-12277D01*
X18088Y-12425D01*
X18221Y-12480D01*
X18088Y-12534D01*
X17972Y-12651D01*
X16043Y-12651D01*
X15947Y-12555D01*
X15814Y-12499D01*
X15946Y-12445D01*
X16094Y-12297D01*
X16174Y-12104D01*
X16174Y-11896D01*
X16094Y-11703D01*
X15998Y-11605D01*
X15998Y-10511D01*
X15998Y-10511D01*
X15998Y-10511D01*
X15975Y-10400D01*
X15971Y-10378D01*
X15971Y-10378D01*
X15895Y-10265D01*
X15895Y-10265D01*
X14124Y-8493D01*
X14011Y-8418D01*
X13989Y-8413D01*
X13877Y-8391D01*
X13877Y-8391D01*
X8587Y-8391D01*
X8563Y-8367D01*
X8384Y-8293D01*
X8223Y-8293D01*
X8291Y-8225D01*
X8329Y-8133D01*
X8329Y-8111D01*
X8467Y-8249D01*
X8669Y-8333D01*
X8888Y-8333D01*
X9090Y-8250D01*
X9245Y-8095D01*
X9279Y-8013D01*
X9312Y-8094D01*
X9467Y-8249D01*
X9669Y-8333D01*
X9888Y-8333D01*
X10090Y-8250D01*
X10245Y-8095D01*
X10279Y-8013D01*
X10312Y-8094D01*
X10467Y-8249D01*
X10669Y-8333D01*
X10888Y-8333D01*
X11090Y-8250D01*
X11245Y-8095D01*
X11279Y-8013D01*
X11312Y-8094D01*
X11467Y-8249D01*
X11669Y-8333D01*
X11888Y-8333D01*
X12090Y-8250D01*
X12245Y-8095D01*
X12279Y-8013D01*
X12312Y-8094D01*
X12467Y-8249D01*
X12669Y-8333D01*
X12888Y-8333D01*
X13090Y-8250D01*
X13245Y-8095D01*
X13279Y-8013D01*
X13312Y-8094D01*
X13467Y-8249D01*
X13669Y-8333D01*
X13888Y-8333D01*
X14090Y-8250D01*
X14245Y-8095D01*
X14279Y-8013D01*
X14312Y-8094D01*
X14467Y-8249D01*
X14669Y-8333D01*
X14888Y-8333D01*
X15090Y-8250D01*
X15245Y-8095D01*
X15279Y-8013D01*
X15312Y-8094D01*
X15467Y-8249D01*
X15669Y-8333D01*
X15888Y-8333D01*
X16090Y-8250D01*
X16245Y-8095D01*
X16279Y-8013D01*
X16312Y-8094D01*
X16467Y-8249D01*
X16669Y-8333D01*
X16888Y-8333D01*
X17090Y-8250D01*
X17245Y-8095D01*
X17279Y-8013D01*
X17312Y-8094D01*
X17467Y-8249D01*
X17669Y-8333D01*
X17888Y-8333D01*
X18090Y-8250D01*
X18245Y-8095D01*
X18279Y-8013D01*
X18312Y-8094D01*
X18467Y-8249D01*
X18669Y-8333D01*
X18888Y-8333D01*
X19090Y-8250D01*
X19245Y-8095D01*
X19279Y-8013D01*
X19312Y-8094D01*
X19467Y-8249D01*
X19669Y-8333D01*
X19888Y-8333D01*
X20090Y-8250D01*
X20245Y-8095D01*
X20329Y-7893D01*
X20329Y-7674D01*
X20246Y-7472D01*
X20091Y-7317D01*
X20009Y-7283D01*
X20090Y-7250D01*
X20245Y-7095D01*
X20329Y-6893D01*
X20329Y-6674D01*
X20246Y-6472D01*
X20091Y-6317D01*
X19889Y-6233D01*
X19670Y-6233D01*
X19468Y-6316D01*
X19313Y-6471D01*
X19279Y-6553D01*
X19246Y-6472D01*
X19091Y-6317D01*
X18889Y-6233D01*
X18670Y-6233D01*
X18468Y-6316D01*
X18313Y-6471D01*
X18279Y-6553D01*
X18246Y-6472D01*
X18091Y-6317D01*
X17889Y-6233D01*
X17670Y-6233D01*
X17468Y-6316D01*
X17313Y-6471D01*
X17279Y-6553D01*
X17246Y-6472D01*
X17091Y-6317D01*
X16889Y-6233D01*
X16670Y-6233D01*
X16468Y-6316D01*
X16313Y-6471D01*
X16279Y-6553D01*
X16246Y-6472D01*
X16091Y-6317D01*
X15889Y-6233D01*
X15670Y-6233D01*
X15468Y-6316D01*
X15313Y-6471D01*
X15279Y-6553D01*
X15246Y-6472D01*
X15091Y-6317D01*
X14889Y-6233D01*
X14670Y-6233D01*
X14468Y-6316D01*
X14313Y-6471D01*
X14279Y-6553D01*
X14246Y-6472D01*
X14091Y-6317D01*
X13889Y-6233D01*
X13670Y-6233D01*
X13468Y-6316D01*
X13313Y-6471D01*
X13279Y-6553D01*
X13246Y-6472D01*
X13091Y-6317D01*
X12889Y-6233D01*
X12670Y-6233D01*
X12468Y-6316D01*
X12313Y-6471D01*
X12279Y-6553D01*
X12246Y-6472D01*
X12091Y-6317D01*
X11889Y-6233D01*
X11670Y-6233D01*
X11468Y-6316D01*
X11313Y-6471D01*
X11279Y-6553D01*
X11246Y-6472D01*
X11091Y-6317D01*
X10889Y-6233D01*
X10670Y-6233D01*
X10468Y-6316D01*
X10313Y-6471D01*
X10282Y-6547D01*
X10260Y-6495D01*
X10165Y-6468D01*
X10094Y-6538D01*
X10094Y-6397D01*
X10067Y-6302D01*
X9861Y-6228D01*
X9642Y-6239D01*
X9491Y-6302D01*
X9464Y-6397D01*
X9779Y-6712D01*
X10094Y-6397D01*
X10094Y-6538D01*
X9850Y-6783D01*
X10165Y-7098D01*
X10260Y-7071D01*
X10280Y-7016D01*
X10312Y-7094D01*
X10467Y-7249D01*
X10549Y-7283D01*
X10468Y-7316D01*
X10313Y-7471D01*
X10279Y-7553D01*
X10246Y-7472D01*
X10091Y-7317D01*
X10015Y-7286D01*
X10067Y-7264D01*
X10094Y-7169D01*
X9779Y-6854D01*
X9464Y-7169D01*
X9491Y-7264D01*
X9546Y-7284D01*
X9468Y-7316D01*
X9313Y-7471D01*
X9279Y-7553D01*
X9246Y-7472D01*
X9091Y-7317D01*
X9009Y-7283D01*
X9090Y-7250D01*
X9245Y-7095D01*
X9276Y-7019D01*
X9298Y-7071D01*
X9393Y-7098D01*
X9708Y-6783D01*
X9393Y-6468D01*
X9298Y-6495D01*
X9278Y-6550D01*
X9246Y-6472D01*
X9091Y-6317D01*
X8889Y-6233D01*
X8670Y-6233D01*
X8468Y-6316D01*
X8313Y-6471D01*
X8279Y-6553D01*
X8246Y-6472D01*
X8091Y-6317D01*
X7889Y-6233D01*
X7670Y-6233D01*
X7468Y-6316D01*
X7313Y-6471D01*
X7229Y-6673D01*
X7229Y-6892D01*
X7312Y-7094D01*
X7451Y-7233D01*
X7430Y-7233D01*
X7338Y-7271D01*
X7267Y-7341D01*
X7229Y-7433D01*
X7229Y-7532D01*
X7229Y-8132D01*
X7267Y-8224D01*
X7337Y-8295D01*
X7429Y-8333D01*
X7529Y-8333D01*
X8093Y-8333D01*
X8012Y-8367D01*
X7875Y-8503D01*
X7801Y-8682D01*
X7801Y-8875D01*
X7874Y-9054D01*
X8011Y-9191D01*
X8190Y-9265D01*
X8344Y-9265D01*
X8283Y-9412D01*
X8283Y-9641D01*
X8370Y-9852D01*
X8509Y-9992D01*
X8509Y-10393D01*
X8509Y-11031D01*
X8371Y-11169D01*
X8283Y-11381D01*
X8283Y-11609D01*
X8370Y-11821D01*
X8532Y-11983D01*
X8743Y-12070D01*
X8972Y-12071D01*
X9183Y-11983D01*
X9345Y-11822D01*
X9433Y-11610D01*
X9433Y-11382D01*
X9346Y-11170D01*
X9206Y-11031D01*
X9206Y-10739D01*
X11864Y-10721D01*
X11670Y-10730D01*
X11508Y-10797D01*
X11477Y-10895D01*
X11811Y-11228D01*
X12144Y-10895D01*
X12113Y-10797D01*
X11902Y-10720D01*
X13760Y-10707D01*
X13818Y-10766D01*
X13997Y-10840D01*
X14190Y-10840D01*
X14369Y-10766D01*
X14506Y-10630D01*
X14580Y-10451D01*
X14580Y-10258D01*
X14506Y-10079D01*
X14370Y-9942D01*
X14191Y-9868D01*
X14175Y-9868D01*
X14186Y-9841D01*
X14187Y-9647D01*
X14113Y-9469D01*
X13976Y-9332D01*
X13797Y-9257D01*
X13604Y-9257D01*
X13425Y-9331D01*
X13381Y-9375D01*
X12275Y-9375D01*
X12137Y-9237D01*
X11925Y-9149D01*
X11697Y-9149D01*
X11485Y-9236D01*
X11323Y-9398D01*
X11236Y-9609D01*
X11235Y-9838D01*
X11314Y-10028D01*
X9206Y-10042D01*
X9206Y-9992D01*
X9345Y-9853D01*
X9433Y-9642D01*
X9433Y-9413D01*
X9346Y-9202D01*
X9232Y-9088D01*
X13733Y-9088D01*
X15301Y-10656D01*
X15301Y-11606D01*
X15206Y-11700D01*
X14655Y-11700D01*
X14621Y-11678D01*
X14488Y-11651D01*
X14141Y-11651D01*
X14141Y-11651D01*
X14030Y-11673D01*
X14008Y-11678D01*
X13895Y-11753D01*
X13895Y-11753D01*
X13300Y-12348D01*
X12390Y-12348D01*
X12390Y-11386D01*
X12380Y-11158D01*
X12312Y-10996D01*
X12215Y-10965D01*
X11881Y-11299D01*
X12215Y-11632D01*
X12312Y-11602D01*
X12390Y-11386D01*
X12390Y-12348D01*
X12144Y-12348D01*
X12144Y-11703D01*
X11811Y-11369D01*
X11740Y-11440D01*
X11740Y-11299D01*
X11407Y-10965D01*
X11309Y-10996D01*
X11231Y-11211D01*
X11241Y-11439D01*
X11309Y-11602D01*
X11407Y-11632D01*
X11740Y-11299D01*
X11740Y-11440D01*
X11477Y-11703D01*
X11508Y-11801D01*
X11723Y-11878D01*
X11951Y-11868D01*
X12113Y-11801D01*
X12144Y-11703D01*
X12144Y-12348D01*
X8248Y-12348D01*
X8114Y-12374D01*
X8001Y-12450D01*
X8001Y-12450D01*
X7489Y-12962D01*
X7414Y-13075D01*
X7409Y-13097D01*
X7387Y-13208D01*
X7387Y-13208D01*
X7387Y-20885D01*
X7387Y-20885D01*
X7409Y-20997D01*
X7414Y-21019D01*
X7489Y-21132D01*
X10029Y-23671D01*
X10029Y-23671D01*
X10142Y-23747D01*
X10236Y-23765D01*
X8614Y-23765D01*
X8620Y-23760D01*
X8694Y-23581D01*
X8694Y-23387D01*
X8621Y-23209D01*
X8484Y-23072D01*
X8305Y-22998D01*
X8112Y-22997D01*
X7933Y-23071D01*
X7796Y-23208D01*
X7722Y-23387D01*
X7722Y-23580D01*
X7796Y-23759D01*
X7860Y-23823D01*
X7860Y-24114D01*
X7860Y-25216D01*
X7860Y-25216D01*
X7882Y-25327D01*
X7886Y-25349D01*
X7962Y-25462D01*
X9202Y-26703D01*
X9202Y-26703D01*
X9315Y-26778D01*
X9448Y-26805D01*
X9448Y-26805D01*
X9448Y-26805D01*
X12535Y-26805D01*
X26102Y-26805D01*
X26102Y-26805D01*
X26102Y-26805D01*
X26213Y-26782D01*
X26235Y-26778D01*
X26235Y-26778D01*
X26348Y-26703D01*
X29636Y-23415D01*
X29636Y-23415D01*
X29636Y-23415D01*
X29711Y-23302D01*
X29738Y-23169D01*
X29738Y-23169D01*
X29738Y-27289D01*
X7159Y-27289D01*
X7159Y-6175D01*
X22368Y-6175D01*
X22368Y-11811D01*
X22388Y-11914D01*
X22447Y-12001D01*
X22534Y-12060D01*
X22637Y-12080D01*
X30511Y-12080D01*
X31226Y-12080D01*
X31226Y-27289D01*
X31226Y-27289D01*
G37*
G54D23*
X31226Y-27289D02*
X29738Y-27289D01*
X29738Y-23169D01*
X29738Y-23169D01*
X29738Y-20059D01*
X29711Y-19925D01*
X29636Y-19812D01*
X29636Y-19812D01*
X29529Y-19706D01*
X29416Y-19630D01*
X29394Y-19626D01*
X29283Y-19604D01*
X29283Y-19604D01*
X28838Y-19604D01*
X28742Y-19507D01*
X28549Y-19427D01*
X28340Y-19427D01*
X28147Y-19507D01*
X28000Y-19654D01*
X27919Y-19847D01*
X27919Y-20056D01*
X27999Y-20249D01*
X28147Y-20397D01*
X28280Y-20452D01*
X28147Y-20507D01*
X28000Y-20654D01*
X27919Y-20847D01*
X27919Y-21056D01*
X27999Y-21249D01*
X28096Y-21346D01*
X28096Y-23143D01*
X25800Y-25438D01*
X25455Y-25438D01*
X25551Y-25342D01*
X25643Y-25120D01*
X25643Y-24880D01*
X25551Y-24658D01*
X25387Y-24493D01*
X25387Y-23090D01*
X25387Y-23090D01*
X25387Y-23090D01*
X25361Y-22957D01*
X25285Y-22844D01*
X25285Y-22844D01*
X23615Y-21173D01*
X23615Y-21055D01*
X23535Y-20862D01*
X23474Y-20801D01*
X25269Y-20801D01*
X25518Y-21050D01*
X25518Y-21115D01*
X25597Y-21308D01*
X25745Y-21456D01*
X25938Y-21536D01*
X26147Y-21536D01*
X26340Y-21457D01*
X26488Y-21309D01*
X26568Y-21116D01*
X26568Y-20907D01*
X26488Y-20714D01*
X26341Y-20566D01*
X26208Y-20511D01*
X26340Y-20457D01*
X26488Y-20309D01*
X26568Y-20116D01*
X26568Y-19907D01*
X26488Y-19714D01*
X26391Y-19617D01*
X26391Y-18425D01*
X26391Y-18425D01*
X26391Y-18425D01*
X26365Y-18291D01*
X26289Y-18178D01*
X26289Y-18178D01*
X24620Y-16509D01*
X24620Y-16419D01*
X24546Y-16240D01*
X24409Y-16103D01*
X24230Y-16029D01*
X24037Y-16029D01*
X23858Y-16103D01*
X23721Y-16239D01*
X23647Y-16418D01*
X23647Y-16612D01*
X23721Y-16790D01*
X23858Y-16927D01*
X24036Y-17001D01*
X24127Y-17001D01*
X25694Y-18569D01*
X25694Y-19617D01*
X25598Y-19714D01*
X25518Y-19906D01*
X25518Y-20115D01*
X25522Y-20126D01*
X25413Y-20104D01*
X25413Y-20104D01*
X23729Y-20104D01*
X23474Y-20104D01*
X23497Y-20081D01*
X23452Y-20037D01*
X23541Y-20037D01*
X23691Y-19887D01*
X23729Y-19795D01*
X23729Y-19696D01*
X23691Y-19604D01*
X23621Y-19533D01*
X23541Y-19453D01*
X23452Y-19453D01*
X23382Y-19524D01*
X23382Y-19383D01*
X23382Y-19294D01*
X23302Y-19214D01*
X23231Y-19144D01*
X23140Y-19106D01*
X23040Y-19106D01*
X22948Y-19144D01*
X22798Y-19294D01*
X22798Y-19383D01*
X23090Y-19674D01*
X23382Y-19383D01*
X23382Y-19524D01*
X23161Y-19745D01*
X23166Y-19751D01*
X23096Y-19821D01*
X23090Y-19816D01*
X23084Y-19821D01*
X23014Y-19751D01*
X23019Y-19745D01*
X22728Y-19453D01*
X22639Y-19453D01*
X22489Y-19603D01*
X22451Y-19695D01*
X22451Y-19795D01*
X22489Y-19887D01*
X22559Y-19957D01*
X22559Y-19957D01*
X22488Y-19927D01*
X22279Y-19927D01*
X22086Y-20007D01*
X21938Y-20154D01*
X21858Y-20347D01*
X21858Y-20556D01*
X21938Y-20749D01*
X22085Y-20897D01*
X22278Y-20977D01*
X22487Y-20977D01*
X22620Y-20922D01*
X22565Y-21054D01*
X22565Y-21263D01*
X22645Y-21456D01*
X22792Y-21604D01*
X22985Y-21684D01*
X23140Y-21684D01*
X24690Y-23234D01*
X24690Y-24493D01*
X24539Y-24645D01*
X24382Y-24487D01*
X24160Y-24395D01*
X23919Y-24395D01*
X23697Y-24487D01*
X23539Y-24645D01*
X23387Y-24493D01*
X23387Y-24043D01*
X23361Y-23909D01*
X23285Y-23796D01*
X23285Y-23796D01*
X21691Y-22202D01*
X21691Y-13075D01*
X21679Y-12867D01*
X21621Y-12727D01*
X21529Y-12702D01*
X21232Y-13000D01*
X21529Y-13297D01*
X21621Y-13272D01*
X21691Y-13075D01*
X21691Y-22202D01*
X21458Y-21969D01*
X21458Y-13367D01*
X21161Y-13070D01*
X21090Y-13141D01*
X21090Y-13000D01*
X20793Y-12702D01*
X20700Y-12727D01*
X20631Y-12924D01*
X20642Y-13132D01*
X20700Y-13272D01*
X20793Y-13297D01*
X21090Y-13000D01*
X21090Y-13141D01*
X20864Y-13367D01*
X20888Y-13460D01*
X21085Y-13529D01*
X21294Y-13518D01*
X21434Y-13460D01*
X21458Y-13367D01*
X21458Y-21969D01*
X15177Y-15688D01*
X15147Y-15659D01*
X15147Y-15659D01*
X14561Y-15072D01*
X14561Y-14982D01*
X14487Y-14803D01*
X14350Y-14666D01*
X14171Y-14592D01*
X13978Y-14592D01*
X13799Y-14666D01*
X13662Y-14802D01*
X13588Y-14981D01*
X13588Y-15175D01*
X13662Y-15353D01*
X13799Y-15490D01*
X13977Y-15564D01*
X14068Y-15564D01*
X14655Y-16151D01*
X14655Y-16151D01*
X14684Y-16181D01*
X22690Y-24187D01*
X22690Y-24493D01*
X22539Y-24645D01*
X22382Y-24487D01*
X22160Y-24395D01*
X21955Y-24395D01*
X20030Y-22470D01*
X20030Y-22470D01*
X19990Y-22411D01*
X19990Y-22411D01*
X19163Y-21584D01*
X19050Y-21508D01*
X19028Y-21504D01*
X18917Y-21482D01*
X18917Y-21482D01*
X17234Y-21482D01*
X17523Y-21363D01*
X17818Y-21067D01*
X17978Y-20682D01*
X17979Y-20264D01*
X17819Y-19878D01*
X17524Y-19582D01*
X17138Y-19422D01*
X16721Y-19422D01*
X16335Y-19581D01*
X16039Y-19876D01*
X15879Y-20262D01*
X15878Y-20680D01*
X16038Y-21066D01*
X16333Y-21362D01*
X16623Y-21482D01*
X11345Y-21482D01*
X10112Y-20249D01*
X10112Y-13862D01*
X10175Y-13799D01*
X10249Y-13620D01*
X10250Y-13427D01*
X10176Y-13248D01*
X10039Y-13111D01*
X9879Y-13045D01*
X13444Y-13045D01*
X13444Y-13045D01*
X13444Y-13045D01*
X13556Y-13023D01*
X13578Y-13018D01*
X13578Y-13018D01*
X13691Y-12943D01*
X14286Y-12348D01*
X14488Y-12348D01*
X14621Y-12321D01*
X14655Y-12299D01*
X15206Y-12299D01*
X15351Y-12444D01*
X15484Y-12500D01*
X15352Y-12554D01*
X15204Y-12702D01*
X15124Y-12895D01*
X15124Y-13103D01*
X15204Y-13297D01*
X15351Y-13444D01*
X15544Y-13524D01*
X15753Y-13525D01*
X15946Y-13445D01*
X16043Y-13348D01*
X18011Y-13348D01*
X18088Y-13425D01*
X18280Y-13505D01*
X18489Y-13505D01*
X18682Y-13425D01*
X18830Y-13278D01*
X18910Y-13085D01*
X18910Y-12876D01*
X18831Y-12683D01*
X18683Y-12535D01*
X18550Y-12480D01*
X18682Y-12425D01*
X18779Y-12328D01*
X20638Y-12328D01*
X20674Y-12416D01*
X20744Y-12486D01*
X20836Y-12524D01*
X20923Y-12525D01*
X20888Y-12539D01*
X20864Y-12632D01*
X21161Y-12929D01*
X21458Y-12632D01*
X21434Y-12539D01*
X21393Y-12525D01*
X21485Y-12525D01*
X21577Y-12487D01*
X21648Y-12416D01*
X21686Y-12324D01*
X21686Y-12225D01*
X21686Y-11675D01*
X21648Y-11583D01*
X21578Y-11513D01*
X21486Y-11475D01*
X21386Y-11474D01*
X20836Y-11474D01*
X20744Y-11512D01*
X20674Y-11583D01*
X20654Y-11631D01*
X18779Y-11631D01*
X18683Y-11535D01*
X18490Y-11455D01*
X18306Y-11455D01*
X17553Y-10702D01*
X17553Y-10612D01*
X17479Y-10433D01*
X17342Y-10296D01*
X17164Y-10222D01*
X16970Y-10222D01*
X16791Y-10296D01*
X16654Y-10432D01*
X16580Y-10611D01*
X16580Y-10804D01*
X16654Y-10983D01*
X16791Y-11120D01*
X16969Y-11194D01*
X17060Y-11194D01*
X17860Y-11995D01*
X17860Y-12084D01*
X17940Y-12277D01*
X18088Y-12425D01*
X18221Y-12480D01*
X18088Y-12534D01*
X17972Y-12651D01*
X16043Y-12651D01*
X15947Y-12555D01*
X15814Y-12499D01*
X15946Y-12445D01*
X16094Y-12297D01*
X16174Y-12104D01*
X16174Y-11896D01*
X16094Y-11703D01*
X15998Y-11605D01*
X15998Y-10511D01*
X15998Y-10511D01*
X15998Y-10511D01*
X15975Y-10400D01*
X15971Y-10378D01*
X15971Y-10378D01*
X15895Y-10265D01*
X15895Y-10265D01*
X14124Y-8493D01*
X14011Y-8418D01*
X13989Y-8413D01*
X13877Y-8391D01*
X13877Y-8391D01*
X8587Y-8391D01*
X8563Y-8367D01*
X8384Y-8293D01*
X8223Y-8293D01*
X8291Y-8225D01*
X8329Y-8133D01*
X8329Y-8111D01*
X8467Y-8249D01*
X8669Y-8333D01*
X8888Y-8333D01*
X9090Y-8250D01*
X9245Y-8095D01*
X9279Y-8013D01*
X9312Y-8094D01*
X9467Y-8249D01*
X9669Y-8333D01*
X9888Y-8333D01*
X10090Y-8250D01*
X10245Y-8095D01*
X10279Y-8013D01*
X10312Y-8094D01*
X10467Y-8249D01*
X10669Y-8333D01*
X10888Y-8333D01*
X11090Y-8250D01*
X11245Y-8095D01*
X11279Y-8013D01*
X11312Y-8094D01*
X11467Y-8249D01*
X11669Y-8333D01*
X11888Y-8333D01*
X12090Y-8250D01*
X12245Y-8095D01*
X12279Y-8013D01*
X12312Y-8094D01*
X12467Y-8249D01*
X12669Y-8333D01*
X12888Y-8333D01*
X13090Y-8250D01*
X13245Y-8095D01*
X13279Y-8013D01*
X13312Y-8094D01*
X13467Y-8249D01*
X13669Y-8333D01*
X13888Y-8333D01*
X14090Y-8250D01*
X14245Y-8095D01*
X14279Y-8013D01*
X14312Y-8094D01*
X14467Y-8249D01*
X14669Y-8333D01*
X14888Y-8333D01*
X15090Y-8250D01*
X15245Y-8095D01*
X15279Y-8013D01*
X15312Y-8094D01*
X15467Y-8249D01*
X15669Y-8333D01*
X15888Y-8333D01*
X16090Y-8250D01*
X16245Y-8095D01*
X16279Y-8013D01*
X16312Y-8094D01*
X16467Y-8249D01*
X16669Y-8333D01*
X16888Y-8333D01*
X17090Y-8250D01*
X17245Y-8095D01*
X17279Y-8013D01*
X17312Y-8094D01*
X17467Y-8249D01*
X17669Y-8333D01*
X17888Y-8333D01*
X18090Y-8250D01*
X18245Y-8095D01*
X18279Y-8013D01*
X18312Y-8094D01*
X18467Y-8249D01*
X18669Y-8333D01*
X18888Y-8333D01*
X19090Y-8250D01*
X19245Y-8095D01*
X19279Y-8013D01*
X19312Y-8094D01*
X19467Y-8249D01*
X19669Y-8333D01*
X19888Y-8333D01*
X20090Y-8250D01*
X20245Y-8095D01*
X20329Y-7893D01*
X20329Y-7674D01*
X20246Y-7472D01*
X20091Y-7317D01*
X20009Y-7283D01*
X20090Y-7250D01*
X20245Y-7095D01*
X20329Y-6893D01*
X20329Y-6674D01*
X20246Y-6472D01*
X20091Y-6317D01*
X19889Y-6233D01*
X19670Y-6233D01*
X19468Y-6316D01*
X19313Y-6471D01*
X19279Y-6553D01*
X19246Y-6472D01*
X19091Y-6317D01*
X18889Y-6233D01*
X18670Y-6233D01*
X18468Y-6316D01*
X18313Y-6471D01*
X18279Y-6553D01*
X18246Y-6472D01*
X18091Y-6317D01*
X17889Y-6233D01*
X17670Y-6233D01*
X17468Y-6316D01*
X17313Y-6471D01*
X17279Y-6553D01*
X17246Y-6472D01*
X17091Y-6317D01*
X16889Y-6233D01*
X16670Y-6233D01*
X16468Y-6316D01*
X16313Y-6471D01*
X16279Y-6553D01*
X16246Y-6472D01*
X16091Y-6317D01*
X15889Y-6233D01*
X15670Y-6233D01*
X15468Y-6316D01*
X15313Y-6471D01*
X15279Y-6553D01*
X15246Y-6472D01*
X15091Y-6317D01*
X14889Y-6233D01*
X14670Y-6233D01*
X14468Y-6316D01*
X14313Y-6471D01*
X14279Y-6553D01*
X14246Y-6472D01*
X14091Y-6317D01*
X13889Y-6233D01*
X13670Y-6233D01*
X13468Y-6316D01*
X13313Y-6471D01*
X13279Y-6553D01*
X13246Y-6472D01*
X13091Y-6317D01*
X12889Y-6233D01*
X12670Y-6233D01*
X12468Y-6316D01*
X12313Y-6471D01*
X12279Y-6553D01*
X12246Y-6472D01*
X12091Y-6317D01*
X11889Y-6233D01*
X11670Y-6233D01*
X11468Y-6316D01*
X11313Y-6471D01*
X11279Y-6553D01*
X11246Y-6472D01*
X11091Y-6317D01*
X10889Y-6233D01*
X10670Y-6233D01*
X10468Y-6316D01*
X10313Y-6471D01*
X10282Y-6547D01*
X10260Y-6495D01*
X10165Y-6468D01*
X10094Y-6538D01*
X10094Y-6397D01*
X10067Y-6302D01*
X9861Y-6228D01*
X9642Y-6239D01*
X9491Y-6302D01*
X9464Y-6397D01*
X9779Y-6712D01*
X10094Y-6397D01*
X10094Y-6538D01*
X9850Y-6783D01*
X10165Y-7098D01*
X10260Y-7071D01*
X10280Y-7016D01*
X10312Y-7094D01*
X10467Y-7249D01*
X10549Y-7283D01*
X10468Y-7316D01*
X10313Y-7471D01*
X10279Y-7553D01*
X10246Y-7472D01*
X10091Y-7317D01*
X10015Y-7286D01*
X10067Y-7264D01*
X10094Y-7169D01*
X9779Y-6854D01*
X9464Y-7169D01*
X9491Y-7264D01*
X9546Y-7284D01*
X9468Y-7316D01*
X9313Y-7471D01*
X9279Y-7553D01*
X9246Y-7472D01*
X9091Y-7317D01*
X9009Y-7283D01*
X9090Y-7250D01*
X9245Y-7095D01*
X9276Y-7019D01*
X9298Y-7071D01*
X9393Y-7098D01*
X9708Y-6783D01*
X9393Y-6468D01*
X9298Y-6495D01*
X9278Y-6550D01*
X9246Y-6472D01*
X9091Y-6317D01*
X8889Y-6233D01*
X8670Y-6233D01*
X8468Y-6316D01*
X8313Y-6471D01*
X8279Y-6553D01*
X8246Y-6472D01*
X8091Y-6317D01*
X7889Y-6233D01*
X7670Y-6233D01*
X7468Y-6316D01*
X7313Y-6471D01*
X7229Y-6673D01*
X7229Y-6892D01*
X7312Y-7094D01*
X7451Y-7233D01*
X7430Y-7233D01*
X7338Y-7271D01*
X7267Y-7341D01*
X7229Y-7433D01*
X7229Y-7532D01*
X7229Y-8132D01*
X7267Y-8224D01*
X7337Y-8295D01*
X7429Y-8333D01*
X7529Y-8333D01*
X8093Y-8333D01*
X8012Y-8367D01*
X7875Y-8503D01*
X7801Y-8682D01*
X7801Y-8875D01*
X7874Y-9054D01*
X8011Y-9191D01*
X8190Y-9265D01*
X8344Y-9265D01*
X8283Y-9412D01*
X8283Y-9641D01*
X8370Y-9852D01*
X8509Y-9992D01*
X8509Y-10393D01*
X8509Y-11031D01*
X8371Y-11169D01*
X8283Y-11381D01*
X8283Y-11609D01*
X8370Y-11821D01*
X8532Y-11983D01*
X8743Y-12070D01*
X8972Y-12071D01*
X9183Y-11983D01*
X9345Y-11822D01*
X9433Y-11610D01*
X9433Y-11382D01*
X9346Y-11170D01*
X9206Y-11031D01*
X9206Y-10739D01*
X11864Y-10721D01*
X11670Y-10730D01*
X11508Y-10797D01*
X11477Y-10895D01*
X11811Y-11228D01*
X12144Y-10895D01*
X12113Y-10797D01*
X11902Y-10720D01*
X13760Y-10707D01*
X13818Y-10766D01*
X13997Y-10840D01*
X14190Y-10840D01*
X14369Y-10766D01*
X14506Y-10630D01*
X14580Y-10451D01*
X14580Y-10258D01*
X14506Y-10079D01*
X14370Y-9942D01*
X14191Y-9868D01*
X14175Y-9868D01*
X14186Y-9841D01*
X14187Y-9647D01*
X14113Y-9469D01*
X13976Y-9332D01*
X13797Y-9257D01*
X13604Y-9257D01*
X13425Y-9331D01*
X13381Y-9375D01*
X12275Y-9375D01*
X12137Y-9237D01*
X11925Y-9149D01*
X11697Y-9149D01*
X11485Y-9236D01*
X11323Y-9398D01*
X11236Y-9609D01*
X11235Y-9838D01*
X11314Y-10028D01*
X9206Y-10042D01*
X9206Y-9992D01*
X9345Y-9853D01*
X9433Y-9642D01*
X9433Y-9413D01*
X9346Y-9202D01*
X9232Y-9088D01*
X13733Y-9088D01*
X15301Y-10656D01*
X15301Y-11606D01*
X15206Y-11700D01*
X14655Y-11700D01*
X14621Y-11678D01*
X14488Y-11651D01*
X14141Y-11651D01*
X14141Y-11651D01*
X14030Y-11673D01*
X14008Y-11678D01*
X13895Y-11753D01*
X13895Y-11753D01*
X13300Y-12348D01*
X12390Y-12348D01*
X12390Y-11386D01*
X12380Y-11158D01*
X12312Y-10996D01*
X12215Y-10965D01*
X11881Y-11299D01*
X12215Y-11632D01*
X12312Y-11602D01*
X12390Y-11386D01*
X12390Y-12348D01*
X12144Y-12348D01*
X12144Y-11703D01*
X11811Y-11369D01*
X11740Y-11440D01*
X11740Y-11299D01*
X11407Y-10965D01*
X11309Y-10996D01*
X11231Y-11211D01*
X11241Y-11439D01*
X11309Y-11602D01*
X11407Y-11632D01*
X11740Y-11299D01*
X11740Y-11440D01*
X11477Y-11703D01*
X11508Y-11801D01*
X11723Y-11878D01*
X11951Y-11868D01*
X12113Y-11801D01*
X12144Y-11703D01*
X12144Y-12348D01*
X8248Y-12348D01*
X8114Y-12374D01*
X8001Y-12450D01*
X8001Y-12450D01*
X7489Y-12962D01*
X7414Y-13075D01*
X7409Y-13097D01*
X7387Y-13208D01*
X7387Y-13208D01*
X7387Y-20885D01*
X7387Y-20885D01*
X7409Y-20997D01*
X7414Y-21019D01*
X7489Y-21132D01*
X10029Y-23671D01*
X10029Y-23671D01*
X10142Y-23747D01*
X10236Y-23765D01*
X8614Y-23765D01*
X8620Y-23760D01*
X8694Y-23581D01*
X8694Y-23387D01*
X8621Y-23209D01*
X8484Y-23072D01*
X8305Y-22998D01*
X8112Y-22997D01*
X7933Y-23071D01*
X7796Y-23208D01*
X7722Y-23387D01*
X7722Y-23580D01*
X7796Y-23759D01*
X7860Y-23823D01*
X7860Y-24114D01*
X7860Y-25216D01*
X7860Y-25216D01*
X7882Y-25327D01*
X7886Y-25349D01*
X7962Y-25462D01*
X9202Y-26703D01*
X9202Y-26703D01*
X9315Y-26778D01*
X9448Y-26805D01*
X9448Y-26805D01*
X9448Y-26805D01*
X12535Y-26805D01*
X26102Y-26805D01*
X26102Y-26805D01*
X26102Y-26805D01*
X26213Y-26782D01*
X26235Y-26778D01*
X26235Y-26778D01*
X26348Y-26703D01*
X29636Y-23415D01*
X29636Y-23415D01*
X29636Y-23415D01*
X29711Y-23302D01*
X29738Y-23169D01*
X29738Y-23169D01*
X29738Y-27289D01*
X7159Y-27289D01*
X7159Y-6175D01*
X22368Y-6175D01*
X22368Y-11811D01*
X22388Y-11914D01*
X22447Y-12001D01*
X22534Y-12060D01*
X22637Y-12080D01*
X30511Y-12080D01*
X31226Y-12080D01*
X31226Y-27289D01*
M02*
