G04 (created by PCBNEW (2013-07-07 BZR 4022)-stable) date 03 Aug 13 4:27:03 PM*
%MOIN*%
G04 Gerber Fmt 3.4, Leading zero omitted, Abs format*
%FSLAX34Y34*%
G01*
G70*
G90*
G04 APERTURE LIST*
%ADD10C,0.00590551*%
%ADD11C,0.00393701*%
G04 APERTURE END LIST*
G54D10*
G54D11*
X6910Y-38149D02*
G75*
G03X6910Y-38149I0J0D01*
G74*
G01*
X6908Y-38149D02*
X6910Y-38149D01*
X6909Y-38148D02*
X6909Y-38150D01*
X6910Y-38149D02*
G75*
G03X6910Y-38149I0J0D01*
G74*
G01*
X6908Y-38149D02*
X6910Y-38149D01*
X6909Y-38148D02*
X6909Y-38150D01*
X6851Y-5905D02*
G75*
G03X6851Y-5905I0J0D01*
G74*
G01*
X6849Y-5905D02*
X6851Y-5905D01*
X6850Y-5904D02*
X6850Y-5906D01*
X30197Y-9094D02*
G75*
G03X30197Y-9094I0J0D01*
G74*
G01*
X30195Y-9094D02*
X30197Y-9094D01*
X30196Y-9093D02*
X30196Y-9095D01*
X30138Y-9074D02*
G75*
G03X30138Y-9074I0J0D01*
G74*
G01*
X30136Y-9074D02*
X30138Y-9074D01*
X30137Y-9073D02*
X30137Y-9075D01*
X29508Y-9724D02*
G75*
G03X29508Y-9724I0J0D01*
G74*
G01*
X29506Y-9724D02*
X29508Y-9724D01*
X29507Y-9723D02*
X29507Y-9725D01*
X28032Y-8996D02*
G75*
G03X28032Y-8996I0J0D01*
G74*
G01*
X28030Y-8996D02*
X28032Y-8996D01*
X28031Y-8995D02*
X28031Y-8997D01*
X29921Y-8661D02*
G75*
G03X29921Y-8661I0J0D01*
G74*
G01*
X29920Y-8661D02*
X29922Y-8661D01*
X29921Y-8660D02*
X29921Y-8662D01*
X27618Y-22814D02*
G75*
G03X27618Y-22814I0J0D01*
G74*
G01*
X27617Y-22814D02*
X27619Y-22814D01*
X27618Y-22813D02*
X27618Y-22815D01*
X27028Y-22814D02*
G75*
G03X27028Y-22814I0J0D01*
G74*
G01*
X27026Y-22814D02*
X27028Y-22814D01*
X27027Y-22813D02*
X27027Y-22815D01*
X31496Y-11811D02*
X30511Y-11811D01*
X31496Y-27559D02*
X31496Y-11811D01*
X6889Y-27559D02*
X31496Y-27559D01*
X6889Y-5905D02*
X6889Y-27559D01*
X22637Y-11811D02*
X30511Y-11811D01*
X22637Y-5905D02*
X22637Y-11811D01*
X6889Y-5905D02*
X22637Y-5905D01*
M02*
