G04 (created by PCBNEW (2013-07-07 BZR 4022)-stable) date 03 Aug 13 4:27:03 PM*
%MOIN*%
G04 Gerber Fmt 3.4, Leading zero omitted, Abs format*
%FSLAX34Y34*%
G01*
G70*
G90*
G04 APERTURE LIST*
%ADD10C,0.00590551*%
%ADD11C,0.16*%
%ADD12R,0.06X0.06*%
%ADD13C,0.06*%
%ADD14C,0.055*%
%ADD15C,0.065*%
%ADD16R,0.055X0.055*%
%ADD17R,0.0708661X0.0708661*%
%ADD18C,0.0708661*%
%ADD19C,0.0472441*%
%ADD20C,0.00984252*%
%ADD21C,0.019685*%
%ADD22C,0.0393701*%
%ADD23C,0.01*%
G04 APERTURE END LIST*
G54D10*
G54D11*
X16929Y-20472D03*
G54D12*
X7779Y-7783D03*
G54D13*
X7779Y-6783D03*
X8779Y-7783D03*
X8779Y-6783D03*
X9779Y-7783D03*
X9779Y-6783D03*
X10779Y-7783D03*
X10779Y-6783D03*
X11779Y-7783D03*
X11779Y-6783D03*
X12779Y-7783D03*
X12779Y-6783D03*
X13779Y-7783D03*
X13779Y-6783D03*
X14779Y-7783D03*
X14779Y-6783D03*
X15779Y-7783D03*
X15779Y-6783D03*
X16779Y-7783D03*
X16779Y-6783D03*
X17779Y-7783D03*
X17779Y-6783D03*
X18779Y-7783D03*
X18779Y-6783D03*
X19779Y-7783D03*
X19779Y-6783D03*
G54D10*
G36*
X23090Y-20134D02*
X22701Y-19745D01*
X23090Y-19356D01*
X23479Y-19745D01*
X23090Y-20134D01*
X23090Y-20134D01*
G37*
G54D14*
X22383Y-20452D03*
X23090Y-21159D03*
X26043Y-20011D03*
X26043Y-21011D03*
X28444Y-19952D03*
X28444Y-20952D03*
G54D15*
X11811Y-9724D03*
X11811Y-11299D03*
X8858Y-9527D03*
X8858Y-11496D03*
G54D14*
X18385Y-12980D03*
X18385Y-11980D03*
X15649Y-12000D03*
X15649Y-13000D03*
G54D16*
X21161Y-12000D03*
G54D14*
X21161Y-13000D03*
G54D11*
X28149Y-8602D03*
G54D17*
X10039Y-25000D03*
G54D18*
X11039Y-25000D03*
X12039Y-25000D03*
X13039Y-25000D03*
X14039Y-25000D03*
X15039Y-25000D03*
X16039Y-25000D03*
X17039Y-25000D03*
X18039Y-25000D03*
X19039Y-25000D03*
X20039Y-25000D03*
X21039Y-25000D03*
X22039Y-25000D03*
X23039Y-25000D03*
X24039Y-25000D03*
X25039Y-25000D03*
G54D19*
X8720Y-25059D03*
X8287Y-8779D03*
X8208Y-23484D03*
X8385Y-13346D03*
X9074Y-14527D03*
X9763Y-13523D03*
X14074Y-15078D03*
X14645Y-23622D03*
X14094Y-10354D03*
X13700Y-9744D03*
X24133Y-16515D03*
X17066Y-10708D03*
X12814Y-23681D03*
X12224Y-12106D03*
X13720Y-23720D03*
X23090Y-17578D03*
G54D20*
X8720Y-25059D02*
X8700Y-25039D01*
G54D21*
X8287Y-8779D02*
X7779Y-8271D01*
X7779Y-8271D02*
X7779Y-7783D01*
X7763Y-6783D02*
X7165Y-7381D01*
X8208Y-23484D02*
X7165Y-22440D01*
X7165Y-22440D02*
X7165Y-21082D01*
X7763Y-6783D02*
X7779Y-6783D01*
X7165Y-7381D02*
X7165Y-21082D01*
X8385Y-13346D02*
X9468Y-12204D01*
X8779Y-7783D02*
X8779Y-8346D01*
X9468Y-9035D02*
X9468Y-12204D01*
X8779Y-8346D02*
X9468Y-9035D01*
G54D20*
X9468Y-12204D02*
X9468Y-12244D01*
G54D21*
X9074Y-14527D02*
X9074Y-13346D01*
X9862Y-7866D02*
X9779Y-7783D01*
X9862Y-12559D02*
X9862Y-7866D01*
X9074Y-13346D02*
X9862Y-12559D01*
X9763Y-13523D02*
X9783Y-13523D01*
X10779Y-8334D02*
X10779Y-7783D01*
X10275Y-8838D02*
X10779Y-8334D01*
X10275Y-13031D02*
X10275Y-8838D01*
X9783Y-13523D02*
X10275Y-13031D01*
G54D20*
X9763Y-13523D02*
X9724Y-13484D01*
G54D21*
X12779Y-7783D02*
X12779Y-13783D01*
X12779Y-13783D02*
X14074Y-15078D01*
X12779Y-7870D02*
X12779Y-7783D01*
X14645Y-23622D02*
X14645Y-18031D01*
G54D20*
X12779Y-6787D02*
X12263Y-7303D01*
X12263Y-7303D02*
X12263Y-8149D01*
X12779Y-6787D02*
X12779Y-6783D01*
G54D21*
X12263Y-8149D02*
X11200Y-9212D01*
X11200Y-14586D02*
X11200Y-9212D01*
X14645Y-18031D02*
X11200Y-14586D01*
G54D20*
X14645Y-23622D02*
X14625Y-23602D01*
X14114Y-10354D02*
X14094Y-10354D01*
G54D21*
X14779Y-9669D02*
X14114Y-10354D01*
X14779Y-9669D02*
X14779Y-7783D01*
G54D20*
X14779Y-6783D02*
X14779Y-6795D01*
G54D21*
X14271Y-9173D02*
X13700Y-9744D01*
G54D20*
X14271Y-7303D02*
X14271Y-9173D01*
X14779Y-6795D02*
X14271Y-7303D01*
G54D21*
X13779Y-8346D02*
X13779Y-8818D01*
X13779Y-8346D02*
X13779Y-7783D01*
X17440Y-16515D02*
X24133Y-16515D01*
X13208Y-12283D02*
X17440Y-16515D01*
X13208Y-9389D02*
X13208Y-12283D01*
X13779Y-8818D02*
X13208Y-9389D01*
G54D20*
X15779Y-6783D02*
X15799Y-6783D01*
G54D21*
X16279Y-9921D02*
X17066Y-10708D01*
G54D20*
X16279Y-7263D02*
X16279Y-9921D01*
X15799Y-6783D02*
X16279Y-7263D01*
G54D21*
X10649Y-9114D02*
X10649Y-9015D01*
G54D20*
X10779Y-6783D02*
X10779Y-6803D01*
X11259Y-7283D02*
X11259Y-8405D01*
X10779Y-6803D02*
X11259Y-7283D01*
G54D21*
X12814Y-17007D02*
X10649Y-14842D01*
X10649Y-14842D02*
X10649Y-9114D01*
X12814Y-23681D02*
X12814Y-17007D01*
X10649Y-9015D02*
X11259Y-8405D01*
G54D22*
X9779Y-6783D02*
X9779Y-6755D01*
X9779Y-6755D02*
X10413Y-6122D01*
X10413Y-6122D02*
X20078Y-6122D01*
X20078Y-6122D02*
X22125Y-8169D01*
X22125Y-8169D02*
X22125Y-12716D01*
X22125Y-12716D02*
X25846Y-16437D01*
X25846Y-16437D02*
X25846Y-16771D01*
X25846Y-16771D02*
X25039Y-17578D01*
X25039Y-17578D02*
X23090Y-17578D01*
X23090Y-17578D02*
X22578Y-17066D01*
X14803Y-17066D02*
X22578Y-17066D01*
X12283Y-14547D02*
X14803Y-17066D01*
X12283Y-12165D02*
X12283Y-14547D01*
X12224Y-12106D02*
X12283Y-12165D01*
X13720Y-23720D02*
X14212Y-24212D01*
X14212Y-24212D02*
X16456Y-24212D01*
X16456Y-24212D02*
X23090Y-17578D01*
G54D10*
G36*
X31226Y-27289D02*
X28969Y-27289D01*
X28969Y-20848D01*
X28890Y-20655D01*
X28742Y-20507D01*
X28609Y-20452D01*
X28741Y-20398D01*
X28889Y-20250D01*
X28969Y-20057D01*
X28969Y-19848D01*
X28890Y-19655D01*
X28742Y-19507D01*
X28549Y-19427D01*
X28340Y-19427D01*
X28147Y-19507D01*
X28000Y-19654D01*
X27919Y-19847D01*
X27919Y-20056D01*
X27999Y-20249D01*
X28147Y-20397D01*
X28280Y-20452D01*
X28147Y-20507D01*
X28000Y-20654D01*
X27919Y-20847D01*
X27919Y-21056D01*
X27999Y-21249D01*
X28147Y-21397D01*
X28339Y-21477D01*
X28548Y-21477D01*
X28741Y-21398D01*
X28889Y-21250D01*
X28969Y-21057D01*
X28969Y-20848D01*
X28969Y-27289D01*
X26568Y-27289D01*
X26568Y-20907D01*
X26488Y-20714D01*
X26341Y-20566D01*
X26208Y-20511D01*
X26340Y-20457D01*
X26488Y-20309D01*
X26568Y-20116D01*
X26568Y-19907D01*
X26488Y-19714D01*
X26341Y-19566D01*
X26148Y-19486D01*
X25939Y-19486D01*
X25746Y-19566D01*
X25598Y-19714D01*
X25518Y-19906D01*
X25518Y-20115D01*
X25597Y-20308D01*
X25745Y-20456D01*
X25878Y-20511D01*
X25746Y-20566D01*
X25598Y-20714D01*
X25518Y-20906D01*
X25518Y-21115D01*
X25597Y-21308D01*
X25745Y-21456D01*
X25938Y-21536D01*
X26147Y-21536D01*
X26340Y-21457D01*
X26488Y-21309D01*
X26568Y-21116D01*
X26568Y-20907D01*
X26568Y-27289D01*
X25643Y-27289D01*
X25643Y-24880D01*
X25551Y-24658D01*
X25382Y-24487D01*
X25160Y-24395D01*
X24919Y-24395D01*
X24697Y-24487D01*
X24539Y-24645D01*
X24382Y-24487D01*
X24160Y-24395D01*
X23919Y-24395D01*
X23729Y-24474D01*
X23729Y-19696D01*
X23691Y-19604D01*
X23621Y-19533D01*
X23541Y-19453D01*
X23452Y-19453D01*
X23382Y-19524D01*
X23382Y-19383D01*
X23382Y-19294D01*
X23302Y-19214D01*
X23231Y-19144D01*
X23140Y-19106D01*
X23040Y-19106D01*
X22948Y-19144D01*
X22798Y-19294D01*
X22798Y-19383D01*
X23090Y-19674D01*
X23382Y-19383D01*
X23382Y-19524D01*
X23161Y-19745D01*
X23452Y-20037D01*
X23541Y-20037D01*
X23691Y-19887D01*
X23729Y-19795D01*
X23729Y-19696D01*
X23729Y-24474D01*
X23697Y-24487D01*
X23615Y-24569D01*
X23615Y-21055D01*
X23535Y-20862D01*
X23388Y-20715D01*
X23195Y-20634D01*
X22986Y-20634D01*
X22853Y-20689D01*
X22908Y-20557D01*
X22908Y-20348D01*
X22878Y-20276D01*
X22878Y-20276D01*
X22949Y-20346D01*
X23041Y-20384D01*
X23140Y-20384D01*
X23232Y-20346D01*
X23382Y-20196D01*
X23382Y-20108D01*
X23090Y-19816D01*
X23084Y-19821D01*
X23014Y-19751D01*
X23019Y-19745D01*
X22728Y-19453D01*
X22639Y-19453D01*
X22489Y-19603D01*
X22451Y-19695D01*
X22451Y-19795D01*
X22489Y-19887D01*
X22559Y-19957D01*
X22559Y-19957D01*
X22488Y-19927D01*
X22279Y-19927D01*
X22086Y-20007D01*
X21938Y-20154D01*
X21858Y-20347D01*
X21858Y-20556D01*
X21938Y-20749D01*
X22085Y-20897D01*
X22278Y-20977D01*
X22487Y-20977D01*
X22620Y-20922D01*
X22565Y-21054D01*
X22565Y-21263D01*
X22645Y-21456D01*
X22792Y-21604D01*
X22985Y-21684D01*
X23194Y-21684D01*
X23387Y-21605D01*
X23535Y-21457D01*
X23615Y-21264D01*
X23615Y-21055D01*
X23615Y-24569D01*
X23539Y-24645D01*
X23382Y-24487D01*
X23160Y-24395D01*
X22919Y-24395D01*
X22697Y-24487D01*
X22539Y-24645D01*
X22382Y-24487D01*
X22160Y-24395D01*
X21919Y-24395D01*
X21697Y-24487D01*
X21539Y-24645D01*
X21382Y-24487D01*
X21160Y-24395D01*
X20919Y-24395D01*
X20697Y-24487D01*
X20539Y-24645D01*
X20382Y-24487D01*
X20160Y-24395D01*
X19919Y-24395D01*
X19697Y-24487D01*
X19539Y-24645D01*
X19382Y-24487D01*
X19160Y-24395D01*
X18919Y-24395D01*
X18697Y-24487D01*
X18539Y-24645D01*
X18382Y-24487D01*
X18160Y-24395D01*
X17979Y-24395D01*
X17979Y-20264D01*
X17819Y-19878D01*
X17524Y-19582D01*
X17138Y-19422D01*
X16721Y-19422D01*
X16335Y-19581D01*
X16039Y-19876D01*
X15879Y-20262D01*
X15878Y-20680D01*
X16038Y-21066D01*
X16333Y-21362D01*
X16719Y-21522D01*
X17137Y-21522D01*
X17523Y-21363D01*
X17818Y-21067D01*
X17978Y-20682D01*
X17979Y-20264D01*
X17979Y-24395D01*
X17919Y-24395D01*
X17697Y-24487D01*
X17539Y-24645D01*
X17382Y-24487D01*
X17160Y-24395D01*
X16919Y-24395D01*
X16697Y-24487D01*
X16539Y-24645D01*
X16382Y-24487D01*
X16160Y-24395D01*
X15919Y-24395D01*
X15697Y-24487D01*
X15539Y-24645D01*
X15382Y-24487D01*
X15160Y-24395D01*
X14919Y-24395D01*
X14697Y-24487D01*
X14527Y-24657D01*
X14523Y-24665D01*
X14464Y-24645D01*
X14393Y-24716D01*
X14393Y-24574D01*
X14359Y-24473D01*
X14134Y-24391D01*
X13893Y-24401D01*
X13718Y-24473D01*
X13684Y-24574D01*
X14039Y-24929D01*
X14393Y-24574D01*
X14393Y-24716D01*
X14110Y-25000D01*
X14464Y-25354D01*
X14523Y-25334D01*
X14526Y-25341D01*
X14696Y-25512D01*
X14918Y-25604D01*
X15159Y-25604D01*
X15381Y-25512D01*
X15539Y-25354D01*
X15696Y-25512D01*
X15918Y-25604D01*
X16159Y-25604D01*
X16381Y-25512D01*
X16539Y-25354D01*
X16696Y-25512D01*
X16918Y-25604D01*
X17159Y-25604D01*
X17381Y-25512D01*
X17539Y-25354D01*
X17696Y-25512D01*
X17918Y-25604D01*
X18159Y-25604D01*
X18381Y-25512D01*
X18539Y-25354D01*
X18696Y-25512D01*
X18918Y-25604D01*
X19159Y-25604D01*
X19381Y-25512D01*
X19539Y-25354D01*
X19696Y-25512D01*
X19918Y-25604D01*
X20159Y-25604D01*
X20381Y-25512D01*
X20539Y-25354D01*
X20696Y-25512D01*
X20918Y-25604D01*
X21159Y-25604D01*
X21381Y-25512D01*
X21539Y-25354D01*
X21696Y-25512D01*
X21918Y-25604D01*
X22159Y-25604D01*
X22381Y-25512D01*
X22539Y-25354D01*
X22696Y-25512D01*
X22918Y-25604D01*
X23159Y-25604D01*
X23381Y-25512D01*
X23539Y-25354D01*
X23696Y-25512D01*
X23918Y-25604D01*
X24159Y-25604D01*
X24381Y-25512D01*
X24539Y-25354D01*
X24696Y-25512D01*
X24918Y-25604D01*
X25159Y-25604D01*
X25381Y-25512D01*
X25551Y-25342D01*
X25643Y-25120D01*
X25643Y-24880D01*
X25643Y-27289D01*
X14393Y-27289D01*
X14393Y-25425D01*
X14039Y-25070D01*
X13968Y-25141D01*
X13968Y-25000D01*
X13614Y-24645D01*
X13554Y-24665D01*
X13551Y-24658D01*
X13382Y-24487D01*
X13160Y-24395D01*
X12919Y-24395D01*
X12697Y-24487D01*
X12539Y-24645D01*
X12382Y-24487D01*
X12160Y-24395D01*
X11919Y-24395D01*
X11697Y-24487D01*
X11539Y-24645D01*
X11382Y-24487D01*
X11160Y-24395D01*
X10919Y-24395D01*
X10697Y-24487D01*
X10627Y-24557D01*
X10605Y-24503D01*
X10535Y-24433D01*
X10443Y-24395D01*
X10151Y-24395D01*
X10089Y-24458D01*
X10089Y-24950D01*
X10097Y-24950D01*
X10097Y-25050D01*
X10089Y-25050D01*
X10089Y-25541D01*
X10151Y-25604D01*
X10443Y-25604D01*
X10535Y-25566D01*
X10605Y-25496D01*
X10627Y-25442D01*
X10696Y-25512D01*
X10918Y-25604D01*
X11159Y-25604D01*
X11381Y-25512D01*
X11539Y-25354D01*
X11696Y-25512D01*
X11918Y-25604D01*
X12159Y-25604D01*
X12381Y-25512D01*
X12539Y-25354D01*
X12696Y-25512D01*
X12918Y-25604D01*
X13159Y-25604D01*
X13381Y-25512D01*
X13551Y-25342D01*
X13554Y-25334D01*
X13614Y-25354D01*
X13968Y-25000D01*
X13968Y-25141D01*
X13684Y-25425D01*
X13718Y-25526D01*
X13944Y-25608D01*
X14184Y-25598D01*
X14359Y-25526D01*
X14393Y-25425D01*
X14393Y-27289D01*
X9989Y-27289D01*
X9989Y-25541D01*
X9989Y-25050D01*
X9989Y-24950D01*
X9989Y-24458D01*
X9926Y-24395D01*
X9635Y-24395D01*
X9543Y-24433D01*
X9473Y-24503D01*
X9435Y-24595D01*
X9434Y-24695D01*
X9435Y-24887D01*
X9497Y-24950D01*
X9989Y-24950D01*
X9989Y-25050D01*
X9497Y-25050D01*
X9435Y-25112D01*
X9434Y-25304D01*
X9435Y-25404D01*
X9473Y-25496D01*
X9543Y-25566D01*
X9635Y-25604D01*
X9926Y-25604D01*
X9989Y-25541D01*
X9989Y-27289D01*
X9206Y-27289D01*
X9206Y-24962D01*
X9132Y-24783D01*
X8996Y-24647D01*
X8817Y-24572D01*
X8624Y-24572D01*
X8445Y-24646D01*
X8308Y-24783D01*
X8234Y-24961D01*
X8234Y-25155D01*
X8308Y-25334D01*
X8444Y-25471D01*
X8623Y-25545D01*
X8816Y-25545D01*
X8995Y-25471D01*
X9132Y-25334D01*
X9206Y-25156D01*
X9206Y-24962D01*
X9206Y-27289D01*
X7159Y-27289D01*
X7159Y-22927D01*
X7722Y-23490D01*
X7722Y-23580D01*
X7796Y-23759D01*
X7932Y-23896D01*
X8111Y-23970D01*
X8304Y-23970D01*
X8483Y-23896D01*
X8620Y-23760D01*
X8694Y-23581D01*
X8694Y-23387D01*
X8621Y-23209D01*
X8484Y-23072D01*
X8305Y-22998D01*
X8215Y-22998D01*
X7513Y-22296D01*
X7513Y-21082D01*
X7513Y-8489D01*
X7533Y-8518D01*
X7801Y-8786D01*
X7801Y-8875D01*
X7874Y-9054D01*
X8011Y-9191D01*
X8190Y-9265D01*
X8344Y-9265D01*
X8283Y-9412D01*
X8283Y-9641D01*
X8370Y-9852D01*
X8532Y-10014D01*
X8743Y-10102D01*
X8972Y-10102D01*
X9120Y-10041D01*
X9120Y-10982D01*
X8973Y-10921D01*
X8744Y-10920D01*
X8532Y-11008D01*
X8371Y-11169D01*
X8283Y-11381D01*
X8283Y-11609D01*
X8370Y-11821D01*
X8532Y-11983D01*
X8743Y-12070D01*
X8972Y-12071D01*
X9120Y-12010D01*
X9120Y-12066D01*
X8366Y-12860D01*
X8289Y-12860D01*
X8110Y-12934D01*
X7973Y-13070D01*
X7899Y-13249D01*
X7899Y-13442D01*
X7973Y-13621D01*
X8110Y-13758D01*
X8288Y-13832D01*
X8482Y-13832D01*
X8660Y-13758D01*
X8726Y-13693D01*
X8726Y-14188D01*
X8662Y-14251D01*
X8588Y-14430D01*
X8588Y-14623D01*
X8662Y-14802D01*
X8799Y-14939D01*
X8977Y-15013D01*
X9171Y-15013D01*
X9349Y-14939D01*
X9486Y-14803D01*
X9560Y-14624D01*
X9561Y-14431D01*
X9487Y-14252D01*
X9423Y-14188D01*
X9423Y-13870D01*
X9487Y-13935D01*
X9666Y-14009D01*
X9860Y-14009D01*
X10038Y-13936D01*
X10175Y-13799D01*
X10249Y-13620D01*
X10249Y-13549D01*
X10301Y-13498D01*
X10301Y-14842D01*
X10301Y-14842D01*
X10323Y-14953D01*
X10327Y-14975D01*
X10403Y-15088D01*
X12466Y-17152D01*
X12466Y-23341D01*
X12403Y-23405D01*
X12328Y-23583D01*
X12328Y-23777D01*
X12402Y-23956D01*
X12539Y-24093D01*
X12717Y-24167D01*
X12911Y-24167D01*
X13090Y-24093D01*
X13226Y-23956D01*
X13301Y-23778D01*
X13301Y-23584D01*
X13227Y-23406D01*
X13163Y-23341D01*
X13163Y-17041D01*
X14297Y-18175D01*
X14297Y-23282D01*
X14233Y-23346D01*
X14159Y-23524D01*
X14159Y-23718D01*
X14233Y-23897D01*
X14369Y-24034D01*
X14548Y-24108D01*
X14741Y-24108D01*
X14920Y-24034D01*
X15057Y-23897D01*
X15131Y-23719D01*
X15131Y-23525D01*
X15058Y-23346D01*
X14994Y-23282D01*
X14994Y-18031D01*
X14967Y-17898D01*
X14892Y-17785D01*
X14892Y-17785D01*
X12390Y-15283D01*
X12390Y-11386D01*
X12380Y-11158D01*
X12312Y-10996D01*
X12215Y-10965D01*
X11881Y-11299D01*
X12215Y-11632D01*
X12312Y-11602D01*
X12390Y-11386D01*
X12390Y-15283D01*
X11549Y-14442D01*
X11549Y-11816D01*
X11723Y-11878D01*
X11951Y-11868D01*
X12113Y-11801D01*
X12144Y-11703D01*
X11811Y-11369D01*
X11805Y-11375D01*
X11734Y-11304D01*
X11740Y-11299D01*
X11734Y-11293D01*
X11805Y-11222D01*
X11811Y-11228D01*
X12144Y-10895D01*
X12113Y-10797D01*
X11898Y-10719D01*
X11670Y-10730D01*
X11549Y-10780D01*
X11549Y-10238D01*
X11696Y-10299D01*
X11924Y-10299D01*
X12136Y-10212D01*
X12298Y-10050D01*
X12385Y-9839D01*
X12386Y-9610D01*
X12298Y-9399D01*
X12137Y-9237D01*
X11925Y-9149D01*
X11756Y-9149D01*
X12431Y-8475D01*
X12431Y-13783D01*
X12431Y-13783D01*
X12453Y-13894D01*
X12457Y-13916D01*
X12533Y-14029D01*
X13588Y-15085D01*
X13588Y-15175D01*
X13662Y-15353D01*
X13799Y-15490D01*
X13977Y-15564D01*
X14171Y-15565D01*
X14349Y-15491D01*
X14486Y-15354D01*
X14560Y-15175D01*
X14561Y-14982D01*
X14487Y-14803D01*
X14350Y-14666D01*
X14171Y-14592D01*
X14081Y-14592D01*
X13127Y-13639D01*
X13127Y-12695D01*
X17194Y-16762D01*
X17194Y-16762D01*
X17307Y-16837D01*
X17440Y-16864D01*
X17440Y-16864D01*
X17440Y-16864D01*
X23794Y-16864D01*
X23858Y-16927D01*
X24036Y-17001D01*
X24230Y-17002D01*
X24408Y-16928D01*
X24545Y-16791D01*
X24619Y-16612D01*
X24620Y-16419D01*
X24546Y-16240D01*
X24409Y-16103D01*
X24230Y-16029D01*
X24037Y-16029D01*
X23858Y-16103D01*
X23794Y-16167D01*
X21691Y-16167D01*
X21691Y-13075D01*
X21686Y-12986D01*
X21686Y-12225D01*
X21686Y-11675D01*
X21648Y-11583D01*
X21578Y-11513D01*
X21486Y-11475D01*
X21386Y-11474D01*
X20836Y-11474D01*
X20744Y-11512D01*
X20674Y-11583D01*
X20636Y-11675D01*
X20636Y-11774D01*
X20636Y-12324D01*
X20674Y-12416D01*
X20744Y-12486D01*
X20836Y-12524D01*
X20923Y-12525D01*
X20888Y-12539D01*
X20864Y-12632D01*
X21161Y-12929D01*
X21458Y-12632D01*
X21434Y-12539D01*
X21393Y-12525D01*
X21485Y-12525D01*
X21577Y-12487D01*
X21648Y-12416D01*
X21686Y-12324D01*
X21686Y-12225D01*
X21686Y-12986D01*
X21679Y-12867D01*
X21621Y-12727D01*
X21529Y-12702D01*
X21232Y-13000D01*
X21529Y-13297D01*
X21621Y-13272D01*
X21691Y-13075D01*
X21691Y-16167D01*
X21458Y-16167D01*
X21458Y-13367D01*
X21161Y-13070D01*
X21090Y-13141D01*
X21090Y-13000D01*
X20793Y-12702D01*
X20700Y-12727D01*
X20631Y-12924D01*
X20642Y-13132D01*
X20700Y-13272D01*
X20793Y-13297D01*
X21090Y-13000D01*
X21090Y-13141D01*
X20864Y-13367D01*
X20888Y-13460D01*
X21085Y-13529D01*
X21294Y-13518D01*
X21434Y-13460D01*
X21458Y-13367D01*
X21458Y-16167D01*
X18910Y-16167D01*
X18910Y-12876D01*
X18831Y-12683D01*
X18683Y-12535D01*
X18550Y-12480D01*
X18682Y-12425D01*
X18830Y-12278D01*
X18910Y-12085D01*
X18910Y-11876D01*
X18831Y-11683D01*
X18683Y-11535D01*
X18490Y-11455D01*
X18281Y-11455D01*
X18088Y-11534D01*
X17941Y-11682D01*
X17860Y-11875D01*
X17860Y-12084D01*
X17940Y-12277D01*
X18088Y-12425D01*
X18221Y-12480D01*
X18088Y-12534D01*
X17941Y-12682D01*
X17860Y-12875D01*
X17860Y-13084D01*
X17940Y-13277D01*
X18088Y-13425D01*
X18280Y-13505D01*
X18489Y-13505D01*
X18682Y-13425D01*
X18830Y-13278D01*
X18910Y-13085D01*
X18910Y-12876D01*
X18910Y-16167D01*
X17585Y-16167D01*
X16174Y-14756D01*
X16174Y-12896D01*
X16094Y-12703D01*
X15947Y-12555D01*
X15814Y-12499D01*
X15946Y-12445D01*
X16094Y-12297D01*
X16174Y-12104D01*
X16174Y-11896D01*
X16094Y-11703D01*
X15947Y-11555D01*
X15754Y-11475D01*
X15545Y-11474D01*
X15352Y-11554D01*
X15204Y-11702D01*
X15124Y-11895D01*
X15124Y-12103D01*
X15204Y-12297D01*
X15351Y-12444D01*
X15484Y-12500D01*
X15352Y-12554D01*
X15204Y-12702D01*
X15124Y-12895D01*
X15124Y-13103D01*
X15204Y-13297D01*
X15351Y-13444D01*
X15544Y-13524D01*
X15753Y-13525D01*
X15946Y-13445D01*
X16094Y-13297D01*
X16174Y-13104D01*
X16174Y-12896D01*
X16174Y-14756D01*
X13557Y-12139D01*
X13557Y-10210D01*
X13603Y-10230D01*
X13619Y-10230D01*
X13608Y-10257D01*
X13608Y-10450D01*
X13682Y-10629D01*
X13818Y-10766D01*
X13997Y-10840D01*
X14190Y-10840D01*
X14369Y-10766D01*
X14506Y-10630D01*
X14580Y-10451D01*
X14580Y-10374D01*
X15029Y-9912D01*
X15087Y-9822D01*
X15101Y-9802D01*
X15101Y-9801D01*
X15103Y-9798D01*
X15121Y-9699D01*
X15127Y-9669D01*
X15127Y-9666D01*
X15128Y-9664D01*
X15127Y-9663D01*
X15127Y-8212D01*
X15245Y-8095D01*
X15279Y-8013D01*
X15312Y-8094D01*
X15467Y-8249D01*
X15669Y-8333D01*
X15888Y-8333D01*
X15980Y-8295D01*
X15980Y-9753D01*
X15957Y-9787D01*
X15931Y-9921D01*
X15957Y-10054D01*
X16033Y-10167D01*
X16580Y-10715D01*
X16580Y-10804D01*
X16654Y-10983D01*
X16791Y-11120D01*
X16969Y-11194D01*
X17163Y-11194D01*
X17341Y-11121D01*
X17478Y-10984D01*
X17553Y-10805D01*
X17553Y-10612D01*
X17479Y-10433D01*
X17342Y-10296D01*
X17164Y-10222D01*
X17073Y-10222D01*
X16578Y-9727D01*
X16578Y-8295D01*
X16669Y-8333D01*
X16888Y-8333D01*
X17090Y-8250D01*
X17245Y-8095D01*
X17279Y-8013D01*
X17312Y-8094D01*
X17467Y-8249D01*
X17669Y-8333D01*
X17888Y-8333D01*
X18090Y-8250D01*
X18245Y-8095D01*
X18279Y-8013D01*
X18312Y-8094D01*
X18467Y-8249D01*
X18669Y-8333D01*
X18888Y-8333D01*
X19090Y-8250D01*
X19245Y-8095D01*
X19279Y-8013D01*
X19312Y-8094D01*
X19467Y-8249D01*
X19669Y-8333D01*
X19888Y-8333D01*
X20090Y-8250D01*
X20245Y-8095D01*
X20329Y-7893D01*
X20329Y-7674D01*
X20246Y-7472D01*
X20091Y-7317D01*
X20009Y-7283D01*
X20090Y-7250D01*
X20245Y-7095D01*
X20329Y-6893D01*
X20329Y-6674D01*
X20246Y-6472D01*
X20091Y-6317D01*
X19889Y-6233D01*
X19670Y-6233D01*
X19468Y-6316D01*
X19313Y-6471D01*
X19279Y-6553D01*
X19246Y-6472D01*
X19091Y-6317D01*
X18889Y-6233D01*
X18670Y-6233D01*
X18468Y-6316D01*
X18313Y-6471D01*
X18279Y-6553D01*
X18246Y-6472D01*
X18091Y-6317D01*
X17889Y-6233D01*
X17670Y-6233D01*
X17468Y-6316D01*
X17313Y-6471D01*
X17279Y-6553D01*
X17246Y-6472D01*
X17091Y-6317D01*
X16889Y-6233D01*
X16670Y-6233D01*
X16468Y-6316D01*
X16313Y-6471D01*
X16279Y-6553D01*
X16246Y-6472D01*
X16091Y-6317D01*
X15889Y-6233D01*
X15670Y-6233D01*
X15468Y-6316D01*
X15313Y-6471D01*
X15279Y-6553D01*
X15246Y-6472D01*
X15091Y-6317D01*
X14889Y-6233D01*
X14670Y-6233D01*
X14468Y-6316D01*
X14313Y-6471D01*
X14279Y-6553D01*
X14246Y-6472D01*
X14091Y-6317D01*
X13889Y-6233D01*
X13670Y-6233D01*
X13468Y-6316D01*
X13313Y-6471D01*
X13279Y-6553D01*
X13246Y-6472D01*
X13091Y-6317D01*
X12889Y-6233D01*
X12670Y-6233D01*
X12468Y-6316D01*
X12313Y-6471D01*
X12279Y-6553D01*
X12246Y-6472D01*
X12091Y-6317D01*
X11889Y-6233D01*
X11670Y-6233D01*
X11468Y-6316D01*
X11313Y-6471D01*
X11279Y-6553D01*
X11246Y-6472D01*
X11091Y-6317D01*
X10889Y-6233D01*
X10670Y-6233D01*
X10468Y-6316D01*
X10313Y-6471D01*
X10282Y-6547D01*
X10260Y-6495D01*
X10165Y-6468D01*
X10094Y-6538D01*
X10094Y-6397D01*
X10067Y-6302D01*
X9861Y-6228D01*
X9642Y-6239D01*
X9491Y-6302D01*
X9464Y-6397D01*
X9779Y-6712D01*
X10094Y-6397D01*
X10094Y-6538D01*
X9850Y-6783D01*
X10165Y-7098D01*
X10260Y-7071D01*
X10280Y-7016D01*
X10312Y-7094D01*
X10467Y-7249D01*
X10549Y-7283D01*
X10468Y-7316D01*
X10313Y-7471D01*
X10279Y-7553D01*
X10246Y-7472D01*
X10091Y-7317D01*
X10015Y-7286D01*
X10067Y-7264D01*
X10094Y-7169D01*
X9779Y-6854D01*
X9464Y-7169D01*
X9491Y-7264D01*
X9546Y-7284D01*
X9468Y-7316D01*
X9313Y-7471D01*
X9279Y-7553D01*
X9246Y-7472D01*
X9091Y-7317D01*
X9009Y-7283D01*
X9090Y-7250D01*
X9245Y-7095D01*
X9276Y-7019D01*
X9298Y-7071D01*
X9393Y-7098D01*
X9708Y-6783D01*
X9393Y-6468D01*
X9298Y-6495D01*
X9278Y-6550D01*
X9246Y-6472D01*
X9091Y-6317D01*
X8889Y-6233D01*
X8670Y-6233D01*
X8468Y-6316D01*
X8313Y-6471D01*
X8279Y-6553D01*
X8246Y-6472D01*
X8091Y-6317D01*
X7889Y-6233D01*
X7670Y-6233D01*
X7468Y-6316D01*
X7313Y-6471D01*
X7229Y-6673D01*
X7229Y-6825D01*
X7159Y-6895D01*
X7159Y-6175D01*
X22368Y-6175D01*
X22368Y-11811D01*
X22388Y-11914D01*
X22447Y-12001D01*
X22534Y-12060D01*
X22637Y-12080D01*
X30511Y-12080D01*
X31226Y-12080D01*
X31226Y-27289D01*
X31226Y-27289D01*
G37*
G54D23*
X31226Y-27289D02*
X28969Y-27289D01*
X28969Y-20848D01*
X28890Y-20655D01*
X28742Y-20507D01*
X28609Y-20452D01*
X28741Y-20398D01*
X28889Y-20250D01*
X28969Y-20057D01*
X28969Y-19848D01*
X28890Y-19655D01*
X28742Y-19507D01*
X28549Y-19427D01*
X28340Y-19427D01*
X28147Y-19507D01*
X28000Y-19654D01*
X27919Y-19847D01*
X27919Y-20056D01*
X27999Y-20249D01*
X28147Y-20397D01*
X28280Y-20452D01*
X28147Y-20507D01*
X28000Y-20654D01*
X27919Y-20847D01*
X27919Y-21056D01*
X27999Y-21249D01*
X28147Y-21397D01*
X28339Y-21477D01*
X28548Y-21477D01*
X28741Y-21398D01*
X28889Y-21250D01*
X28969Y-21057D01*
X28969Y-20848D01*
X28969Y-27289D01*
X26568Y-27289D01*
X26568Y-20907D01*
X26488Y-20714D01*
X26341Y-20566D01*
X26208Y-20511D01*
X26340Y-20457D01*
X26488Y-20309D01*
X26568Y-20116D01*
X26568Y-19907D01*
X26488Y-19714D01*
X26341Y-19566D01*
X26148Y-19486D01*
X25939Y-19486D01*
X25746Y-19566D01*
X25598Y-19714D01*
X25518Y-19906D01*
X25518Y-20115D01*
X25597Y-20308D01*
X25745Y-20456D01*
X25878Y-20511D01*
X25746Y-20566D01*
X25598Y-20714D01*
X25518Y-20906D01*
X25518Y-21115D01*
X25597Y-21308D01*
X25745Y-21456D01*
X25938Y-21536D01*
X26147Y-21536D01*
X26340Y-21457D01*
X26488Y-21309D01*
X26568Y-21116D01*
X26568Y-20907D01*
X26568Y-27289D01*
X25643Y-27289D01*
X25643Y-24880D01*
X25551Y-24658D01*
X25382Y-24487D01*
X25160Y-24395D01*
X24919Y-24395D01*
X24697Y-24487D01*
X24539Y-24645D01*
X24382Y-24487D01*
X24160Y-24395D01*
X23919Y-24395D01*
X23729Y-24474D01*
X23729Y-19696D01*
X23691Y-19604D01*
X23621Y-19533D01*
X23541Y-19453D01*
X23452Y-19453D01*
X23382Y-19524D01*
X23382Y-19383D01*
X23382Y-19294D01*
X23302Y-19214D01*
X23231Y-19144D01*
X23140Y-19106D01*
X23040Y-19106D01*
X22948Y-19144D01*
X22798Y-19294D01*
X22798Y-19383D01*
X23090Y-19674D01*
X23382Y-19383D01*
X23382Y-19524D01*
X23161Y-19745D01*
X23452Y-20037D01*
X23541Y-20037D01*
X23691Y-19887D01*
X23729Y-19795D01*
X23729Y-19696D01*
X23729Y-24474D01*
X23697Y-24487D01*
X23615Y-24569D01*
X23615Y-21055D01*
X23535Y-20862D01*
X23388Y-20715D01*
X23195Y-20634D01*
X22986Y-20634D01*
X22853Y-20689D01*
X22908Y-20557D01*
X22908Y-20348D01*
X22878Y-20276D01*
X22878Y-20276D01*
X22949Y-20346D01*
X23041Y-20384D01*
X23140Y-20384D01*
X23232Y-20346D01*
X23382Y-20196D01*
X23382Y-20108D01*
X23090Y-19816D01*
X23084Y-19821D01*
X23014Y-19751D01*
X23019Y-19745D01*
X22728Y-19453D01*
X22639Y-19453D01*
X22489Y-19603D01*
X22451Y-19695D01*
X22451Y-19795D01*
X22489Y-19887D01*
X22559Y-19957D01*
X22559Y-19957D01*
X22488Y-19927D01*
X22279Y-19927D01*
X22086Y-20007D01*
X21938Y-20154D01*
X21858Y-20347D01*
X21858Y-20556D01*
X21938Y-20749D01*
X22085Y-20897D01*
X22278Y-20977D01*
X22487Y-20977D01*
X22620Y-20922D01*
X22565Y-21054D01*
X22565Y-21263D01*
X22645Y-21456D01*
X22792Y-21604D01*
X22985Y-21684D01*
X23194Y-21684D01*
X23387Y-21605D01*
X23535Y-21457D01*
X23615Y-21264D01*
X23615Y-21055D01*
X23615Y-24569D01*
X23539Y-24645D01*
X23382Y-24487D01*
X23160Y-24395D01*
X22919Y-24395D01*
X22697Y-24487D01*
X22539Y-24645D01*
X22382Y-24487D01*
X22160Y-24395D01*
X21919Y-24395D01*
X21697Y-24487D01*
X21539Y-24645D01*
X21382Y-24487D01*
X21160Y-24395D01*
X20919Y-24395D01*
X20697Y-24487D01*
X20539Y-24645D01*
X20382Y-24487D01*
X20160Y-24395D01*
X19919Y-24395D01*
X19697Y-24487D01*
X19539Y-24645D01*
X19382Y-24487D01*
X19160Y-24395D01*
X18919Y-24395D01*
X18697Y-24487D01*
X18539Y-24645D01*
X18382Y-24487D01*
X18160Y-24395D01*
X17979Y-24395D01*
X17979Y-20264D01*
X17819Y-19878D01*
X17524Y-19582D01*
X17138Y-19422D01*
X16721Y-19422D01*
X16335Y-19581D01*
X16039Y-19876D01*
X15879Y-20262D01*
X15878Y-20680D01*
X16038Y-21066D01*
X16333Y-21362D01*
X16719Y-21522D01*
X17137Y-21522D01*
X17523Y-21363D01*
X17818Y-21067D01*
X17978Y-20682D01*
X17979Y-20264D01*
X17979Y-24395D01*
X17919Y-24395D01*
X17697Y-24487D01*
X17539Y-24645D01*
X17382Y-24487D01*
X17160Y-24395D01*
X16919Y-24395D01*
X16697Y-24487D01*
X16539Y-24645D01*
X16382Y-24487D01*
X16160Y-24395D01*
X15919Y-24395D01*
X15697Y-24487D01*
X15539Y-24645D01*
X15382Y-24487D01*
X15160Y-24395D01*
X14919Y-24395D01*
X14697Y-24487D01*
X14527Y-24657D01*
X14523Y-24665D01*
X14464Y-24645D01*
X14393Y-24716D01*
X14393Y-24574D01*
X14359Y-24473D01*
X14134Y-24391D01*
X13893Y-24401D01*
X13718Y-24473D01*
X13684Y-24574D01*
X14039Y-24929D01*
X14393Y-24574D01*
X14393Y-24716D01*
X14110Y-25000D01*
X14464Y-25354D01*
X14523Y-25334D01*
X14526Y-25341D01*
X14696Y-25512D01*
X14918Y-25604D01*
X15159Y-25604D01*
X15381Y-25512D01*
X15539Y-25354D01*
X15696Y-25512D01*
X15918Y-25604D01*
X16159Y-25604D01*
X16381Y-25512D01*
X16539Y-25354D01*
X16696Y-25512D01*
X16918Y-25604D01*
X17159Y-25604D01*
X17381Y-25512D01*
X17539Y-25354D01*
X17696Y-25512D01*
X17918Y-25604D01*
X18159Y-25604D01*
X18381Y-25512D01*
X18539Y-25354D01*
X18696Y-25512D01*
X18918Y-25604D01*
X19159Y-25604D01*
X19381Y-25512D01*
X19539Y-25354D01*
X19696Y-25512D01*
X19918Y-25604D01*
X20159Y-25604D01*
X20381Y-25512D01*
X20539Y-25354D01*
X20696Y-25512D01*
X20918Y-25604D01*
X21159Y-25604D01*
X21381Y-25512D01*
X21539Y-25354D01*
X21696Y-25512D01*
X21918Y-25604D01*
X22159Y-25604D01*
X22381Y-25512D01*
X22539Y-25354D01*
X22696Y-25512D01*
X22918Y-25604D01*
X23159Y-25604D01*
X23381Y-25512D01*
X23539Y-25354D01*
X23696Y-25512D01*
X23918Y-25604D01*
X24159Y-25604D01*
X24381Y-25512D01*
X24539Y-25354D01*
X24696Y-25512D01*
X24918Y-25604D01*
X25159Y-25604D01*
X25381Y-25512D01*
X25551Y-25342D01*
X25643Y-25120D01*
X25643Y-24880D01*
X25643Y-27289D01*
X14393Y-27289D01*
X14393Y-25425D01*
X14039Y-25070D01*
X13968Y-25141D01*
X13968Y-25000D01*
X13614Y-24645D01*
X13554Y-24665D01*
X13551Y-24658D01*
X13382Y-24487D01*
X13160Y-24395D01*
X12919Y-24395D01*
X12697Y-24487D01*
X12539Y-24645D01*
X12382Y-24487D01*
X12160Y-24395D01*
X11919Y-24395D01*
X11697Y-24487D01*
X11539Y-24645D01*
X11382Y-24487D01*
X11160Y-24395D01*
X10919Y-24395D01*
X10697Y-24487D01*
X10627Y-24557D01*
X10605Y-24503D01*
X10535Y-24433D01*
X10443Y-24395D01*
X10151Y-24395D01*
X10089Y-24458D01*
X10089Y-24950D01*
X10097Y-24950D01*
X10097Y-25050D01*
X10089Y-25050D01*
X10089Y-25541D01*
X10151Y-25604D01*
X10443Y-25604D01*
X10535Y-25566D01*
X10605Y-25496D01*
X10627Y-25442D01*
X10696Y-25512D01*
X10918Y-25604D01*
X11159Y-25604D01*
X11381Y-25512D01*
X11539Y-25354D01*
X11696Y-25512D01*
X11918Y-25604D01*
X12159Y-25604D01*
X12381Y-25512D01*
X12539Y-25354D01*
X12696Y-25512D01*
X12918Y-25604D01*
X13159Y-25604D01*
X13381Y-25512D01*
X13551Y-25342D01*
X13554Y-25334D01*
X13614Y-25354D01*
X13968Y-25000D01*
X13968Y-25141D01*
X13684Y-25425D01*
X13718Y-25526D01*
X13944Y-25608D01*
X14184Y-25598D01*
X14359Y-25526D01*
X14393Y-25425D01*
X14393Y-27289D01*
X9989Y-27289D01*
X9989Y-25541D01*
X9989Y-25050D01*
X9989Y-24950D01*
X9989Y-24458D01*
X9926Y-24395D01*
X9635Y-24395D01*
X9543Y-24433D01*
X9473Y-24503D01*
X9435Y-24595D01*
X9434Y-24695D01*
X9435Y-24887D01*
X9497Y-24950D01*
X9989Y-24950D01*
X9989Y-25050D01*
X9497Y-25050D01*
X9435Y-25112D01*
X9434Y-25304D01*
X9435Y-25404D01*
X9473Y-25496D01*
X9543Y-25566D01*
X9635Y-25604D01*
X9926Y-25604D01*
X9989Y-25541D01*
X9989Y-27289D01*
X9206Y-27289D01*
X9206Y-24962D01*
X9132Y-24783D01*
X8996Y-24647D01*
X8817Y-24572D01*
X8624Y-24572D01*
X8445Y-24646D01*
X8308Y-24783D01*
X8234Y-24961D01*
X8234Y-25155D01*
X8308Y-25334D01*
X8444Y-25471D01*
X8623Y-25545D01*
X8816Y-25545D01*
X8995Y-25471D01*
X9132Y-25334D01*
X9206Y-25156D01*
X9206Y-24962D01*
X9206Y-27289D01*
X7159Y-27289D01*
X7159Y-22927D01*
X7722Y-23490D01*
X7722Y-23580D01*
X7796Y-23759D01*
X7932Y-23896D01*
X8111Y-23970D01*
X8304Y-23970D01*
X8483Y-23896D01*
X8620Y-23760D01*
X8694Y-23581D01*
X8694Y-23387D01*
X8621Y-23209D01*
X8484Y-23072D01*
X8305Y-22998D01*
X8215Y-22998D01*
X7513Y-22296D01*
X7513Y-21082D01*
X7513Y-8489D01*
X7533Y-8518D01*
X7801Y-8786D01*
X7801Y-8875D01*
X7874Y-9054D01*
X8011Y-9191D01*
X8190Y-9265D01*
X8344Y-9265D01*
X8283Y-9412D01*
X8283Y-9641D01*
X8370Y-9852D01*
X8532Y-10014D01*
X8743Y-10102D01*
X8972Y-10102D01*
X9120Y-10041D01*
X9120Y-10982D01*
X8973Y-10921D01*
X8744Y-10920D01*
X8532Y-11008D01*
X8371Y-11169D01*
X8283Y-11381D01*
X8283Y-11609D01*
X8370Y-11821D01*
X8532Y-11983D01*
X8743Y-12070D01*
X8972Y-12071D01*
X9120Y-12010D01*
X9120Y-12066D01*
X8366Y-12860D01*
X8289Y-12860D01*
X8110Y-12934D01*
X7973Y-13070D01*
X7899Y-13249D01*
X7899Y-13442D01*
X7973Y-13621D01*
X8110Y-13758D01*
X8288Y-13832D01*
X8482Y-13832D01*
X8660Y-13758D01*
X8726Y-13693D01*
X8726Y-14188D01*
X8662Y-14251D01*
X8588Y-14430D01*
X8588Y-14623D01*
X8662Y-14802D01*
X8799Y-14939D01*
X8977Y-15013D01*
X9171Y-15013D01*
X9349Y-14939D01*
X9486Y-14803D01*
X9560Y-14624D01*
X9561Y-14431D01*
X9487Y-14252D01*
X9423Y-14188D01*
X9423Y-13870D01*
X9487Y-13935D01*
X9666Y-14009D01*
X9860Y-14009D01*
X10038Y-13936D01*
X10175Y-13799D01*
X10249Y-13620D01*
X10249Y-13549D01*
X10301Y-13498D01*
X10301Y-14842D01*
X10301Y-14842D01*
X10323Y-14953D01*
X10327Y-14975D01*
X10403Y-15088D01*
X12466Y-17152D01*
X12466Y-23341D01*
X12403Y-23405D01*
X12328Y-23583D01*
X12328Y-23777D01*
X12402Y-23956D01*
X12539Y-24093D01*
X12717Y-24167D01*
X12911Y-24167D01*
X13090Y-24093D01*
X13226Y-23956D01*
X13301Y-23778D01*
X13301Y-23584D01*
X13227Y-23406D01*
X13163Y-23341D01*
X13163Y-17041D01*
X14297Y-18175D01*
X14297Y-23282D01*
X14233Y-23346D01*
X14159Y-23524D01*
X14159Y-23718D01*
X14233Y-23897D01*
X14369Y-24034D01*
X14548Y-24108D01*
X14741Y-24108D01*
X14920Y-24034D01*
X15057Y-23897D01*
X15131Y-23719D01*
X15131Y-23525D01*
X15058Y-23346D01*
X14994Y-23282D01*
X14994Y-18031D01*
X14967Y-17898D01*
X14892Y-17785D01*
X14892Y-17785D01*
X12390Y-15283D01*
X12390Y-11386D01*
X12380Y-11158D01*
X12312Y-10996D01*
X12215Y-10965D01*
X11881Y-11299D01*
X12215Y-11632D01*
X12312Y-11602D01*
X12390Y-11386D01*
X12390Y-15283D01*
X11549Y-14442D01*
X11549Y-11816D01*
X11723Y-11878D01*
X11951Y-11868D01*
X12113Y-11801D01*
X12144Y-11703D01*
X11811Y-11369D01*
X11805Y-11375D01*
X11734Y-11304D01*
X11740Y-11299D01*
X11734Y-11293D01*
X11805Y-11222D01*
X11811Y-11228D01*
X12144Y-10895D01*
X12113Y-10797D01*
X11898Y-10719D01*
X11670Y-10730D01*
X11549Y-10780D01*
X11549Y-10238D01*
X11696Y-10299D01*
X11924Y-10299D01*
X12136Y-10212D01*
X12298Y-10050D01*
X12385Y-9839D01*
X12386Y-9610D01*
X12298Y-9399D01*
X12137Y-9237D01*
X11925Y-9149D01*
X11756Y-9149D01*
X12431Y-8475D01*
X12431Y-13783D01*
X12431Y-13783D01*
X12453Y-13894D01*
X12457Y-13916D01*
X12533Y-14029D01*
X13588Y-15085D01*
X13588Y-15175D01*
X13662Y-15353D01*
X13799Y-15490D01*
X13977Y-15564D01*
X14171Y-15565D01*
X14349Y-15491D01*
X14486Y-15354D01*
X14560Y-15175D01*
X14561Y-14982D01*
X14487Y-14803D01*
X14350Y-14666D01*
X14171Y-14592D01*
X14081Y-14592D01*
X13127Y-13639D01*
X13127Y-12695D01*
X17194Y-16762D01*
X17194Y-16762D01*
X17307Y-16837D01*
X17440Y-16864D01*
X17440Y-16864D01*
X17440Y-16864D01*
X23794Y-16864D01*
X23858Y-16927D01*
X24036Y-17001D01*
X24230Y-17002D01*
X24408Y-16928D01*
X24545Y-16791D01*
X24619Y-16612D01*
X24620Y-16419D01*
X24546Y-16240D01*
X24409Y-16103D01*
X24230Y-16029D01*
X24037Y-16029D01*
X23858Y-16103D01*
X23794Y-16167D01*
X21691Y-16167D01*
X21691Y-13075D01*
X21686Y-12986D01*
X21686Y-12225D01*
X21686Y-11675D01*
X21648Y-11583D01*
X21578Y-11513D01*
X21486Y-11475D01*
X21386Y-11474D01*
X20836Y-11474D01*
X20744Y-11512D01*
X20674Y-11583D01*
X20636Y-11675D01*
X20636Y-11774D01*
X20636Y-12324D01*
X20674Y-12416D01*
X20744Y-12486D01*
X20836Y-12524D01*
X20923Y-12525D01*
X20888Y-12539D01*
X20864Y-12632D01*
X21161Y-12929D01*
X21458Y-12632D01*
X21434Y-12539D01*
X21393Y-12525D01*
X21485Y-12525D01*
X21577Y-12487D01*
X21648Y-12416D01*
X21686Y-12324D01*
X21686Y-12225D01*
X21686Y-12986D01*
X21679Y-12867D01*
X21621Y-12727D01*
X21529Y-12702D01*
X21232Y-13000D01*
X21529Y-13297D01*
X21621Y-13272D01*
X21691Y-13075D01*
X21691Y-16167D01*
X21458Y-16167D01*
X21458Y-13367D01*
X21161Y-13070D01*
X21090Y-13141D01*
X21090Y-13000D01*
X20793Y-12702D01*
X20700Y-12727D01*
X20631Y-12924D01*
X20642Y-13132D01*
X20700Y-13272D01*
X20793Y-13297D01*
X21090Y-13000D01*
X21090Y-13141D01*
X20864Y-13367D01*
X20888Y-13460D01*
X21085Y-13529D01*
X21294Y-13518D01*
X21434Y-13460D01*
X21458Y-13367D01*
X21458Y-16167D01*
X18910Y-16167D01*
X18910Y-12876D01*
X18831Y-12683D01*
X18683Y-12535D01*
X18550Y-12480D01*
X18682Y-12425D01*
X18830Y-12278D01*
X18910Y-12085D01*
X18910Y-11876D01*
X18831Y-11683D01*
X18683Y-11535D01*
X18490Y-11455D01*
X18281Y-11455D01*
X18088Y-11534D01*
X17941Y-11682D01*
X17860Y-11875D01*
X17860Y-12084D01*
X17940Y-12277D01*
X18088Y-12425D01*
X18221Y-12480D01*
X18088Y-12534D01*
X17941Y-12682D01*
X17860Y-12875D01*
X17860Y-13084D01*
X17940Y-13277D01*
X18088Y-13425D01*
X18280Y-13505D01*
X18489Y-13505D01*
X18682Y-13425D01*
X18830Y-13278D01*
X18910Y-13085D01*
X18910Y-12876D01*
X18910Y-16167D01*
X17585Y-16167D01*
X16174Y-14756D01*
X16174Y-12896D01*
X16094Y-12703D01*
X15947Y-12555D01*
X15814Y-12499D01*
X15946Y-12445D01*
X16094Y-12297D01*
X16174Y-12104D01*
X16174Y-11896D01*
X16094Y-11703D01*
X15947Y-11555D01*
X15754Y-11475D01*
X15545Y-11474D01*
X15352Y-11554D01*
X15204Y-11702D01*
X15124Y-11895D01*
X15124Y-12103D01*
X15204Y-12297D01*
X15351Y-12444D01*
X15484Y-12500D01*
X15352Y-12554D01*
X15204Y-12702D01*
X15124Y-12895D01*
X15124Y-13103D01*
X15204Y-13297D01*
X15351Y-13444D01*
X15544Y-13524D01*
X15753Y-13525D01*
X15946Y-13445D01*
X16094Y-13297D01*
X16174Y-13104D01*
X16174Y-12896D01*
X16174Y-14756D01*
X13557Y-12139D01*
X13557Y-10210D01*
X13603Y-10230D01*
X13619Y-10230D01*
X13608Y-10257D01*
X13608Y-10450D01*
X13682Y-10629D01*
X13818Y-10766D01*
X13997Y-10840D01*
X14190Y-10840D01*
X14369Y-10766D01*
X14506Y-10630D01*
X14580Y-10451D01*
X14580Y-10374D01*
X15029Y-9912D01*
X15087Y-9822D01*
X15101Y-9802D01*
X15101Y-9801D01*
X15103Y-9798D01*
X15121Y-9699D01*
X15127Y-9669D01*
X15127Y-9666D01*
X15128Y-9664D01*
X15127Y-9663D01*
X15127Y-8212D01*
X15245Y-8095D01*
X15279Y-8013D01*
X15312Y-8094D01*
X15467Y-8249D01*
X15669Y-8333D01*
X15888Y-8333D01*
X15980Y-8295D01*
X15980Y-9753D01*
X15957Y-9787D01*
X15931Y-9921D01*
X15957Y-10054D01*
X16033Y-10167D01*
X16580Y-10715D01*
X16580Y-10804D01*
X16654Y-10983D01*
X16791Y-11120D01*
X16969Y-11194D01*
X17163Y-11194D01*
X17341Y-11121D01*
X17478Y-10984D01*
X17553Y-10805D01*
X17553Y-10612D01*
X17479Y-10433D01*
X17342Y-10296D01*
X17164Y-10222D01*
X17073Y-10222D01*
X16578Y-9727D01*
X16578Y-8295D01*
X16669Y-8333D01*
X16888Y-8333D01*
X17090Y-8250D01*
X17245Y-8095D01*
X17279Y-8013D01*
X17312Y-8094D01*
X17467Y-8249D01*
X17669Y-8333D01*
X17888Y-8333D01*
X18090Y-8250D01*
X18245Y-8095D01*
X18279Y-8013D01*
X18312Y-8094D01*
X18467Y-8249D01*
X18669Y-8333D01*
X18888Y-8333D01*
X19090Y-8250D01*
X19245Y-8095D01*
X19279Y-8013D01*
X19312Y-8094D01*
X19467Y-8249D01*
X19669Y-8333D01*
X19888Y-8333D01*
X20090Y-8250D01*
X20245Y-8095D01*
X20329Y-7893D01*
X20329Y-7674D01*
X20246Y-7472D01*
X20091Y-7317D01*
X20009Y-7283D01*
X20090Y-7250D01*
X20245Y-7095D01*
X20329Y-6893D01*
X20329Y-6674D01*
X20246Y-6472D01*
X20091Y-6317D01*
X19889Y-6233D01*
X19670Y-6233D01*
X19468Y-6316D01*
X19313Y-6471D01*
X19279Y-6553D01*
X19246Y-6472D01*
X19091Y-6317D01*
X18889Y-6233D01*
X18670Y-6233D01*
X18468Y-6316D01*
X18313Y-6471D01*
X18279Y-6553D01*
X18246Y-6472D01*
X18091Y-6317D01*
X17889Y-6233D01*
X17670Y-6233D01*
X17468Y-6316D01*
X17313Y-6471D01*
X17279Y-6553D01*
X17246Y-6472D01*
X17091Y-6317D01*
X16889Y-6233D01*
X16670Y-6233D01*
X16468Y-6316D01*
X16313Y-6471D01*
X16279Y-6553D01*
X16246Y-6472D01*
X16091Y-6317D01*
X15889Y-6233D01*
X15670Y-6233D01*
X15468Y-6316D01*
X15313Y-6471D01*
X15279Y-6553D01*
X15246Y-6472D01*
X15091Y-6317D01*
X14889Y-6233D01*
X14670Y-6233D01*
X14468Y-6316D01*
X14313Y-6471D01*
X14279Y-6553D01*
X14246Y-6472D01*
X14091Y-6317D01*
X13889Y-6233D01*
X13670Y-6233D01*
X13468Y-6316D01*
X13313Y-6471D01*
X13279Y-6553D01*
X13246Y-6472D01*
X13091Y-6317D01*
X12889Y-6233D01*
X12670Y-6233D01*
X12468Y-6316D01*
X12313Y-6471D01*
X12279Y-6553D01*
X12246Y-6472D01*
X12091Y-6317D01*
X11889Y-6233D01*
X11670Y-6233D01*
X11468Y-6316D01*
X11313Y-6471D01*
X11279Y-6553D01*
X11246Y-6472D01*
X11091Y-6317D01*
X10889Y-6233D01*
X10670Y-6233D01*
X10468Y-6316D01*
X10313Y-6471D01*
X10282Y-6547D01*
X10260Y-6495D01*
X10165Y-6468D01*
X10094Y-6538D01*
X10094Y-6397D01*
X10067Y-6302D01*
X9861Y-6228D01*
X9642Y-6239D01*
X9491Y-6302D01*
X9464Y-6397D01*
X9779Y-6712D01*
X10094Y-6397D01*
X10094Y-6538D01*
X9850Y-6783D01*
X10165Y-7098D01*
X10260Y-7071D01*
X10280Y-7016D01*
X10312Y-7094D01*
X10467Y-7249D01*
X10549Y-7283D01*
X10468Y-7316D01*
X10313Y-7471D01*
X10279Y-7553D01*
X10246Y-7472D01*
X10091Y-7317D01*
X10015Y-7286D01*
X10067Y-7264D01*
X10094Y-7169D01*
X9779Y-6854D01*
X9464Y-7169D01*
X9491Y-7264D01*
X9546Y-7284D01*
X9468Y-7316D01*
X9313Y-7471D01*
X9279Y-7553D01*
X9246Y-7472D01*
X9091Y-7317D01*
X9009Y-7283D01*
X9090Y-7250D01*
X9245Y-7095D01*
X9276Y-7019D01*
X9298Y-7071D01*
X9393Y-7098D01*
X9708Y-6783D01*
X9393Y-6468D01*
X9298Y-6495D01*
X9278Y-6550D01*
X9246Y-6472D01*
X9091Y-6317D01*
X8889Y-6233D01*
X8670Y-6233D01*
X8468Y-6316D01*
X8313Y-6471D01*
X8279Y-6553D01*
X8246Y-6472D01*
X8091Y-6317D01*
X7889Y-6233D01*
X7670Y-6233D01*
X7468Y-6316D01*
X7313Y-6471D01*
X7229Y-6673D01*
X7229Y-6825D01*
X7159Y-6895D01*
X7159Y-6175D01*
X22368Y-6175D01*
X22368Y-11811D01*
X22388Y-11914D01*
X22447Y-12001D01*
X22534Y-12060D01*
X22637Y-12080D01*
X30511Y-12080D01*
X31226Y-12080D01*
X31226Y-27289D01*
M02*
